%TF.GenerationSoftware,KiCad,Pcbnew,8.0.6*%
%TF.CreationDate,2025-03-26T18:55:40-04:00*%
%TF.ProjectId,Power Management PCB,506f7765-7220-44d6-916e-6167656d656e,0*%
%TF.SameCoordinates,Original*%
%TF.FileFunction,Legend,Top*%
%TF.FilePolarity,Positive*%
%FSLAX46Y46*%
G04 Gerber Fmt 4.6, Leading zero omitted, Abs format (unit mm)*
G04 Created by KiCad (PCBNEW 8.0.6) date 2025-03-26 18:55:40*
%MOMM*%
%LPD*%
G01*
G04 APERTURE LIST*
G04 Aperture macros list*
%AMRoundRect*
0 Rectangle with rounded corners*
0 $1 Rounding radius*
0 $2 $3 $4 $5 $6 $7 $8 $9 X,Y pos of 4 corners*
0 Add a 4 corners polygon primitive as box body*
4,1,4,$2,$3,$4,$5,$6,$7,$8,$9,$2,$3,0*
0 Add four circle primitives for the rounded corners*
1,1,$1+$1,$2,$3*
1,1,$1+$1,$4,$5*
1,1,$1+$1,$6,$7*
1,1,$1+$1,$8,$9*
0 Add four rect primitives between the rounded corners*
20,1,$1+$1,$2,$3,$4,$5,0*
20,1,$1+$1,$4,$5,$6,$7,0*
20,1,$1+$1,$6,$7,$8,$9,0*
20,1,$1+$1,$8,$9,$2,$3,0*%
G04 Aperture macros list end*
%ADD10C,0.150000*%
%ADD11C,0.120000*%
%ADD12RoundRect,0.100000X-0.130000X-0.100000X0.130000X-0.100000X0.130000X0.100000X-0.130000X0.100000X0*%
%ADD13R,3.000000X0.650000*%
%ADD14RoundRect,0.250000X0.750000X-0.400000X0.750000X0.400000X-0.750000X0.400000X-0.750000X-0.400000X0*%
%ADD15RoundRect,0.250000X0.750000X-0.750000X0.750000X0.750000X-0.750000X0.750000X-0.750000X-0.750000X0*%
%ADD16RoundRect,0.375000X-0.625000X-0.375000X0.625000X-0.375000X0.625000X0.375000X-0.625000X0.375000X0*%
%ADD17RoundRect,0.500000X-0.500000X-1.400000X0.500000X-1.400000X0.500000X1.400000X-0.500000X1.400000X0*%
G04 APERTURE END LIST*
D10*
X151488333Y-111404819D02*
X151155000Y-110928628D01*
X150916905Y-111404819D02*
X150916905Y-110404819D01*
X150916905Y-110404819D02*
X151297857Y-110404819D01*
X151297857Y-110404819D02*
X151393095Y-110452438D01*
X151393095Y-110452438D02*
X151440714Y-110500057D01*
X151440714Y-110500057D02*
X151488333Y-110595295D01*
X151488333Y-110595295D02*
X151488333Y-110738152D01*
X151488333Y-110738152D02*
X151440714Y-110833390D01*
X151440714Y-110833390D02*
X151393095Y-110881009D01*
X151393095Y-110881009D02*
X151297857Y-110928628D01*
X151297857Y-110928628D02*
X150916905Y-110928628D01*
X152393095Y-110404819D02*
X151916905Y-110404819D01*
X151916905Y-110404819D02*
X151869286Y-110881009D01*
X151869286Y-110881009D02*
X151916905Y-110833390D01*
X151916905Y-110833390D02*
X152012143Y-110785771D01*
X152012143Y-110785771D02*
X152250238Y-110785771D01*
X152250238Y-110785771D02*
X152345476Y-110833390D01*
X152345476Y-110833390D02*
X152393095Y-110881009D01*
X152393095Y-110881009D02*
X152440714Y-110976247D01*
X152440714Y-110976247D02*
X152440714Y-111214342D01*
X152440714Y-111214342D02*
X152393095Y-111309580D01*
X152393095Y-111309580D02*
X152345476Y-111357200D01*
X152345476Y-111357200D02*
X152250238Y-111404819D01*
X152250238Y-111404819D02*
X152012143Y-111404819D01*
X152012143Y-111404819D02*
X151916905Y-111357200D01*
X151916905Y-111357200D02*
X151869286Y-111309580D01*
X153666666Y-96124819D02*
X153666666Y-96839104D01*
X153666666Y-96839104D02*
X153619047Y-96981961D01*
X153619047Y-96981961D02*
X153523809Y-97077200D01*
X153523809Y-97077200D02*
X153380952Y-97124819D01*
X153380952Y-97124819D02*
X153285714Y-97124819D01*
X154666666Y-97124819D02*
X154095238Y-97124819D01*
X154380952Y-97124819D02*
X154380952Y-96124819D01*
X154380952Y-96124819D02*
X154285714Y-96267676D01*
X154285714Y-96267676D02*
X154190476Y-96362914D01*
X154190476Y-96362914D02*
X154095238Y-96410533D01*
X151488333Y-107404819D02*
X151155000Y-106928628D01*
X150916905Y-107404819D02*
X150916905Y-106404819D01*
X150916905Y-106404819D02*
X151297857Y-106404819D01*
X151297857Y-106404819D02*
X151393095Y-106452438D01*
X151393095Y-106452438D02*
X151440714Y-106500057D01*
X151440714Y-106500057D02*
X151488333Y-106595295D01*
X151488333Y-106595295D02*
X151488333Y-106738152D01*
X151488333Y-106738152D02*
X151440714Y-106833390D01*
X151440714Y-106833390D02*
X151393095Y-106881009D01*
X151393095Y-106881009D02*
X151297857Y-106928628D01*
X151297857Y-106928628D02*
X150916905Y-106928628D01*
X152345476Y-106404819D02*
X152155000Y-106404819D01*
X152155000Y-106404819D02*
X152059762Y-106452438D01*
X152059762Y-106452438D02*
X152012143Y-106500057D01*
X152012143Y-106500057D02*
X151916905Y-106642914D01*
X151916905Y-106642914D02*
X151869286Y-106833390D01*
X151869286Y-106833390D02*
X151869286Y-107214342D01*
X151869286Y-107214342D02*
X151916905Y-107309580D01*
X151916905Y-107309580D02*
X151964524Y-107357200D01*
X151964524Y-107357200D02*
X152059762Y-107404819D01*
X152059762Y-107404819D02*
X152250238Y-107404819D01*
X152250238Y-107404819D02*
X152345476Y-107357200D01*
X152345476Y-107357200D02*
X152393095Y-107309580D01*
X152393095Y-107309580D02*
X152440714Y-107214342D01*
X152440714Y-107214342D02*
X152440714Y-106976247D01*
X152440714Y-106976247D02*
X152393095Y-106881009D01*
X152393095Y-106881009D02*
X152345476Y-106833390D01*
X152345476Y-106833390D02*
X152250238Y-106785771D01*
X152250238Y-106785771D02*
X152059762Y-106785771D01*
X152059762Y-106785771D02*
X151964524Y-106833390D01*
X151964524Y-106833390D02*
X151916905Y-106881009D01*
X151916905Y-106881009D02*
X151869286Y-106976247D01*
X182666666Y-96124819D02*
X182666666Y-96839104D01*
X182666666Y-96839104D02*
X182619047Y-96981961D01*
X182619047Y-96981961D02*
X182523809Y-97077200D01*
X182523809Y-97077200D02*
X182380952Y-97124819D01*
X182380952Y-97124819D02*
X182285714Y-97124819D01*
X183047619Y-96124819D02*
X183666666Y-96124819D01*
X183666666Y-96124819D02*
X183333333Y-96505771D01*
X183333333Y-96505771D02*
X183476190Y-96505771D01*
X183476190Y-96505771D02*
X183571428Y-96553390D01*
X183571428Y-96553390D02*
X183619047Y-96601009D01*
X183619047Y-96601009D02*
X183666666Y-96696247D01*
X183666666Y-96696247D02*
X183666666Y-96934342D01*
X183666666Y-96934342D02*
X183619047Y-97029580D01*
X183619047Y-97029580D02*
X183571428Y-97077200D01*
X183571428Y-97077200D02*
X183476190Y-97124819D01*
X183476190Y-97124819D02*
X183190476Y-97124819D01*
X183190476Y-97124819D02*
X183095238Y-97077200D01*
X183095238Y-97077200D02*
X183047619Y-97029580D01*
X155054819Y-106595238D02*
X154578628Y-106928571D01*
X155054819Y-107166666D02*
X154054819Y-107166666D01*
X154054819Y-107166666D02*
X154054819Y-106785714D01*
X154054819Y-106785714D02*
X154102438Y-106690476D01*
X154102438Y-106690476D02*
X154150057Y-106642857D01*
X154150057Y-106642857D02*
X154245295Y-106595238D01*
X154245295Y-106595238D02*
X154388152Y-106595238D01*
X154388152Y-106595238D02*
X154483390Y-106642857D01*
X154483390Y-106642857D02*
X154531009Y-106690476D01*
X154531009Y-106690476D02*
X154578628Y-106785714D01*
X154578628Y-106785714D02*
X154578628Y-107166666D01*
X154054819Y-106309523D02*
X155054819Y-105976190D01*
X155054819Y-105976190D02*
X154054819Y-105642857D01*
X155054819Y-104785714D02*
X155054819Y-105357142D01*
X155054819Y-105071428D02*
X154054819Y-105071428D01*
X154054819Y-105071428D02*
X154197676Y-105166666D01*
X154197676Y-105166666D02*
X154292914Y-105261904D01*
X154292914Y-105261904D02*
X154340533Y-105357142D01*
X167513333Y-111404819D02*
X167180000Y-110928628D01*
X166941905Y-111404819D02*
X166941905Y-110404819D01*
X166941905Y-110404819D02*
X167322857Y-110404819D01*
X167322857Y-110404819D02*
X167418095Y-110452438D01*
X167418095Y-110452438D02*
X167465714Y-110500057D01*
X167465714Y-110500057D02*
X167513333Y-110595295D01*
X167513333Y-110595295D02*
X167513333Y-110738152D01*
X167513333Y-110738152D02*
X167465714Y-110833390D01*
X167465714Y-110833390D02*
X167418095Y-110881009D01*
X167418095Y-110881009D02*
X167322857Y-110928628D01*
X167322857Y-110928628D02*
X166941905Y-110928628D01*
X167894286Y-110500057D02*
X167941905Y-110452438D01*
X167941905Y-110452438D02*
X168037143Y-110404819D01*
X168037143Y-110404819D02*
X168275238Y-110404819D01*
X168275238Y-110404819D02*
X168370476Y-110452438D01*
X168370476Y-110452438D02*
X168418095Y-110500057D01*
X168418095Y-110500057D02*
X168465714Y-110595295D01*
X168465714Y-110595295D02*
X168465714Y-110690533D01*
X168465714Y-110690533D02*
X168418095Y-110833390D01*
X168418095Y-110833390D02*
X167846667Y-111404819D01*
X167846667Y-111404819D02*
X168465714Y-111404819D01*
X171354819Y-106595238D02*
X170878628Y-106928571D01*
X171354819Y-107166666D02*
X170354819Y-107166666D01*
X170354819Y-107166666D02*
X170354819Y-106785714D01*
X170354819Y-106785714D02*
X170402438Y-106690476D01*
X170402438Y-106690476D02*
X170450057Y-106642857D01*
X170450057Y-106642857D02*
X170545295Y-106595238D01*
X170545295Y-106595238D02*
X170688152Y-106595238D01*
X170688152Y-106595238D02*
X170783390Y-106642857D01*
X170783390Y-106642857D02*
X170831009Y-106690476D01*
X170831009Y-106690476D02*
X170878628Y-106785714D01*
X170878628Y-106785714D02*
X170878628Y-107166666D01*
X170354819Y-106309523D02*
X171354819Y-105976190D01*
X171354819Y-105976190D02*
X170354819Y-105642857D01*
X170450057Y-105357142D02*
X170402438Y-105309523D01*
X170402438Y-105309523D02*
X170354819Y-105214285D01*
X170354819Y-105214285D02*
X170354819Y-104976190D01*
X170354819Y-104976190D02*
X170402438Y-104880952D01*
X170402438Y-104880952D02*
X170450057Y-104833333D01*
X170450057Y-104833333D02*
X170545295Y-104785714D01*
X170545295Y-104785714D02*
X170640533Y-104785714D01*
X170640533Y-104785714D02*
X170783390Y-104833333D01*
X170783390Y-104833333D02*
X171354819Y-105404761D01*
X171354819Y-105404761D02*
X171354819Y-104785714D01*
X167488333Y-107404819D02*
X167155000Y-106928628D01*
X166916905Y-107404819D02*
X166916905Y-106404819D01*
X166916905Y-106404819D02*
X167297857Y-106404819D01*
X167297857Y-106404819D02*
X167393095Y-106452438D01*
X167393095Y-106452438D02*
X167440714Y-106500057D01*
X167440714Y-106500057D02*
X167488333Y-106595295D01*
X167488333Y-106595295D02*
X167488333Y-106738152D01*
X167488333Y-106738152D02*
X167440714Y-106833390D01*
X167440714Y-106833390D02*
X167393095Y-106881009D01*
X167393095Y-106881009D02*
X167297857Y-106928628D01*
X167297857Y-106928628D02*
X166916905Y-106928628D01*
X167821667Y-106404819D02*
X168440714Y-106404819D01*
X168440714Y-106404819D02*
X168107381Y-106785771D01*
X168107381Y-106785771D02*
X168250238Y-106785771D01*
X168250238Y-106785771D02*
X168345476Y-106833390D01*
X168345476Y-106833390D02*
X168393095Y-106881009D01*
X168393095Y-106881009D02*
X168440714Y-106976247D01*
X168440714Y-106976247D02*
X168440714Y-107214342D01*
X168440714Y-107214342D02*
X168393095Y-107309580D01*
X168393095Y-107309580D02*
X168345476Y-107357200D01*
X168345476Y-107357200D02*
X168250238Y-107404819D01*
X168250238Y-107404819D02*
X167964524Y-107404819D01*
X167964524Y-107404819D02*
X167869286Y-107357200D01*
X167869286Y-107357200D02*
X167821667Y-107309580D01*
X175238095Y-110954819D02*
X175238095Y-111764342D01*
X175238095Y-111764342D02*
X175285714Y-111859580D01*
X175285714Y-111859580D02*
X175333333Y-111907200D01*
X175333333Y-111907200D02*
X175428571Y-111954819D01*
X175428571Y-111954819D02*
X175619047Y-111954819D01*
X175619047Y-111954819D02*
X175714285Y-111907200D01*
X175714285Y-111907200D02*
X175761904Y-111859580D01*
X175761904Y-111859580D02*
X175809523Y-111764342D01*
X175809523Y-111764342D02*
X175809523Y-110954819D01*
X176238095Y-111050057D02*
X176285714Y-111002438D01*
X176285714Y-111002438D02*
X176380952Y-110954819D01*
X176380952Y-110954819D02*
X176619047Y-110954819D01*
X176619047Y-110954819D02*
X176714285Y-111002438D01*
X176714285Y-111002438D02*
X176761904Y-111050057D01*
X176761904Y-111050057D02*
X176809523Y-111145295D01*
X176809523Y-111145295D02*
X176809523Y-111240533D01*
X176809523Y-111240533D02*
X176761904Y-111383390D01*
X176761904Y-111383390D02*
X176190476Y-111954819D01*
X176190476Y-111954819D02*
X176809523Y-111954819D01*
X157088095Y-110954819D02*
X157088095Y-111764342D01*
X157088095Y-111764342D02*
X157135714Y-111859580D01*
X157135714Y-111859580D02*
X157183333Y-111907200D01*
X157183333Y-111907200D02*
X157278571Y-111954819D01*
X157278571Y-111954819D02*
X157469047Y-111954819D01*
X157469047Y-111954819D02*
X157564285Y-111907200D01*
X157564285Y-111907200D02*
X157611904Y-111859580D01*
X157611904Y-111859580D02*
X157659523Y-111764342D01*
X157659523Y-111764342D02*
X157659523Y-110954819D01*
X158659523Y-111954819D02*
X158088095Y-111954819D01*
X158373809Y-111954819D02*
X158373809Y-110954819D01*
X158373809Y-110954819D02*
X158278571Y-111097676D01*
X158278571Y-111097676D02*
X158183333Y-111192914D01*
X158183333Y-111192914D02*
X158088095Y-111240533D01*
X183012142Y-115404819D02*
X182678809Y-114928628D01*
X182440714Y-115404819D02*
X182440714Y-114404819D01*
X182440714Y-114404819D02*
X182821666Y-114404819D01*
X182821666Y-114404819D02*
X182916904Y-114452438D01*
X182916904Y-114452438D02*
X182964523Y-114500057D01*
X182964523Y-114500057D02*
X183012142Y-114595295D01*
X183012142Y-114595295D02*
X183012142Y-114738152D01*
X183012142Y-114738152D02*
X182964523Y-114833390D01*
X182964523Y-114833390D02*
X182916904Y-114881009D01*
X182916904Y-114881009D02*
X182821666Y-114928628D01*
X182821666Y-114928628D02*
X182440714Y-114928628D01*
X183964523Y-115404819D02*
X183393095Y-115404819D01*
X183678809Y-115404819D02*
X183678809Y-114404819D01*
X183678809Y-114404819D02*
X183583571Y-114547676D01*
X183583571Y-114547676D02*
X183488333Y-114642914D01*
X183488333Y-114642914D02*
X183393095Y-114690533D01*
X184916904Y-115404819D02*
X184345476Y-115404819D01*
X184631190Y-115404819D02*
X184631190Y-114404819D01*
X184631190Y-114404819D02*
X184535952Y-114547676D01*
X184535952Y-114547676D02*
X184440714Y-114642914D01*
X184440714Y-114642914D02*
X184345476Y-114690533D01*
X183488333Y-107404819D02*
X183155000Y-106928628D01*
X182916905Y-107404819D02*
X182916905Y-106404819D01*
X182916905Y-106404819D02*
X183297857Y-106404819D01*
X183297857Y-106404819D02*
X183393095Y-106452438D01*
X183393095Y-106452438D02*
X183440714Y-106500057D01*
X183440714Y-106500057D02*
X183488333Y-106595295D01*
X183488333Y-106595295D02*
X183488333Y-106738152D01*
X183488333Y-106738152D02*
X183440714Y-106833390D01*
X183440714Y-106833390D02*
X183393095Y-106881009D01*
X183393095Y-106881009D02*
X183297857Y-106928628D01*
X183297857Y-106928628D02*
X182916905Y-106928628D01*
X183964524Y-107404819D02*
X184155000Y-107404819D01*
X184155000Y-107404819D02*
X184250238Y-107357200D01*
X184250238Y-107357200D02*
X184297857Y-107309580D01*
X184297857Y-107309580D02*
X184393095Y-107166723D01*
X184393095Y-107166723D02*
X184440714Y-106976247D01*
X184440714Y-106976247D02*
X184440714Y-106595295D01*
X184440714Y-106595295D02*
X184393095Y-106500057D01*
X184393095Y-106500057D02*
X184345476Y-106452438D01*
X184345476Y-106452438D02*
X184250238Y-106404819D01*
X184250238Y-106404819D02*
X184059762Y-106404819D01*
X184059762Y-106404819D02*
X183964524Y-106452438D01*
X183964524Y-106452438D02*
X183916905Y-106500057D01*
X183916905Y-106500057D02*
X183869286Y-106595295D01*
X183869286Y-106595295D02*
X183869286Y-106833390D01*
X183869286Y-106833390D02*
X183916905Y-106928628D01*
X183916905Y-106928628D02*
X183964524Y-106976247D01*
X183964524Y-106976247D02*
X184059762Y-107023866D01*
X184059762Y-107023866D02*
X184250238Y-107023866D01*
X184250238Y-107023866D02*
X184345476Y-106976247D01*
X184345476Y-106976247D02*
X184393095Y-106928628D01*
X184393095Y-106928628D02*
X184440714Y-106833390D01*
X145666666Y-105489819D02*
X145666666Y-106204104D01*
X145666666Y-106204104D02*
X145619047Y-106346961D01*
X145619047Y-106346961D02*
X145523809Y-106442200D01*
X145523809Y-106442200D02*
X145380952Y-106489819D01*
X145380952Y-106489819D02*
X145285714Y-106489819D01*
X146571428Y-105823152D02*
X146571428Y-106489819D01*
X146333333Y-105442200D02*
X146095238Y-106156485D01*
X146095238Y-106156485D02*
X146714285Y-106156485D01*
X167488333Y-115404819D02*
X167155000Y-114928628D01*
X166916905Y-115404819D02*
X166916905Y-114404819D01*
X166916905Y-114404819D02*
X167297857Y-114404819D01*
X167297857Y-114404819D02*
X167393095Y-114452438D01*
X167393095Y-114452438D02*
X167440714Y-114500057D01*
X167440714Y-114500057D02*
X167488333Y-114595295D01*
X167488333Y-114595295D02*
X167488333Y-114738152D01*
X167488333Y-114738152D02*
X167440714Y-114833390D01*
X167440714Y-114833390D02*
X167393095Y-114881009D01*
X167393095Y-114881009D02*
X167297857Y-114928628D01*
X167297857Y-114928628D02*
X166916905Y-114928628D01*
X168440714Y-115404819D02*
X167869286Y-115404819D01*
X168155000Y-115404819D02*
X168155000Y-114404819D01*
X168155000Y-114404819D02*
X168059762Y-114547676D01*
X168059762Y-114547676D02*
X167964524Y-114642914D01*
X167964524Y-114642914D02*
X167869286Y-114690533D01*
X166166666Y-96489819D02*
X166166666Y-97204104D01*
X166166666Y-97204104D02*
X166119047Y-97346961D01*
X166119047Y-97346961D02*
X166023809Y-97442200D01*
X166023809Y-97442200D02*
X165880952Y-97489819D01*
X165880952Y-97489819D02*
X165785714Y-97489819D01*
X166595238Y-96585057D02*
X166642857Y-96537438D01*
X166642857Y-96537438D02*
X166738095Y-96489819D01*
X166738095Y-96489819D02*
X166976190Y-96489819D01*
X166976190Y-96489819D02*
X167071428Y-96537438D01*
X167071428Y-96537438D02*
X167119047Y-96585057D01*
X167119047Y-96585057D02*
X167166666Y-96680295D01*
X167166666Y-96680295D02*
X167166666Y-96775533D01*
X167166666Y-96775533D02*
X167119047Y-96918390D01*
X167119047Y-96918390D02*
X166547619Y-97489819D01*
X166547619Y-97489819D02*
X167166666Y-97489819D01*
X151513333Y-115404819D02*
X151180000Y-114928628D01*
X150941905Y-115404819D02*
X150941905Y-114404819D01*
X150941905Y-114404819D02*
X151322857Y-114404819D01*
X151322857Y-114404819D02*
X151418095Y-114452438D01*
X151418095Y-114452438D02*
X151465714Y-114500057D01*
X151465714Y-114500057D02*
X151513333Y-114595295D01*
X151513333Y-114595295D02*
X151513333Y-114738152D01*
X151513333Y-114738152D02*
X151465714Y-114833390D01*
X151465714Y-114833390D02*
X151418095Y-114881009D01*
X151418095Y-114881009D02*
X151322857Y-114928628D01*
X151322857Y-114928628D02*
X150941905Y-114928628D01*
X152370476Y-114738152D02*
X152370476Y-115404819D01*
X152132381Y-114357200D02*
X151894286Y-115071485D01*
X151894286Y-115071485D02*
X152513333Y-115071485D01*
X183012142Y-110404819D02*
X182678809Y-109928628D01*
X182440714Y-110404819D02*
X182440714Y-109404819D01*
X182440714Y-109404819D02*
X182821666Y-109404819D01*
X182821666Y-109404819D02*
X182916904Y-109452438D01*
X182916904Y-109452438D02*
X182964523Y-109500057D01*
X182964523Y-109500057D02*
X183012142Y-109595295D01*
X183012142Y-109595295D02*
X183012142Y-109738152D01*
X183012142Y-109738152D02*
X182964523Y-109833390D01*
X182964523Y-109833390D02*
X182916904Y-109881009D01*
X182916904Y-109881009D02*
X182821666Y-109928628D01*
X182821666Y-109928628D02*
X182440714Y-109928628D01*
X183964523Y-110404819D02*
X183393095Y-110404819D01*
X183678809Y-110404819D02*
X183678809Y-109404819D01*
X183678809Y-109404819D02*
X183583571Y-109547676D01*
X183583571Y-109547676D02*
X183488333Y-109642914D01*
X183488333Y-109642914D02*
X183393095Y-109690533D01*
X184583571Y-109404819D02*
X184678809Y-109404819D01*
X184678809Y-109404819D02*
X184774047Y-109452438D01*
X184774047Y-109452438D02*
X184821666Y-109500057D01*
X184821666Y-109500057D02*
X184869285Y-109595295D01*
X184869285Y-109595295D02*
X184916904Y-109785771D01*
X184916904Y-109785771D02*
X184916904Y-110023866D01*
X184916904Y-110023866D02*
X184869285Y-110214342D01*
X184869285Y-110214342D02*
X184821666Y-110309580D01*
X184821666Y-110309580D02*
X184774047Y-110357200D01*
X184774047Y-110357200D02*
X184678809Y-110404819D01*
X184678809Y-110404819D02*
X184583571Y-110404819D01*
X184583571Y-110404819D02*
X184488333Y-110357200D01*
X184488333Y-110357200D02*
X184440714Y-110309580D01*
X184440714Y-110309580D02*
X184393095Y-110214342D01*
X184393095Y-110214342D02*
X184345476Y-110023866D01*
X184345476Y-110023866D02*
X184345476Y-109785771D01*
X184345476Y-109785771D02*
X184393095Y-109595295D01*
X184393095Y-109595295D02*
X184440714Y-109500057D01*
X184440714Y-109500057D02*
X184488333Y-109452438D01*
X184488333Y-109452438D02*
X184583571Y-109404819D01*
X190088095Y-110954819D02*
X190088095Y-111764342D01*
X190088095Y-111764342D02*
X190135714Y-111859580D01*
X190135714Y-111859580D02*
X190183333Y-111907200D01*
X190183333Y-111907200D02*
X190278571Y-111954819D01*
X190278571Y-111954819D02*
X190469047Y-111954819D01*
X190469047Y-111954819D02*
X190564285Y-111907200D01*
X190564285Y-111907200D02*
X190611904Y-111859580D01*
X190611904Y-111859580D02*
X190659523Y-111764342D01*
X190659523Y-111764342D02*
X190659523Y-110954819D01*
X191040476Y-110954819D02*
X191659523Y-110954819D01*
X191659523Y-110954819D02*
X191326190Y-111335771D01*
X191326190Y-111335771D02*
X191469047Y-111335771D01*
X191469047Y-111335771D02*
X191564285Y-111383390D01*
X191564285Y-111383390D02*
X191611904Y-111431009D01*
X191611904Y-111431009D02*
X191659523Y-111526247D01*
X191659523Y-111526247D02*
X191659523Y-111764342D01*
X191659523Y-111764342D02*
X191611904Y-111859580D01*
X191611904Y-111859580D02*
X191564285Y-111907200D01*
X191564285Y-111907200D02*
X191469047Y-111954819D01*
X191469047Y-111954819D02*
X191183333Y-111954819D01*
X191183333Y-111954819D02*
X191088095Y-111907200D01*
X191088095Y-111907200D02*
X191040476Y-111859580D01*
X187054819Y-105595238D02*
X186578628Y-105928571D01*
X187054819Y-106166666D02*
X186054819Y-106166666D01*
X186054819Y-106166666D02*
X186054819Y-105785714D01*
X186054819Y-105785714D02*
X186102438Y-105690476D01*
X186102438Y-105690476D02*
X186150057Y-105642857D01*
X186150057Y-105642857D02*
X186245295Y-105595238D01*
X186245295Y-105595238D02*
X186388152Y-105595238D01*
X186388152Y-105595238D02*
X186483390Y-105642857D01*
X186483390Y-105642857D02*
X186531009Y-105690476D01*
X186531009Y-105690476D02*
X186578628Y-105785714D01*
X186578628Y-105785714D02*
X186578628Y-106166666D01*
X186054819Y-105309523D02*
X187054819Y-104976190D01*
X187054819Y-104976190D02*
X186054819Y-104642857D01*
X186054819Y-104404761D02*
X186054819Y-103785714D01*
X186054819Y-103785714D02*
X186435771Y-104119047D01*
X186435771Y-104119047D02*
X186435771Y-103976190D01*
X186435771Y-103976190D02*
X186483390Y-103880952D01*
X186483390Y-103880952D02*
X186531009Y-103833333D01*
X186531009Y-103833333D02*
X186626247Y-103785714D01*
X186626247Y-103785714D02*
X186864342Y-103785714D01*
X186864342Y-103785714D02*
X186959580Y-103833333D01*
X186959580Y-103833333D02*
X187007200Y-103880952D01*
X187007200Y-103880952D02*
X187054819Y-103976190D01*
X187054819Y-103976190D02*
X187054819Y-104261904D01*
X187054819Y-104261904D02*
X187007200Y-104357142D01*
X187007200Y-104357142D02*
X186959580Y-104404761D01*
D11*
%TO.C,J1*%
X152890000Y-97670000D02*
X152890000Y-97780000D01*
X152890000Y-97670000D02*
X155110000Y-97670000D01*
X152890000Y-97780000D02*
X151060000Y-97780000D01*
X152890000Y-98950000D02*
X152890000Y-100320000D01*
X152890000Y-100330000D02*
X155110000Y-100330000D01*
X155110000Y-97680000D02*
X155110000Y-99050000D01*
X155110000Y-100220000D02*
X155110000Y-100330000D01*
%TO.C,J3*%
X181890000Y-97670000D02*
X181890000Y-97780000D01*
X181890000Y-97670000D02*
X184110000Y-97670000D01*
X181890000Y-97780000D02*
X180060000Y-97780000D01*
X181890000Y-98950000D02*
X181890000Y-100320000D01*
X181890000Y-100330000D02*
X184110000Y-100330000D01*
X184110000Y-97680000D02*
X184110000Y-99050000D01*
X184110000Y-100220000D02*
X184110000Y-100330000D01*
%TO.C,RV1*%
X156480000Y-103630000D02*
X161220000Y-103630000D01*
X156480000Y-103940000D02*
X156480000Y-103630000D01*
X156480000Y-106240000D02*
X156480000Y-105760000D01*
X156480000Y-108370000D02*
X156480000Y-108060000D01*
X156480000Y-108370000D02*
X161220000Y-108370000D01*
X161220000Y-104740000D02*
X161220000Y-103630000D01*
X161220000Y-108370000D02*
X161220000Y-107270000D01*
%TO.C,RV2*%
X172780000Y-103630000D02*
X177520000Y-103630000D01*
X172780000Y-103940000D02*
X172780000Y-103630000D01*
X172780000Y-106240000D02*
X172780000Y-105760000D01*
X172780000Y-108370000D02*
X172780000Y-108060000D01*
X172780000Y-108370000D02*
X177520000Y-108370000D01*
X177520000Y-104740000D02*
X177520000Y-103630000D01*
X177520000Y-108370000D02*
X177520000Y-107270000D01*
%TO.C,U2*%
X174150000Y-112590000D02*
X177910000Y-112590000D01*
X174150000Y-119410000D02*
X177910000Y-119410000D01*
X177910000Y-112590000D02*
X177910000Y-113850000D01*
X177910000Y-119410000D02*
X177910000Y-118150000D01*
X172870000Y-112690000D02*
X172630000Y-112360000D01*
X173110000Y-112360000D01*
X172870000Y-112690000D01*
G36*
X172870000Y-112690000D02*
G01*
X172630000Y-112360000D01*
X173110000Y-112360000D01*
X172870000Y-112690000D01*
G37*
%TO.C,U1*%
X156000000Y-112590000D02*
X159760000Y-112590000D01*
X156000000Y-119410000D02*
X159760000Y-119410000D01*
X159760000Y-112590000D02*
X159760000Y-113850000D01*
X159760000Y-119410000D02*
X159760000Y-118150000D01*
X154720000Y-112690000D02*
X154480000Y-112360000D01*
X154960000Y-112360000D01*
X154720000Y-112690000D01*
G36*
X154720000Y-112690000D02*
G01*
X154480000Y-112360000D01*
X154960000Y-112360000D01*
X154720000Y-112690000D01*
G37*
%TO.C,J4*%
X144890000Y-107035000D02*
X144890000Y-107145000D01*
X144890000Y-107035000D02*
X147110000Y-107035000D01*
X144890000Y-107145000D02*
X143060000Y-107145000D01*
X144890000Y-108315000D02*
X144890000Y-109685000D01*
X144890000Y-109695000D02*
X147110000Y-109695000D01*
X147110000Y-107045000D02*
X147110000Y-108415000D01*
X147110000Y-109585000D02*
X147110000Y-109695000D01*
%TO.C,J2*%
X165390000Y-98035000D02*
X165390000Y-98145000D01*
X165390000Y-98035000D02*
X167610000Y-98035000D01*
X165390000Y-98145000D02*
X163560000Y-98145000D01*
X165390000Y-99315000D02*
X165390000Y-100685000D01*
X165390000Y-100695000D02*
X167610000Y-100695000D01*
X167610000Y-98045000D02*
X167610000Y-99415000D01*
X167610000Y-100585000D02*
X167610000Y-100695000D01*
%TO.C,U3*%
X189000000Y-112590000D02*
X192760000Y-112590000D01*
X189000000Y-119410000D02*
X192760000Y-119410000D01*
X192760000Y-112590000D02*
X192760000Y-113850000D01*
X192760000Y-119410000D02*
X192760000Y-118150000D01*
X187720000Y-112690000D02*
X187480000Y-112360000D01*
X187960000Y-112360000D01*
X187720000Y-112690000D01*
G36*
X187720000Y-112690000D02*
G01*
X187480000Y-112360000D01*
X187960000Y-112360000D01*
X187720000Y-112690000D01*
G37*
%TO.C,RV3*%
X188480000Y-102630000D02*
X193220000Y-102630000D01*
X188480000Y-102940000D02*
X188480000Y-102630000D01*
X188480000Y-105240000D02*
X188480000Y-104760000D01*
X188480000Y-107370000D02*
X188480000Y-107060000D01*
X188480000Y-107370000D02*
X193220000Y-107370000D01*
X193220000Y-103740000D02*
X193220000Y-102630000D01*
X193220000Y-107370000D02*
X193220000Y-106270000D01*
%TD*%
%LPC*%
D12*
%TO.C,R5*%
X151335000Y-112000000D03*
X151975000Y-112000000D03*
%TD*%
D13*
%TO.C,J1*%
X152500000Y-98365000D03*
X155500000Y-99635000D03*
%TD*%
D12*
%TO.C,R6*%
X151335000Y-108000000D03*
X151975000Y-108000000D03*
%TD*%
D13*
%TO.C,J3*%
X181500000Y-98365000D03*
X184500000Y-99635000D03*
%TD*%
D14*
%TO.C,RV1*%
X156850000Y-107150000D03*
D15*
X160850000Y-106000000D03*
D14*
X156850000Y-104850000D03*
%TD*%
D12*
%TO.C,R2*%
X167360000Y-112000000D03*
X168000000Y-112000000D03*
%TD*%
D14*
%TO.C,RV2*%
X173150000Y-107150000D03*
D15*
X177150000Y-106000000D03*
D14*
X173150000Y-104850000D03*
%TD*%
D12*
%TO.C,R3*%
X167335000Y-108000000D03*
X167975000Y-108000000D03*
%TD*%
D16*
%TO.C,U2*%
X172850000Y-113700000D03*
X172850000Y-116000000D03*
D17*
X179150000Y-116000000D03*
D16*
X172850000Y-118300000D03*
%TD*%
%TO.C,U1*%
X154700000Y-113700000D03*
X154700000Y-116000000D03*
D17*
X161000000Y-116000000D03*
D16*
X154700000Y-118300000D03*
%TD*%
D12*
%TO.C,R11*%
X183335000Y-116000000D03*
X183975000Y-116000000D03*
%TD*%
%TO.C,R9*%
X183335000Y-108000000D03*
X183975000Y-108000000D03*
%TD*%
D13*
%TO.C,J4*%
X144500000Y-107730000D03*
X147500000Y-109000000D03*
%TD*%
D12*
%TO.C,R1*%
X167335000Y-116000000D03*
X167975000Y-116000000D03*
%TD*%
D13*
%TO.C,J2*%
X165000000Y-98730000D03*
X168000000Y-100000000D03*
%TD*%
D12*
%TO.C,R4*%
X151360000Y-116000000D03*
X152000000Y-116000000D03*
%TD*%
%TO.C,R10*%
X183335000Y-111000000D03*
X183975000Y-111000000D03*
%TD*%
D16*
%TO.C,U3*%
X187700000Y-113700000D03*
X187700000Y-116000000D03*
D17*
X194000000Y-116000000D03*
D16*
X187700000Y-118300000D03*
%TD*%
D14*
%TO.C,RV3*%
X188850000Y-106150000D03*
D15*
X192850000Y-105000000D03*
D14*
X188850000Y-103850000D03*
%TD*%
%LPD*%
M02*
