%TF.GenerationSoftware,KiCad,Pcbnew,8.0.6*%
%TF.CreationDate,2025-09-08T18:20:21-04:00*%
%TF.ProjectId,Power Management PCB,506f7765-7220-44d6-916e-6167656d656e,0*%
%TF.SameCoordinates,Original*%
%TF.FileFunction,Soldermask,Top*%
%TF.FilePolarity,Negative*%
%FSLAX46Y46*%
G04 Gerber Fmt 4.6, Leading zero omitted, Abs format (unit mm)*
G04 Created by KiCad (PCBNEW 8.0.6) date 2025-09-08 18:20:21*
%MOMM*%
%LPD*%
G01*
G04 APERTURE LIST*
G04 Aperture macros list*
%AMRoundRect*
0 Rectangle with rounded corners*
0 $1 Rounding radius*
0 $2 $3 $4 $5 $6 $7 $8 $9 X,Y pos of 4 corners*
0 Add a 4 corners polygon primitive as box body*
4,1,4,$2,$3,$4,$5,$6,$7,$8,$9,$2,$3,0*
0 Add four circle primitives for the rounded corners*
1,1,$1+$1,$2,$3*
1,1,$1+$1,$4,$5*
1,1,$1+$1,$6,$7*
1,1,$1+$1,$8,$9*
0 Add four rect primitives between the rounded corners*
20,1,$1+$1,$2,$3,$4,$5,0*
20,1,$1+$1,$4,$5,$6,$7,0*
20,1,$1+$1,$6,$7,$8,$9,0*
20,1,$1+$1,$8,$9,$2,$3,0*%
G04 Aperture macros list end*
%ADD10RoundRect,0.100000X-0.130000X-0.100000X0.130000X-0.100000X0.130000X0.100000X-0.130000X0.100000X0*%
%ADD11R,3.000000X0.650000*%
%ADD12RoundRect,0.250000X0.750000X-0.400000X0.750000X0.400000X-0.750000X0.400000X-0.750000X-0.400000X0*%
%ADD13RoundRect,0.250000X0.750000X-0.750000X0.750000X0.750000X-0.750000X0.750000X-0.750000X-0.750000X0*%
%ADD14RoundRect,0.375000X-0.625000X-0.375000X0.625000X-0.375000X0.625000X0.375000X-0.625000X0.375000X0*%
%ADD15RoundRect,0.500000X-0.500000X-1.400000X0.500000X-1.400000X0.500000X1.400000X-0.500000X1.400000X0*%
G04 APERTURE END LIST*
D10*
%TO.C,R5*%
X151335000Y-112000000D03*
X151975000Y-112000000D03*
%TD*%
D11*
%TO.C,J1*%
X152500000Y-98365000D03*
X155500000Y-99635000D03*
%TD*%
D10*
%TO.C,R6*%
X151335000Y-108000000D03*
X151975000Y-108000000D03*
%TD*%
D11*
%TO.C,J3*%
X181500000Y-98365000D03*
X184500000Y-99635000D03*
%TD*%
D12*
%TO.C,RV1*%
X156850000Y-107150000D03*
D13*
X160850000Y-106000000D03*
D12*
X156850000Y-104850000D03*
%TD*%
D10*
%TO.C,R2*%
X167360000Y-112000000D03*
X168000000Y-112000000D03*
%TD*%
D12*
%TO.C,RV2*%
X173150000Y-107150000D03*
D13*
X177150000Y-106000000D03*
D12*
X173150000Y-104850000D03*
%TD*%
D10*
%TO.C,R3*%
X167335000Y-108000000D03*
X167975000Y-108000000D03*
%TD*%
D14*
%TO.C,U2*%
X172850000Y-113700000D03*
X172850000Y-116000000D03*
D15*
X179150000Y-116000000D03*
D14*
X172850000Y-118300000D03*
%TD*%
%TO.C,U1*%
X154700000Y-113700000D03*
X154700000Y-116000000D03*
D15*
X161000000Y-116000000D03*
D14*
X154700000Y-118300000D03*
%TD*%
D10*
%TO.C,R11*%
X183335000Y-116000000D03*
X183975000Y-116000000D03*
%TD*%
%TO.C,R9*%
X183335000Y-108000000D03*
X183975000Y-108000000D03*
%TD*%
D11*
%TO.C,J4*%
X144500000Y-107730000D03*
X147500000Y-109000000D03*
%TD*%
D10*
%TO.C,R1*%
X167335000Y-116000000D03*
X167975000Y-116000000D03*
%TD*%
D11*
%TO.C,J2*%
X165000000Y-98730000D03*
X168000000Y-100000000D03*
%TD*%
D10*
%TO.C,R4*%
X151360000Y-116000000D03*
X152000000Y-116000000D03*
%TD*%
%TO.C,R10*%
X183335000Y-111000000D03*
X183975000Y-111000000D03*
%TD*%
D14*
%TO.C,U3*%
X187700000Y-113700000D03*
X187700000Y-116000000D03*
D15*
X194000000Y-116000000D03*
D14*
X187700000Y-118300000D03*
%TD*%
D12*
%TO.C,RV3*%
X188850000Y-106150000D03*
D13*
X192850000Y-105000000D03*
D12*
X188850000Y-103850000D03*
%TD*%
M02*
