%TF.GenerationSoftware,KiCad,Pcbnew,8.0.5*%
%TF.CreationDate,2024-10-01T12:23:07-04:00*%
%TF.ProjectId,hapticFeedbackPCB,68617074-6963-4466-9565-646261636b50,rev?*%
%TF.SameCoordinates,Original*%
%TF.FileFunction,Soldermask,Bot*%
%TF.FilePolarity,Negative*%
%FSLAX46Y46*%
G04 Gerber Fmt 4.6, Leading zero omitted, Abs format (unit mm)*
G04 Created by KiCad (PCBNEW 8.0.5) date 2024-10-01 12:23:07*
%MOMM*%
%LPD*%
G01*
G04 APERTURE LIST*
%ADD10R,2.800000X2.800000*%
%ADD11O,2.800000X2.800000*%
%ADD12R,1.600000X1.600000*%
%ADD13C,1.600000*%
%ADD14R,0.990600X0.990600*%
%ADD15C,0.990600*%
%ADD16C,1.020000*%
%ADD17R,1.520000X1.520000*%
%ADD18C,1.520000*%
%ADD19O,1.600000X1.600000*%
G04 APERTURE END LIST*
D10*
%TO.C,D1*%
X152920000Y-72000000D03*
D11*
X163080000Y-72000000D03*
%TD*%
D12*
%TO.C,C1*%
X155597349Y-81000000D03*
D13*
X160597349Y-81000000D03*
%TD*%
D14*
%TO.C,Q1*%
X169040000Y-80500000D03*
D15*
X167770000Y-79230000D03*
X169040000Y-77960000D03*
%TD*%
D10*
%TO.C,D3*%
X114920000Y-72000000D03*
D11*
X125080000Y-72000000D03*
%TD*%
D14*
%TO.C,Q2*%
X150000000Y-80500000D03*
D15*
X148730000Y-79230000D03*
X150000000Y-77960000D03*
%TD*%
D12*
%TO.C,C2*%
X136597349Y-81000000D03*
D13*
X141597349Y-81000000D03*
%TD*%
D16*
%TO.C,M1*%
X155500011Y-60060000D03*
X161499999Y-60060000D03*
D17*
X158500000Y-64000000D03*
D18*
X158500000Y-61000001D03*
%TD*%
D14*
%TO.C,Q3*%
X131000000Y-80500000D03*
D15*
X129730000Y-79230000D03*
X131000000Y-77960000D03*
%TD*%
D12*
%TO.C,C3*%
X117597349Y-81000000D03*
D13*
X122597349Y-81000000D03*
%TD*%
%TO.C,R2*%
X143500000Y-96660000D03*
D19*
X143500000Y-86500000D03*
%TD*%
D16*
%TO.C,J2*%
X173940001Y-65000011D03*
X173940001Y-70999999D03*
D17*
X170000001Y-68000000D03*
D18*
X173000000Y-68000000D03*
%TD*%
D13*
%TO.C,R1*%
X162500000Y-96500000D03*
D19*
X162500000Y-86340000D03*
%TD*%
D16*
%TO.C,J1*%
X174000000Y-54000023D03*
X174000000Y-60000011D03*
D17*
X170060000Y-57000012D03*
D18*
X173059999Y-57000012D03*
%TD*%
D13*
%TO.C,R3*%
X124500000Y-96580000D03*
D19*
X124500000Y-86420000D03*
%TD*%
D16*
%TO.C,M2*%
X136500011Y-60060000D03*
X142499999Y-60060000D03*
D17*
X139500000Y-64000000D03*
D18*
X139500000Y-61000001D03*
%TD*%
D10*
%TO.C,D2*%
X133920000Y-72000000D03*
D11*
X144080000Y-72000000D03*
%TD*%
D16*
%TO.C,M3*%
X117500011Y-60060000D03*
X123499999Y-60060000D03*
D17*
X120500000Y-64000000D03*
D18*
X120500000Y-61000001D03*
%TD*%
D12*
%TO.C,A1*%
X152175000Y-52870000D03*
D19*
X149635000Y-52870000D03*
X147095000Y-52870000D03*
X144555000Y-52870000D03*
X142015000Y-52870000D03*
X139475000Y-52870000D03*
X136935000Y-52870000D03*
X134395000Y-52870000D03*
X129315000Y-52870000D03*
X126775000Y-52870000D03*
X124235000Y-52870000D03*
X121695000Y-52870000D03*
X119155000Y-52870000D03*
X116615000Y-52870000D03*
X116615000Y-101130000D03*
X119155000Y-101130000D03*
X121695000Y-101130000D03*
X124235000Y-101130000D03*
X126775000Y-101130000D03*
X129315000Y-101130000D03*
X131855000Y-101130000D03*
X134395000Y-101130000D03*
X138455000Y-101130000D03*
X140995000Y-101130000D03*
X143535000Y-101130000D03*
X146075000Y-101130000D03*
X148615000Y-101130000D03*
X151155000Y-101130000D03*
X153695000Y-101130000D03*
X156235000Y-101130000D03*
X158775000Y-101130000D03*
X161315000Y-101130000D03*
%TD*%
M02*
