%TF.GenerationSoftware,KiCad,Pcbnew,8.0.5*%
%TF.CreationDate,2024-10-01T12:23:07-04:00*%
%TF.ProjectId,hapticFeedbackPCB,68617074-6963-4466-9565-646261636b50,rev?*%
%TF.SameCoordinates,Original*%
%TF.FileFunction,Legend,Top*%
%TF.FilePolarity,Positive*%
%FSLAX46Y46*%
G04 Gerber Fmt 4.6, Leading zero omitted, Abs format (unit mm)*
G04 Created by KiCad (PCBNEW 8.0.5) date 2024-10-01 12:23:07*
%MOMM*%
%LPD*%
G01*
G04 APERTURE LIST*
%ADD10C,0.150000*%
%ADD11C,0.120000*%
%ADD12C,0.152400*%
G04 APERTURE END LIST*
D10*
X157261905Y-69484819D02*
X157261905Y-68484819D01*
X157261905Y-68484819D02*
X157500000Y-68484819D01*
X157500000Y-68484819D02*
X157642857Y-68532438D01*
X157642857Y-68532438D02*
X157738095Y-68627676D01*
X157738095Y-68627676D02*
X157785714Y-68722914D01*
X157785714Y-68722914D02*
X157833333Y-68913390D01*
X157833333Y-68913390D02*
X157833333Y-69056247D01*
X157833333Y-69056247D02*
X157785714Y-69246723D01*
X157785714Y-69246723D02*
X157738095Y-69341961D01*
X157738095Y-69341961D02*
X157642857Y-69437200D01*
X157642857Y-69437200D02*
X157500000Y-69484819D01*
X157500000Y-69484819D02*
X157261905Y-69484819D01*
X158785714Y-69484819D02*
X158214286Y-69484819D01*
X158500000Y-69484819D02*
X158500000Y-68484819D01*
X158500000Y-68484819D02*
X158404762Y-68627676D01*
X158404762Y-68627676D02*
X158309524Y-68722914D01*
X158309524Y-68722914D02*
X158214286Y-68770533D01*
X157930682Y-76109580D02*
X157883063Y-76157200D01*
X157883063Y-76157200D02*
X157740206Y-76204819D01*
X157740206Y-76204819D02*
X157644968Y-76204819D01*
X157644968Y-76204819D02*
X157502111Y-76157200D01*
X157502111Y-76157200D02*
X157406873Y-76061961D01*
X157406873Y-76061961D02*
X157359254Y-75966723D01*
X157359254Y-75966723D02*
X157311635Y-75776247D01*
X157311635Y-75776247D02*
X157311635Y-75633390D01*
X157311635Y-75633390D02*
X157359254Y-75442914D01*
X157359254Y-75442914D02*
X157406873Y-75347676D01*
X157406873Y-75347676D02*
X157502111Y-75252438D01*
X157502111Y-75252438D02*
X157644968Y-75204819D01*
X157644968Y-75204819D02*
X157740206Y-75204819D01*
X157740206Y-75204819D02*
X157883063Y-75252438D01*
X157883063Y-75252438D02*
X157930682Y-75300057D01*
X158883063Y-76204819D02*
X158311635Y-76204819D01*
X158597349Y-76204819D02*
X158597349Y-75204819D01*
X158597349Y-75204819D02*
X158502111Y-75347676D01*
X158502111Y-75347676D02*
X158406873Y-75442914D01*
X158406873Y-75442914D02*
X158311635Y-75490533D01*
X164590057Y-79325238D02*
X164542438Y-79420476D01*
X164542438Y-79420476D02*
X164447200Y-79515714D01*
X164447200Y-79515714D02*
X164304342Y-79658571D01*
X164304342Y-79658571D02*
X164256723Y-79753809D01*
X164256723Y-79753809D02*
X164256723Y-79849047D01*
X164494819Y-79801428D02*
X164447200Y-79896666D01*
X164447200Y-79896666D02*
X164351961Y-79991904D01*
X164351961Y-79991904D02*
X164161485Y-80039523D01*
X164161485Y-80039523D02*
X163828152Y-80039523D01*
X163828152Y-80039523D02*
X163637676Y-79991904D01*
X163637676Y-79991904D02*
X163542438Y-79896666D01*
X163542438Y-79896666D02*
X163494819Y-79801428D01*
X163494819Y-79801428D02*
X163494819Y-79610952D01*
X163494819Y-79610952D02*
X163542438Y-79515714D01*
X163542438Y-79515714D02*
X163637676Y-79420476D01*
X163637676Y-79420476D02*
X163828152Y-79372857D01*
X163828152Y-79372857D02*
X164161485Y-79372857D01*
X164161485Y-79372857D02*
X164351961Y-79420476D01*
X164351961Y-79420476D02*
X164447200Y-79515714D01*
X164447200Y-79515714D02*
X164494819Y-79610952D01*
X164494819Y-79610952D02*
X164494819Y-79801428D01*
X164494819Y-78420476D02*
X164494819Y-78991904D01*
X164494819Y-78706190D02*
X163494819Y-78706190D01*
X163494819Y-78706190D02*
X163637676Y-78801428D01*
X163637676Y-78801428D02*
X163732914Y-78896666D01*
X163732914Y-78896666D02*
X163780533Y-78991904D01*
X119261905Y-69484819D02*
X119261905Y-68484819D01*
X119261905Y-68484819D02*
X119500000Y-68484819D01*
X119500000Y-68484819D02*
X119642857Y-68532438D01*
X119642857Y-68532438D02*
X119738095Y-68627676D01*
X119738095Y-68627676D02*
X119785714Y-68722914D01*
X119785714Y-68722914D02*
X119833333Y-68913390D01*
X119833333Y-68913390D02*
X119833333Y-69056247D01*
X119833333Y-69056247D02*
X119785714Y-69246723D01*
X119785714Y-69246723D02*
X119738095Y-69341961D01*
X119738095Y-69341961D02*
X119642857Y-69437200D01*
X119642857Y-69437200D02*
X119500000Y-69484819D01*
X119500000Y-69484819D02*
X119261905Y-69484819D01*
X120166667Y-68484819D02*
X120785714Y-68484819D01*
X120785714Y-68484819D02*
X120452381Y-68865771D01*
X120452381Y-68865771D02*
X120595238Y-68865771D01*
X120595238Y-68865771D02*
X120690476Y-68913390D01*
X120690476Y-68913390D02*
X120738095Y-68961009D01*
X120738095Y-68961009D02*
X120785714Y-69056247D01*
X120785714Y-69056247D02*
X120785714Y-69294342D01*
X120785714Y-69294342D02*
X120738095Y-69389580D01*
X120738095Y-69389580D02*
X120690476Y-69437200D01*
X120690476Y-69437200D02*
X120595238Y-69484819D01*
X120595238Y-69484819D02*
X120309524Y-69484819D01*
X120309524Y-69484819D02*
X120214286Y-69437200D01*
X120214286Y-69437200D02*
X120166667Y-69389580D01*
X145550057Y-79325238D02*
X145502438Y-79420476D01*
X145502438Y-79420476D02*
X145407200Y-79515714D01*
X145407200Y-79515714D02*
X145264342Y-79658571D01*
X145264342Y-79658571D02*
X145216723Y-79753809D01*
X145216723Y-79753809D02*
X145216723Y-79849047D01*
X145454819Y-79801428D02*
X145407200Y-79896666D01*
X145407200Y-79896666D02*
X145311961Y-79991904D01*
X145311961Y-79991904D02*
X145121485Y-80039523D01*
X145121485Y-80039523D02*
X144788152Y-80039523D01*
X144788152Y-80039523D02*
X144597676Y-79991904D01*
X144597676Y-79991904D02*
X144502438Y-79896666D01*
X144502438Y-79896666D02*
X144454819Y-79801428D01*
X144454819Y-79801428D02*
X144454819Y-79610952D01*
X144454819Y-79610952D02*
X144502438Y-79515714D01*
X144502438Y-79515714D02*
X144597676Y-79420476D01*
X144597676Y-79420476D02*
X144788152Y-79372857D01*
X144788152Y-79372857D02*
X145121485Y-79372857D01*
X145121485Y-79372857D02*
X145311961Y-79420476D01*
X145311961Y-79420476D02*
X145407200Y-79515714D01*
X145407200Y-79515714D02*
X145454819Y-79610952D01*
X145454819Y-79610952D02*
X145454819Y-79801428D01*
X144550057Y-78991904D02*
X144502438Y-78944285D01*
X144502438Y-78944285D02*
X144454819Y-78849047D01*
X144454819Y-78849047D02*
X144454819Y-78610952D01*
X144454819Y-78610952D02*
X144502438Y-78515714D01*
X144502438Y-78515714D02*
X144550057Y-78468095D01*
X144550057Y-78468095D02*
X144645295Y-78420476D01*
X144645295Y-78420476D02*
X144740533Y-78420476D01*
X144740533Y-78420476D02*
X144883390Y-78468095D01*
X144883390Y-78468095D02*
X145454819Y-79039523D01*
X145454819Y-79039523D02*
X145454819Y-78420476D01*
X138930682Y-76109580D02*
X138883063Y-76157200D01*
X138883063Y-76157200D02*
X138740206Y-76204819D01*
X138740206Y-76204819D02*
X138644968Y-76204819D01*
X138644968Y-76204819D02*
X138502111Y-76157200D01*
X138502111Y-76157200D02*
X138406873Y-76061961D01*
X138406873Y-76061961D02*
X138359254Y-75966723D01*
X138359254Y-75966723D02*
X138311635Y-75776247D01*
X138311635Y-75776247D02*
X138311635Y-75633390D01*
X138311635Y-75633390D02*
X138359254Y-75442914D01*
X138359254Y-75442914D02*
X138406873Y-75347676D01*
X138406873Y-75347676D02*
X138502111Y-75252438D01*
X138502111Y-75252438D02*
X138644968Y-75204819D01*
X138644968Y-75204819D02*
X138740206Y-75204819D01*
X138740206Y-75204819D02*
X138883063Y-75252438D01*
X138883063Y-75252438D02*
X138930682Y-75300057D01*
X139311635Y-75300057D02*
X139359254Y-75252438D01*
X139359254Y-75252438D02*
X139454492Y-75204819D01*
X139454492Y-75204819D02*
X139692587Y-75204819D01*
X139692587Y-75204819D02*
X139787825Y-75252438D01*
X139787825Y-75252438D02*
X139835444Y-75300057D01*
X139835444Y-75300057D02*
X139883063Y-75395295D01*
X139883063Y-75395295D02*
X139883063Y-75490533D01*
X139883063Y-75490533D02*
X139835444Y-75633390D01*
X139835444Y-75633390D02*
X139264016Y-76204819D01*
X139264016Y-76204819D02*
X139883063Y-76204819D01*
X157690476Y-55574819D02*
X157690476Y-54574819D01*
X157690476Y-54574819D02*
X158023809Y-55289104D01*
X158023809Y-55289104D02*
X158357142Y-54574819D01*
X158357142Y-54574819D02*
X158357142Y-55574819D01*
X159357142Y-55574819D02*
X158785714Y-55574819D01*
X159071428Y-55574819D02*
X159071428Y-54574819D01*
X159071428Y-54574819D02*
X158976190Y-54717676D01*
X158976190Y-54717676D02*
X158880952Y-54812914D01*
X158880952Y-54812914D02*
X158785714Y-54860533D01*
X126550057Y-79555238D02*
X126502438Y-79650476D01*
X126502438Y-79650476D02*
X126407200Y-79745714D01*
X126407200Y-79745714D02*
X126264342Y-79888571D01*
X126264342Y-79888571D02*
X126216723Y-79983809D01*
X126216723Y-79983809D02*
X126216723Y-80079047D01*
X126454819Y-80031428D02*
X126407200Y-80126666D01*
X126407200Y-80126666D02*
X126311961Y-80221904D01*
X126311961Y-80221904D02*
X126121485Y-80269523D01*
X126121485Y-80269523D02*
X125788152Y-80269523D01*
X125788152Y-80269523D02*
X125597676Y-80221904D01*
X125597676Y-80221904D02*
X125502438Y-80126666D01*
X125502438Y-80126666D02*
X125454819Y-80031428D01*
X125454819Y-80031428D02*
X125454819Y-79840952D01*
X125454819Y-79840952D02*
X125502438Y-79745714D01*
X125502438Y-79745714D02*
X125597676Y-79650476D01*
X125597676Y-79650476D02*
X125788152Y-79602857D01*
X125788152Y-79602857D02*
X126121485Y-79602857D01*
X126121485Y-79602857D02*
X126311961Y-79650476D01*
X126311961Y-79650476D02*
X126407200Y-79745714D01*
X126407200Y-79745714D02*
X126454819Y-79840952D01*
X126454819Y-79840952D02*
X126454819Y-80031428D01*
X125454819Y-79269523D02*
X125454819Y-78650476D01*
X125454819Y-78650476D02*
X125835771Y-78983809D01*
X125835771Y-78983809D02*
X125835771Y-78840952D01*
X125835771Y-78840952D02*
X125883390Y-78745714D01*
X125883390Y-78745714D02*
X125931009Y-78698095D01*
X125931009Y-78698095D02*
X126026247Y-78650476D01*
X126026247Y-78650476D02*
X126264342Y-78650476D01*
X126264342Y-78650476D02*
X126359580Y-78698095D01*
X126359580Y-78698095D02*
X126407200Y-78745714D01*
X126407200Y-78745714D02*
X126454819Y-78840952D01*
X126454819Y-78840952D02*
X126454819Y-79126666D01*
X126454819Y-79126666D02*
X126407200Y-79221904D01*
X126407200Y-79221904D02*
X126359580Y-79269523D01*
X119930682Y-76109580D02*
X119883063Y-76157200D01*
X119883063Y-76157200D02*
X119740206Y-76204819D01*
X119740206Y-76204819D02*
X119644968Y-76204819D01*
X119644968Y-76204819D02*
X119502111Y-76157200D01*
X119502111Y-76157200D02*
X119406873Y-76061961D01*
X119406873Y-76061961D02*
X119359254Y-75966723D01*
X119359254Y-75966723D02*
X119311635Y-75776247D01*
X119311635Y-75776247D02*
X119311635Y-75633390D01*
X119311635Y-75633390D02*
X119359254Y-75442914D01*
X119359254Y-75442914D02*
X119406873Y-75347676D01*
X119406873Y-75347676D02*
X119502111Y-75252438D01*
X119502111Y-75252438D02*
X119644968Y-75204819D01*
X119644968Y-75204819D02*
X119740206Y-75204819D01*
X119740206Y-75204819D02*
X119883063Y-75252438D01*
X119883063Y-75252438D02*
X119930682Y-75300057D01*
X120264016Y-75204819D02*
X120883063Y-75204819D01*
X120883063Y-75204819D02*
X120549730Y-75585771D01*
X120549730Y-75585771D02*
X120692587Y-75585771D01*
X120692587Y-75585771D02*
X120787825Y-75633390D01*
X120787825Y-75633390D02*
X120835444Y-75681009D01*
X120835444Y-75681009D02*
X120883063Y-75776247D01*
X120883063Y-75776247D02*
X120883063Y-76014342D01*
X120883063Y-76014342D02*
X120835444Y-76109580D01*
X120835444Y-76109580D02*
X120787825Y-76157200D01*
X120787825Y-76157200D02*
X120692587Y-76204819D01*
X120692587Y-76204819D02*
X120406873Y-76204819D01*
X120406873Y-76204819D02*
X120311635Y-76157200D01*
X120311635Y-76157200D02*
X120264016Y-76109580D01*
X141584819Y-91746666D02*
X141108628Y-92079999D01*
X141584819Y-92318094D02*
X140584819Y-92318094D01*
X140584819Y-92318094D02*
X140584819Y-91937142D01*
X140584819Y-91937142D02*
X140632438Y-91841904D01*
X140632438Y-91841904D02*
X140680057Y-91794285D01*
X140680057Y-91794285D02*
X140775295Y-91746666D01*
X140775295Y-91746666D02*
X140918152Y-91746666D01*
X140918152Y-91746666D02*
X141013390Y-91794285D01*
X141013390Y-91794285D02*
X141061009Y-91841904D01*
X141061009Y-91841904D02*
X141108628Y-91937142D01*
X141108628Y-91937142D02*
X141108628Y-92318094D01*
X140680057Y-91365713D02*
X140632438Y-91318094D01*
X140632438Y-91318094D02*
X140584819Y-91222856D01*
X140584819Y-91222856D02*
X140584819Y-90984761D01*
X140584819Y-90984761D02*
X140632438Y-90889523D01*
X140632438Y-90889523D02*
X140680057Y-90841904D01*
X140680057Y-90841904D02*
X140775295Y-90794285D01*
X140775295Y-90794285D02*
X140870533Y-90794285D01*
X140870533Y-90794285D02*
X141013390Y-90841904D01*
X141013390Y-90841904D02*
X141584819Y-91413332D01*
X141584819Y-91413332D02*
X141584819Y-90794285D01*
X179460181Y-67427017D02*
X178745896Y-67427017D01*
X178745896Y-67427017D02*
X178603039Y-67379398D01*
X178603039Y-67379398D02*
X178507801Y-67284160D01*
X178507801Y-67284160D02*
X178460181Y-67141303D01*
X178460181Y-67141303D02*
X178460181Y-67046065D01*
X179364943Y-67855589D02*
X179412562Y-67903208D01*
X179412562Y-67903208D02*
X179460181Y-67998446D01*
X179460181Y-67998446D02*
X179460181Y-68236541D01*
X179460181Y-68236541D02*
X179412562Y-68331779D01*
X179412562Y-68331779D02*
X179364943Y-68379398D01*
X179364943Y-68379398D02*
X179269705Y-68427017D01*
X179269705Y-68427017D02*
X179174467Y-68427017D01*
X179174467Y-68427017D02*
X179031610Y-68379398D01*
X179031610Y-68379398D02*
X178460181Y-67807970D01*
X178460181Y-67807970D02*
X178460181Y-68427017D01*
X160584819Y-91586666D02*
X160108628Y-91919999D01*
X160584819Y-92158094D02*
X159584819Y-92158094D01*
X159584819Y-92158094D02*
X159584819Y-91777142D01*
X159584819Y-91777142D02*
X159632438Y-91681904D01*
X159632438Y-91681904D02*
X159680057Y-91634285D01*
X159680057Y-91634285D02*
X159775295Y-91586666D01*
X159775295Y-91586666D02*
X159918152Y-91586666D01*
X159918152Y-91586666D02*
X160013390Y-91634285D01*
X160013390Y-91634285D02*
X160061009Y-91681904D01*
X160061009Y-91681904D02*
X160108628Y-91777142D01*
X160108628Y-91777142D02*
X160108628Y-92158094D01*
X160584819Y-90634285D02*
X160584819Y-91205713D01*
X160584819Y-90919999D02*
X159584819Y-90919999D01*
X159584819Y-90919999D02*
X159727676Y-91015237D01*
X159727676Y-91015237D02*
X159822914Y-91110475D01*
X159822914Y-91110475D02*
X159870533Y-91205713D01*
X179520180Y-56666678D02*
X178805895Y-56666678D01*
X178805895Y-56666678D02*
X178663038Y-56619059D01*
X178663038Y-56619059D02*
X178567800Y-56523821D01*
X178567800Y-56523821D02*
X178520180Y-56380964D01*
X178520180Y-56380964D02*
X178520180Y-56285726D01*
X178520180Y-57666678D02*
X178520180Y-57095250D01*
X178520180Y-57380964D02*
X179520180Y-57380964D01*
X179520180Y-57380964D02*
X179377323Y-57285726D01*
X179377323Y-57285726D02*
X179282085Y-57190488D01*
X179282085Y-57190488D02*
X179234466Y-57095250D01*
X122584819Y-91666666D02*
X122108628Y-91999999D01*
X122584819Y-92238094D02*
X121584819Y-92238094D01*
X121584819Y-92238094D02*
X121584819Y-91857142D01*
X121584819Y-91857142D02*
X121632438Y-91761904D01*
X121632438Y-91761904D02*
X121680057Y-91714285D01*
X121680057Y-91714285D02*
X121775295Y-91666666D01*
X121775295Y-91666666D02*
X121918152Y-91666666D01*
X121918152Y-91666666D02*
X122013390Y-91714285D01*
X122013390Y-91714285D02*
X122061009Y-91761904D01*
X122061009Y-91761904D02*
X122108628Y-91857142D01*
X122108628Y-91857142D02*
X122108628Y-92238094D01*
X121584819Y-91333332D02*
X121584819Y-90714285D01*
X121584819Y-90714285D02*
X121965771Y-91047618D01*
X121965771Y-91047618D02*
X121965771Y-90904761D01*
X121965771Y-90904761D02*
X122013390Y-90809523D01*
X122013390Y-90809523D02*
X122061009Y-90761904D01*
X122061009Y-90761904D02*
X122156247Y-90714285D01*
X122156247Y-90714285D02*
X122394342Y-90714285D01*
X122394342Y-90714285D02*
X122489580Y-90761904D01*
X122489580Y-90761904D02*
X122537200Y-90809523D01*
X122537200Y-90809523D02*
X122584819Y-90904761D01*
X122584819Y-90904761D02*
X122584819Y-91190475D01*
X122584819Y-91190475D02*
X122537200Y-91285713D01*
X122537200Y-91285713D02*
X122489580Y-91333332D01*
X138714718Y-55489819D02*
X138714718Y-54489819D01*
X138714718Y-54489819D02*
X139048051Y-55204104D01*
X139048051Y-55204104D02*
X139381384Y-54489819D01*
X139381384Y-54489819D02*
X139381384Y-55489819D01*
X139809956Y-54585057D02*
X139857575Y-54537438D01*
X139857575Y-54537438D02*
X139952813Y-54489819D01*
X139952813Y-54489819D02*
X140190908Y-54489819D01*
X140190908Y-54489819D02*
X140286146Y-54537438D01*
X140286146Y-54537438D02*
X140333765Y-54585057D01*
X140333765Y-54585057D02*
X140381384Y-54680295D01*
X140381384Y-54680295D02*
X140381384Y-54775533D01*
X140381384Y-54775533D02*
X140333765Y-54918390D01*
X140333765Y-54918390D02*
X139762337Y-55489819D01*
X139762337Y-55489819D02*
X140381384Y-55489819D01*
X138261905Y-69484819D02*
X138261905Y-68484819D01*
X138261905Y-68484819D02*
X138500000Y-68484819D01*
X138500000Y-68484819D02*
X138642857Y-68532438D01*
X138642857Y-68532438D02*
X138738095Y-68627676D01*
X138738095Y-68627676D02*
X138785714Y-68722914D01*
X138785714Y-68722914D02*
X138833333Y-68913390D01*
X138833333Y-68913390D02*
X138833333Y-69056247D01*
X138833333Y-69056247D02*
X138785714Y-69246723D01*
X138785714Y-69246723D02*
X138738095Y-69341961D01*
X138738095Y-69341961D02*
X138642857Y-69437200D01*
X138642857Y-69437200D02*
X138500000Y-69484819D01*
X138500000Y-69484819D02*
X138261905Y-69484819D01*
X139214286Y-68580057D02*
X139261905Y-68532438D01*
X139261905Y-68532438D02*
X139357143Y-68484819D01*
X139357143Y-68484819D02*
X139595238Y-68484819D01*
X139595238Y-68484819D02*
X139690476Y-68532438D01*
X139690476Y-68532438D02*
X139738095Y-68580057D01*
X139738095Y-68580057D02*
X139785714Y-68675295D01*
X139785714Y-68675295D02*
X139785714Y-68770533D01*
X139785714Y-68770533D02*
X139738095Y-68913390D01*
X139738095Y-68913390D02*
X139166667Y-69484819D01*
X139166667Y-69484819D02*
X139785714Y-69484819D01*
X119690487Y-55514819D02*
X119690487Y-54514819D01*
X119690487Y-54514819D02*
X120023820Y-55229104D01*
X120023820Y-55229104D02*
X120357153Y-54514819D01*
X120357153Y-54514819D02*
X120357153Y-55514819D01*
X120738106Y-54514819D02*
X121357153Y-54514819D01*
X121357153Y-54514819D02*
X121023820Y-54895771D01*
X121023820Y-54895771D02*
X121166677Y-54895771D01*
X121166677Y-54895771D02*
X121261915Y-54943390D01*
X121261915Y-54943390D02*
X121309534Y-54991009D01*
X121309534Y-54991009D02*
X121357153Y-55086247D01*
X121357153Y-55086247D02*
X121357153Y-55324342D01*
X121357153Y-55324342D02*
X121309534Y-55419580D01*
X121309534Y-55419580D02*
X121261915Y-55467200D01*
X121261915Y-55467200D02*
X121166677Y-55514819D01*
X121166677Y-55514819D02*
X120880963Y-55514819D01*
X120880963Y-55514819D02*
X120785725Y-55467200D01*
X120785725Y-55467200D02*
X120738106Y-55419580D01*
D11*
%TO.C,D1*%
X153430000Y-70030000D02*
X162570000Y-70030000D01*
X153430000Y-70360000D02*
X153430000Y-70030000D01*
X153430000Y-73640000D02*
X153430000Y-73970000D01*
X153430000Y-73970000D02*
X162570000Y-73970000D01*
X154765000Y-70030000D02*
X154765000Y-73970000D01*
X154885000Y-70030000D02*
X154885000Y-73970000D01*
X155005000Y-70030000D02*
X155005000Y-73970000D01*
X162570000Y-70030000D02*
X162570000Y-70360000D01*
X162570000Y-73970000D02*
X162570000Y-73640000D01*
%TO.C,C1*%
X153687651Y-78685000D02*
X154487651Y-78685000D01*
X154087651Y-78285000D02*
X154087651Y-79085000D01*
X158097349Y-76920000D02*
X158097349Y-85080000D01*
X158137349Y-76920000D02*
X158137349Y-85080000D01*
X158177349Y-76920000D02*
X158177349Y-85080000D01*
X158217349Y-76921000D02*
X158217349Y-85079000D01*
X158257349Y-76923000D02*
X158257349Y-85077000D01*
X158297349Y-76924000D02*
X158297349Y-85076000D01*
X158337349Y-76926000D02*
X158337349Y-85074000D01*
X158377349Y-76929000D02*
X158377349Y-85071000D01*
X158417349Y-76932000D02*
X158417349Y-85068000D01*
X158457349Y-76935000D02*
X158457349Y-85065000D01*
X158497349Y-76939000D02*
X158497349Y-85061000D01*
X158537349Y-76943000D02*
X158537349Y-85057000D01*
X158577349Y-76948000D02*
X158577349Y-85052000D01*
X158617349Y-76952000D02*
X158617349Y-85048000D01*
X158657349Y-76958000D02*
X158657349Y-85042000D01*
X158697349Y-76963000D02*
X158697349Y-85037000D01*
X158737349Y-76970000D02*
X158737349Y-85030000D01*
X158777349Y-76976000D02*
X158777349Y-85024000D01*
X158818349Y-76983000D02*
X158818349Y-85017000D01*
X158858349Y-76990000D02*
X158858349Y-85010000D01*
X158898349Y-76998000D02*
X158898349Y-85002000D01*
X158938349Y-77006000D02*
X158938349Y-84994000D01*
X158978349Y-77015000D02*
X158978349Y-84985000D01*
X159018349Y-77024000D02*
X159018349Y-84976000D01*
X159058349Y-77033000D02*
X159058349Y-84967000D01*
X159098349Y-77043000D02*
X159098349Y-84957000D01*
X159138349Y-77053000D02*
X159138349Y-84947000D01*
X159178349Y-77064000D02*
X159178349Y-84936000D01*
X159218349Y-77075000D02*
X159218349Y-84925000D01*
X159258349Y-77086000D02*
X159258349Y-84914000D01*
X159298349Y-77098000D02*
X159298349Y-84902000D01*
X159338349Y-77111000D02*
X159338349Y-84889000D01*
X159378349Y-77123000D02*
X159378349Y-84877000D01*
X159418349Y-77137000D02*
X159418349Y-84863000D01*
X159458349Y-77150000D02*
X159458349Y-84850000D01*
X159498349Y-77165000D02*
X159498349Y-84835000D01*
X159538349Y-77179000D02*
X159538349Y-84821000D01*
X159578349Y-77195000D02*
X159578349Y-79960000D01*
X159578349Y-82040000D02*
X159578349Y-84805000D01*
X159618349Y-77210000D02*
X159618349Y-79960000D01*
X159618349Y-82040000D02*
X159618349Y-84790000D01*
X159658349Y-77226000D02*
X159658349Y-79960000D01*
X159658349Y-82040000D02*
X159658349Y-84774000D01*
X159698349Y-77243000D02*
X159698349Y-79960000D01*
X159698349Y-82040000D02*
X159698349Y-84757000D01*
X159738349Y-77260000D02*
X159738349Y-79960000D01*
X159738349Y-82040000D02*
X159738349Y-84740000D01*
X159778349Y-77278000D02*
X159778349Y-79960000D01*
X159778349Y-82040000D02*
X159778349Y-84722000D01*
X159818349Y-77296000D02*
X159818349Y-79960000D01*
X159818349Y-82040000D02*
X159818349Y-84704000D01*
X159858349Y-77314000D02*
X159858349Y-79960000D01*
X159858349Y-82040000D02*
X159858349Y-84686000D01*
X159898349Y-77334000D02*
X159898349Y-79960000D01*
X159898349Y-82040000D02*
X159898349Y-84666000D01*
X159938349Y-77353000D02*
X159938349Y-79960000D01*
X159938349Y-82040000D02*
X159938349Y-84647000D01*
X159978349Y-77373000D02*
X159978349Y-79960000D01*
X159978349Y-82040000D02*
X159978349Y-84627000D01*
X160018349Y-77394000D02*
X160018349Y-79960000D01*
X160018349Y-82040000D02*
X160018349Y-84606000D01*
X160058349Y-77416000D02*
X160058349Y-79960000D01*
X160058349Y-82040000D02*
X160058349Y-84584000D01*
X160098349Y-77438000D02*
X160098349Y-79960000D01*
X160098349Y-82040000D02*
X160098349Y-84562000D01*
X160138349Y-77460000D02*
X160138349Y-79960000D01*
X160138349Y-82040000D02*
X160138349Y-84540000D01*
X160178349Y-77483000D02*
X160178349Y-79960000D01*
X160178349Y-82040000D02*
X160178349Y-84517000D01*
X160218349Y-77507000D02*
X160218349Y-79960000D01*
X160218349Y-82040000D02*
X160218349Y-84493000D01*
X160258349Y-77531000D02*
X160258349Y-79960000D01*
X160258349Y-82040000D02*
X160258349Y-84469000D01*
X160298349Y-77556000D02*
X160298349Y-79960000D01*
X160298349Y-82040000D02*
X160298349Y-84444000D01*
X160338349Y-77582000D02*
X160338349Y-79960000D01*
X160338349Y-82040000D02*
X160338349Y-84418000D01*
X160378349Y-77608000D02*
X160378349Y-79960000D01*
X160378349Y-82040000D02*
X160378349Y-84392000D01*
X160418349Y-77635000D02*
X160418349Y-79960000D01*
X160418349Y-82040000D02*
X160418349Y-84365000D01*
X160458349Y-77662000D02*
X160458349Y-79960000D01*
X160458349Y-82040000D02*
X160458349Y-84338000D01*
X160498349Y-77691000D02*
X160498349Y-79960000D01*
X160498349Y-82040000D02*
X160498349Y-84309000D01*
X160538349Y-77720000D02*
X160538349Y-79960000D01*
X160538349Y-82040000D02*
X160538349Y-84280000D01*
X160578349Y-77750000D02*
X160578349Y-79960000D01*
X160578349Y-82040000D02*
X160578349Y-84250000D01*
X160618349Y-77780000D02*
X160618349Y-79960000D01*
X160618349Y-82040000D02*
X160618349Y-84220000D01*
X160658349Y-77811000D02*
X160658349Y-79960000D01*
X160658349Y-82040000D02*
X160658349Y-84189000D01*
X160698349Y-77844000D02*
X160698349Y-79960000D01*
X160698349Y-82040000D02*
X160698349Y-84156000D01*
X160738349Y-77876000D02*
X160738349Y-79960000D01*
X160738349Y-82040000D02*
X160738349Y-84124000D01*
X160778349Y-77910000D02*
X160778349Y-79960000D01*
X160778349Y-82040000D02*
X160778349Y-84090000D01*
X160818349Y-77945000D02*
X160818349Y-79960000D01*
X160818349Y-82040000D02*
X160818349Y-84055000D01*
X160858349Y-77981000D02*
X160858349Y-79960000D01*
X160858349Y-82040000D02*
X160858349Y-84019000D01*
X160898349Y-78017000D02*
X160898349Y-79960000D01*
X160898349Y-82040000D02*
X160898349Y-83983000D01*
X160938349Y-78055000D02*
X160938349Y-79960000D01*
X160938349Y-82040000D02*
X160938349Y-83945000D01*
X160978349Y-78093000D02*
X160978349Y-79960000D01*
X160978349Y-82040000D02*
X160978349Y-83907000D01*
X161018349Y-78133000D02*
X161018349Y-79960000D01*
X161018349Y-82040000D02*
X161018349Y-83867000D01*
X161058349Y-78174000D02*
X161058349Y-79960000D01*
X161058349Y-82040000D02*
X161058349Y-83826000D01*
X161098349Y-78216000D02*
X161098349Y-79960000D01*
X161098349Y-82040000D02*
X161098349Y-83784000D01*
X161138349Y-78259000D02*
X161138349Y-79960000D01*
X161138349Y-82040000D02*
X161138349Y-83741000D01*
X161178349Y-78303000D02*
X161178349Y-79960000D01*
X161178349Y-82040000D02*
X161178349Y-83697000D01*
X161218349Y-78349000D02*
X161218349Y-79960000D01*
X161218349Y-82040000D02*
X161218349Y-83651000D01*
X161258349Y-78396000D02*
X161258349Y-79960000D01*
X161258349Y-82040000D02*
X161258349Y-83604000D01*
X161298349Y-78444000D02*
X161298349Y-79960000D01*
X161298349Y-82040000D02*
X161298349Y-83556000D01*
X161338349Y-78495000D02*
X161338349Y-79960000D01*
X161338349Y-82040000D02*
X161338349Y-83505000D01*
X161378349Y-78546000D02*
X161378349Y-79960000D01*
X161378349Y-82040000D02*
X161378349Y-83454000D01*
X161418349Y-78600000D02*
X161418349Y-79960000D01*
X161418349Y-82040000D02*
X161418349Y-83400000D01*
X161458349Y-78655000D02*
X161458349Y-79960000D01*
X161458349Y-82040000D02*
X161458349Y-83345000D01*
X161498349Y-78713000D02*
X161498349Y-79960000D01*
X161498349Y-82040000D02*
X161498349Y-83287000D01*
X161538349Y-78772000D02*
X161538349Y-79960000D01*
X161538349Y-82040000D02*
X161538349Y-83228000D01*
X161578349Y-78834000D02*
X161578349Y-79960000D01*
X161578349Y-82040000D02*
X161578349Y-83166000D01*
X161618349Y-78898000D02*
X161618349Y-79960000D01*
X161618349Y-82040000D02*
X161618349Y-83102000D01*
X161658349Y-78966000D02*
X161658349Y-83034000D01*
X161698349Y-79036000D02*
X161698349Y-82964000D01*
X161738349Y-79110000D02*
X161738349Y-82890000D01*
X161778349Y-79187000D02*
X161778349Y-82813000D01*
X161818349Y-79269000D02*
X161818349Y-82731000D01*
X161858349Y-79355000D02*
X161858349Y-82645000D01*
X161898349Y-79448000D02*
X161898349Y-82552000D01*
X161938349Y-79547000D02*
X161938349Y-82453000D01*
X161978349Y-79654000D02*
X161978349Y-82346000D01*
X162018349Y-79771000D02*
X162018349Y-82229000D01*
X162058349Y-79902000D02*
X162058349Y-82098000D01*
X162098349Y-80052000D02*
X162098349Y-81948000D01*
X162138349Y-80232000D02*
X162138349Y-81768000D01*
X162178349Y-80467000D02*
X162178349Y-81533000D01*
X162217349Y-81000000D02*
G75*
G02*
X153977349Y-81000000I-4120000J0D01*
G01*
X153977349Y-81000000D02*
G75*
G02*
X162217349Y-81000000I4120000J0D01*
G01*
D12*
%TO.C,Q1*%
X168405000Y-82252600D02*
G75*
G02*
X168405000Y-76207400I0J3022600D01*
G01*
X169167000Y-84030600D02*
G75*
G02*
X168913000Y-84030600I-127000J0D01*
G01*
X168913000Y-84030600D02*
G75*
G02*
X169167000Y-84030600I127000J0D01*
G01*
D11*
%TO.C,D3*%
X115430000Y-70030000D02*
X124570000Y-70030000D01*
X115430000Y-70360000D02*
X115430000Y-70030000D01*
X115430000Y-73640000D02*
X115430000Y-73970000D01*
X115430000Y-73970000D02*
X124570000Y-73970000D01*
X116765000Y-70030000D02*
X116765000Y-73970000D01*
X116885000Y-70030000D02*
X116885000Y-73970000D01*
X117005000Y-70030000D02*
X117005000Y-73970000D01*
X124570000Y-70030000D02*
X124570000Y-70360000D01*
X124570000Y-73970000D02*
X124570000Y-73640000D01*
D12*
%TO.C,Q2*%
X149365000Y-82252600D02*
G75*
G02*
X149365000Y-76207400I0J3022600D01*
G01*
X150127000Y-84030600D02*
G75*
G02*
X149873000Y-84030600I-127000J0D01*
G01*
X149873000Y-84030600D02*
G75*
G02*
X150127000Y-84030600I127000J0D01*
G01*
D11*
%TO.C,C2*%
X134687651Y-78685000D02*
X135487651Y-78685000D01*
X135087651Y-78285000D02*
X135087651Y-79085000D01*
X139097349Y-76920000D02*
X139097349Y-85080000D01*
X139137349Y-76920000D02*
X139137349Y-85080000D01*
X139177349Y-76920000D02*
X139177349Y-85080000D01*
X139217349Y-76921000D02*
X139217349Y-85079000D01*
X139257349Y-76923000D02*
X139257349Y-85077000D01*
X139297349Y-76924000D02*
X139297349Y-85076000D01*
X139337349Y-76926000D02*
X139337349Y-85074000D01*
X139377349Y-76929000D02*
X139377349Y-85071000D01*
X139417349Y-76932000D02*
X139417349Y-85068000D01*
X139457349Y-76935000D02*
X139457349Y-85065000D01*
X139497349Y-76939000D02*
X139497349Y-85061000D01*
X139537349Y-76943000D02*
X139537349Y-85057000D01*
X139577349Y-76948000D02*
X139577349Y-85052000D01*
X139617349Y-76952000D02*
X139617349Y-85048000D01*
X139657349Y-76958000D02*
X139657349Y-85042000D01*
X139697349Y-76963000D02*
X139697349Y-85037000D01*
X139737349Y-76970000D02*
X139737349Y-85030000D01*
X139777349Y-76976000D02*
X139777349Y-85024000D01*
X139818349Y-76983000D02*
X139818349Y-85017000D01*
X139858349Y-76990000D02*
X139858349Y-85010000D01*
X139898349Y-76998000D02*
X139898349Y-85002000D01*
X139938349Y-77006000D02*
X139938349Y-84994000D01*
X139978349Y-77015000D02*
X139978349Y-84985000D01*
X140018349Y-77024000D02*
X140018349Y-84976000D01*
X140058349Y-77033000D02*
X140058349Y-84967000D01*
X140098349Y-77043000D02*
X140098349Y-84957000D01*
X140138349Y-77053000D02*
X140138349Y-84947000D01*
X140178349Y-77064000D02*
X140178349Y-84936000D01*
X140218349Y-77075000D02*
X140218349Y-84925000D01*
X140258349Y-77086000D02*
X140258349Y-84914000D01*
X140298349Y-77098000D02*
X140298349Y-84902000D01*
X140338349Y-77111000D02*
X140338349Y-84889000D01*
X140378349Y-77123000D02*
X140378349Y-84877000D01*
X140418349Y-77137000D02*
X140418349Y-84863000D01*
X140458349Y-77150000D02*
X140458349Y-84850000D01*
X140498349Y-77165000D02*
X140498349Y-84835000D01*
X140538349Y-77179000D02*
X140538349Y-84821000D01*
X140578349Y-77195000D02*
X140578349Y-79960000D01*
X140578349Y-82040000D02*
X140578349Y-84805000D01*
X140618349Y-77210000D02*
X140618349Y-79960000D01*
X140618349Y-82040000D02*
X140618349Y-84790000D01*
X140658349Y-77226000D02*
X140658349Y-79960000D01*
X140658349Y-82040000D02*
X140658349Y-84774000D01*
X140698349Y-77243000D02*
X140698349Y-79960000D01*
X140698349Y-82040000D02*
X140698349Y-84757000D01*
X140738349Y-77260000D02*
X140738349Y-79960000D01*
X140738349Y-82040000D02*
X140738349Y-84740000D01*
X140778349Y-77278000D02*
X140778349Y-79960000D01*
X140778349Y-82040000D02*
X140778349Y-84722000D01*
X140818349Y-77296000D02*
X140818349Y-79960000D01*
X140818349Y-82040000D02*
X140818349Y-84704000D01*
X140858349Y-77314000D02*
X140858349Y-79960000D01*
X140858349Y-82040000D02*
X140858349Y-84686000D01*
X140898349Y-77334000D02*
X140898349Y-79960000D01*
X140898349Y-82040000D02*
X140898349Y-84666000D01*
X140938349Y-77353000D02*
X140938349Y-79960000D01*
X140938349Y-82040000D02*
X140938349Y-84647000D01*
X140978349Y-77373000D02*
X140978349Y-79960000D01*
X140978349Y-82040000D02*
X140978349Y-84627000D01*
X141018349Y-77394000D02*
X141018349Y-79960000D01*
X141018349Y-82040000D02*
X141018349Y-84606000D01*
X141058349Y-77416000D02*
X141058349Y-79960000D01*
X141058349Y-82040000D02*
X141058349Y-84584000D01*
X141098349Y-77438000D02*
X141098349Y-79960000D01*
X141098349Y-82040000D02*
X141098349Y-84562000D01*
X141138349Y-77460000D02*
X141138349Y-79960000D01*
X141138349Y-82040000D02*
X141138349Y-84540000D01*
X141178349Y-77483000D02*
X141178349Y-79960000D01*
X141178349Y-82040000D02*
X141178349Y-84517000D01*
X141218349Y-77507000D02*
X141218349Y-79960000D01*
X141218349Y-82040000D02*
X141218349Y-84493000D01*
X141258349Y-77531000D02*
X141258349Y-79960000D01*
X141258349Y-82040000D02*
X141258349Y-84469000D01*
X141298349Y-77556000D02*
X141298349Y-79960000D01*
X141298349Y-82040000D02*
X141298349Y-84444000D01*
X141338349Y-77582000D02*
X141338349Y-79960000D01*
X141338349Y-82040000D02*
X141338349Y-84418000D01*
X141378349Y-77608000D02*
X141378349Y-79960000D01*
X141378349Y-82040000D02*
X141378349Y-84392000D01*
X141418349Y-77635000D02*
X141418349Y-79960000D01*
X141418349Y-82040000D02*
X141418349Y-84365000D01*
X141458349Y-77662000D02*
X141458349Y-79960000D01*
X141458349Y-82040000D02*
X141458349Y-84338000D01*
X141498349Y-77691000D02*
X141498349Y-79960000D01*
X141498349Y-82040000D02*
X141498349Y-84309000D01*
X141538349Y-77720000D02*
X141538349Y-79960000D01*
X141538349Y-82040000D02*
X141538349Y-84280000D01*
X141578349Y-77750000D02*
X141578349Y-79960000D01*
X141578349Y-82040000D02*
X141578349Y-84250000D01*
X141618349Y-77780000D02*
X141618349Y-79960000D01*
X141618349Y-82040000D02*
X141618349Y-84220000D01*
X141658349Y-77811000D02*
X141658349Y-79960000D01*
X141658349Y-82040000D02*
X141658349Y-84189000D01*
X141698349Y-77844000D02*
X141698349Y-79960000D01*
X141698349Y-82040000D02*
X141698349Y-84156000D01*
X141738349Y-77876000D02*
X141738349Y-79960000D01*
X141738349Y-82040000D02*
X141738349Y-84124000D01*
X141778349Y-77910000D02*
X141778349Y-79960000D01*
X141778349Y-82040000D02*
X141778349Y-84090000D01*
X141818349Y-77945000D02*
X141818349Y-79960000D01*
X141818349Y-82040000D02*
X141818349Y-84055000D01*
X141858349Y-77981000D02*
X141858349Y-79960000D01*
X141858349Y-82040000D02*
X141858349Y-84019000D01*
X141898349Y-78017000D02*
X141898349Y-79960000D01*
X141898349Y-82040000D02*
X141898349Y-83983000D01*
X141938349Y-78055000D02*
X141938349Y-79960000D01*
X141938349Y-82040000D02*
X141938349Y-83945000D01*
X141978349Y-78093000D02*
X141978349Y-79960000D01*
X141978349Y-82040000D02*
X141978349Y-83907000D01*
X142018349Y-78133000D02*
X142018349Y-79960000D01*
X142018349Y-82040000D02*
X142018349Y-83867000D01*
X142058349Y-78174000D02*
X142058349Y-79960000D01*
X142058349Y-82040000D02*
X142058349Y-83826000D01*
X142098349Y-78216000D02*
X142098349Y-79960000D01*
X142098349Y-82040000D02*
X142098349Y-83784000D01*
X142138349Y-78259000D02*
X142138349Y-79960000D01*
X142138349Y-82040000D02*
X142138349Y-83741000D01*
X142178349Y-78303000D02*
X142178349Y-79960000D01*
X142178349Y-82040000D02*
X142178349Y-83697000D01*
X142218349Y-78349000D02*
X142218349Y-79960000D01*
X142218349Y-82040000D02*
X142218349Y-83651000D01*
X142258349Y-78396000D02*
X142258349Y-79960000D01*
X142258349Y-82040000D02*
X142258349Y-83604000D01*
X142298349Y-78444000D02*
X142298349Y-79960000D01*
X142298349Y-82040000D02*
X142298349Y-83556000D01*
X142338349Y-78495000D02*
X142338349Y-79960000D01*
X142338349Y-82040000D02*
X142338349Y-83505000D01*
X142378349Y-78546000D02*
X142378349Y-79960000D01*
X142378349Y-82040000D02*
X142378349Y-83454000D01*
X142418349Y-78600000D02*
X142418349Y-79960000D01*
X142418349Y-82040000D02*
X142418349Y-83400000D01*
X142458349Y-78655000D02*
X142458349Y-79960000D01*
X142458349Y-82040000D02*
X142458349Y-83345000D01*
X142498349Y-78713000D02*
X142498349Y-79960000D01*
X142498349Y-82040000D02*
X142498349Y-83287000D01*
X142538349Y-78772000D02*
X142538349Y-79960000D01*
X142538349Y-82040000D02*
X142538349Y-83228000D01*
X142578349Y-78834000D02*
X142578349Y-79960000D01*
X142578349Y-82040000D02*
X142578349Y-83166000D01*
X142618349Y-78898000D02*
X142618349Y-79960000D01*
X142618349Y-82040000D02*
X142618349Y-83102000D01*
X142658349Y-78966000D02*
X142658349Y-83034000D01*
X142698349Y-79036000D02*
X142698349Y-82964000D01*
X142738349Y-79110000D02*
X142738349Y-82890000D01*
X142778349Y-79187000D02*
X142778349Y-82813000D01*
X142818349Y-79269000D02*
X142818349Y-82731000D01*
X142858349Y-79355000D02*
X142858349Y-82645000D01*
X142898349Y-79448000D02*
X142898349Y-82552000D01*
X142938349Y-79547000D02*
X142938349Y-82453000D01*
X142978349Y-79654000D02*
X142978349Y-82346000D01*
X143018349Y-79771000D02*
X143018349Y-82229000D01*
X143058349Y-79902000D02*
X143058349Y-82098000D01*
X143098349Y-80052000D02*
X143098349Y-81948000D01*
X143138349Y-80232000D02*
X143138349Y-81768000D01*
X143178349Y-80467000D02*
X143178349Y-81533000D01*
X143217349Y-81000000D02*
G75*
G02*
X134977349Y-81000000I-4120000J0D01*
G01*
X134977349Y-81000000D02*
G75*
G02*
X143217349Y-81000000I4120000J0D01*
G01*
D12*
%TO.C,M1*%
X154925009Y-57700000D02*
X154925009Y-59464913D01*
X154925009Y-60655087D02*
X154925009Y-66470000D01*
X154925009Y-66470000D02*
X162074994Y-66470000D01*
X162074994Y-57700000D02*
X154925009Y-57700000D01*
X162074994Y-59464906D02*
X162074994Y-57700000D01*
X162074994Y-66470000D02*
X162074994Y-60655094D01*
X162328994Y-64000000D02*
X163852994Y-63365000D01*
X163852994Y-63365000D02*
X163852994Y-64635000D01*
X163852994Y-64635000D02*
X162328994Y-64000000D01*
%TO.C,Q3*%
X130365000Y-82252600D02*
G75*
G02*
X130365000Y-76207400I0J3022600D01*
G01*
X131127000Y-84030600D02*
G75*
G02*
X130873000Y-84030600I-127000J0D01*
G01*
X130873000Y-84030600D02*
G75*
G02*
X131127000Y-84030600I127000J0D01*
G01*
D11*
%TO.C,C3*%
X115687651Y-78685000D02*
X116487651Y-78685000D01*
X116087651Y-78285000D02*
X116087651Y-79085000D01*
X120097349Y-76920000D02*
X120097349Y-85080000D01*
X120137349Y-76920000D02*
X120137349Y-85080000D01*
X120177349Y-76920000D02*
X120177349Y-85080000D01*
X120217349Y-76921000D02*
X120217349Y-85079000D01*
X120257349Y-76923000D02*
X120257349Y-85077000D01*
X120297349Y-76924000D02*
X120297349Y-85076000D01*
X120337349Y-76926000D02*
X120337349Y-85074000D01*
X120377349Y-76929000D02*
X120377349Y-85071000D01*
X120417349Y-76932000D02*
X120417349Y-85068000D01*
X120457349Y-76935000D02*
X120457349Y-85065000D01*
X120497349Y-76939000D02*
X120497349Y-85061000D01*
X120537349Y-76943000D02*
X120537349Y-85057000D01*
X120577349Y-76948000D02*
X120577349Y-85052000D01*
X120617349Y-76952000D02*
X120617349Y-85048000D01*
X120657349Y-76958000D02*
X120657349Y-85042000D01*
X120697349Y-76963000D02*
X120697349Y-85037000D01*
X120737349Y-76970000D02*
X120737349Y-85030000D01*
X120777349Y-76976000D02*
X120777349Y-85024000D01*
X120818349Y-76983000D02*
X120818349Y-85017000D01*
X120858349Y-76990000D02*
X120858349Y-85010000D01*
X120898349Y-76998000D02*
X120898349Y-85002000D01*
X120938349Y-77006000D02*
X120938349Y-84994000D01*
X120978349Y-77015000D02*
X120978349Y-84985000D01*
X121018349Y-77024000D02*
X121018349Y-84976000D01*
X121058349Y-77033000D02*
X121058349Y-84967000D01*
X121098349Y-77043000D02*
X121098349Y-84957000D01*
X121138349Y-77053000D02*
X121138349Y-84947000D01*
X121178349Y-77064000D02*
X121178349Y-84936000D01*
X121218349Y-77075000D02*
X121218349Y-84925000D01*
X121258349Y-77086000D02*
X121258349Y-84914000D01*
X121298349Y-77098000D02*
X121298349Y-84902000D01*
X121338349Y-77111000D02*
X121338349Y-84889000D01*
X121378349Y-77123000D02*
X121378349Y-84877000D01*
X121418349Y-77137000D02*
X121418349Y-84863000D01*
X121458349Y-77150000D02*
X121458349Y-84850000D01*
X121498349Y-77165000D02*
X121498349Y-84835000D01*
X121538349Y-77179000D02*
X121538349Y-84821000D01*
X121578349Y-77195000D02*
X121578349Y-79960000D01*
X121578349Y-82040000D02*
X121578349Y-84805000D01*
X121618349Y-77210000D02*
X121618349Y-79960000D01*
X121618349Y-82040000D02*
X121618349Y-84790000D01*
X121658349Y-77226000D02*
X121658349Y-79960000D01*
X121658349Y-82040000D02*
X121658349Y-84774000D01*
X121698349Y-77243000D02*
X121698349Y-79960000D01*
X121698349Y-82040000D02*
X121698349Y-84757000D01*
X121738349Y-77260000D02*
X121738349Y-79960000D01*
X121738349Y-82040000D02*
X121738349Y-84740000D01*
X121778349Y-77278000D02*
X121778349Y-79960000D01*
X121778349Y-82040000D02*
X121778349Y-84722000D01*
X121818349Y-77296000D02*
X121818349Y-79960000D01*
X121818349Y-82040000D02*
X121818349Y-84704000D01*
X121858349Y-77314000D02*
X121858349Y-79960000D01*
X121858349Y-82040000D02*
X121858349Y-84686000D01*
X121898349Y-77334000D02*
X121898349Y-79960000D01*
X121898349Y-82040000D02*
X121898349Y-84666000D01*
X121938349Y-77353000D02*
X121938349Y-79960000D01*
X121938349Y-82040000D02*
X121938349Y-84647000D01*
X121978349Y-77373000D02*
X121978349Y-79960000D01*
X121978349Y-82040000D02*
X121978349Y-84627000D01*
X122018349Y-77394000D02*
X122018349Y-79960000D01*
X122018349Y-82040000D02*
X122018349Y-84606000D01*
X122058349Y-77416000D02*
X122058349Y-79960000D01*
X122058349Y-82040000D02*
X122058349Y-84584000D01*
X122098349Y-77438000D02*
X122098349Y-79960000D01*
X122098349Y-82040000D02*
X122098349Y-84562000D01*
X122138349Y-77460000D02*
X122138349Y-79960000D01*
X122138349Y-82040000D02*
X122138349Y-84540000D01*
X122178349Y-77483000D02*
X122178349Y-79960000D01*
X122178349Y-82040000D02*
X122178349Y-84517000D01*
X122218349Y-77507000D02*
X122218349Y-79960000D01*
X122218349Y-82040000D02*
X122218349Y-84493000D01*
X122258349Y-77531000D02*
X122258349Y-79960000D01*
X122258349Y-82040000D02*
X122258349Y-84469000D01*
X122298349Y-77556000D02*
X122298349Y-79960000D01*
X122298349Y-82040000D02*
X122298349Y-84444000D01*
X122338349Y-77582000D02*
X122338349Y-79960000D01*
X122338349Y-82040000D02*
X122338349Y-84418000D01*
X122378349Y-77608000D02*
X122378349Y-79960000D01*
X122378349Y-82040000D02*
X122378349Y-84392000D01*
X122418349Y-77635000D02*
X122418349Y-79960000D01*
X122418349Y-82040000D02*
X122418349Y-84365000D01*
X122458349Y-77662000D02*
X122458349Y-79960000D01*
X122458349Y-82040000D02*
X122458349Y-84338000D01*
X122498349Y-77691000D02*
X122498349Y-79960000D01*
X122498349Y-82040000D02*
X122498349Y-84309000D01*
X122538349Y-77720000D02*
X122538349Y-79960000D01*
X122538349Y-82040000D02*
X122538349Y-84280000D01*
X122578349Y-77750000D02*
X122578349Y-79960000D01*
X122578349Y-82040000D02*
X122578349Y-84250000D01*
X122618349Y-77780000D02*
X122618349Y-79960000D01*
X122618349Y-82040000D02*
X122618349Y-84220000D01*
X122658349Y-77811000D02*
X122658349Y-79960000D01*
X122658349Y-82040000D02*
X122658349Y-84189000D01*
X122698349Y-77844000D02*
X122698349Y-79960000D01*
X122698349Y-82040000D02*
X122698349Y-84156000D01*
X122738349Y-77876000D02*
X122738349Y-79960000D01*
X122738349Y-82040000D02*
X122738349Y-84124000D01*
X122778349Y-77910000D02*
X122778349Y-79960000D01*
X122778349Y-82040000D02*
X122778349Y-84090000D01*
X122818349Y-77945000D02*
X122818349Y-79960000D01*
X122818349Y-82040000D02*
X122818349Y-84055000D01*
X122858349Y-77981000D02*
X122858349Y-79960000D01*
X122858349Y-82040000D02*
X122858349Y-84019000D01*
X122898349Y-78017000D02*
X122898349Y-79960000D01*
X122898349Y-82040000D02*
X122898349Y-83983000D01*
X122938349Y-78055000D02*
X122938349Y-79960000D01*
X122938349Y-82040000D02*
X122938349Y-83945000D01*
X122978349Y-78093000D02*
X122978349Y-79960000D01*
X122978349Y-82040000D02*
X122978349Y-83907000D01*
X123018349Y-78133000D02*
X123018349Y-79960000D01*
X123018349Y-82040000D02*
X123018349Y-83867000D01*
X123058349Y-78174000D02*
X123058349Y-79960000D01*
X123058349Y-82040000D02*
X123058349Y-83826000D01*
X123098349Y-78216000D02*
X123098349Y-79960000D01*
X123098349Y-82040000D02*
X123098349Y-83784000D01*
X123138349Y-78259000D02*
X123138349Y-79960000D01*
X123138349Y-82040000D02*
X123138349Y-83741000D01*
X123178349Y-78303000D02*
X123178349Y-79960000D01*
X123178349Y-82040000D02*
X123178349Y-83697000D01*
X123218349Y-78349000D02*
X123218349Y-79960000D01*
X123218349Y-82040000D02*
X123218349Y-83651000D01*
X123258349Y-78396000D02*
X123258349Y-79960000D01*
X123258349Y-82040000D02*
X123258349Y-83604000D01*
X123298349Y-78444000D02*
X123298349Y-79960000D01*
X123298349Y-82040000D02*
X123298349Y-83556000D01*
X123338349Y-78495000D02*
X123338349Y-79960000D01*
X123338349Y-82040000D02*
X123338349Y-83505000D01*
X123378349Y-78546000D02*
X123378349Y-79960000D01*
X123378349Y-82040000D02*
X123378349Y-83454000D01*
X123418349Y-78600000D02*
X123418349Y-79960000D01*
X123418349Y-82040000D02*
X123418349Y-83400000D01*
X123458349Y-78655000D02*
X123458349Y-79960000D01*
X123458349Y-82040000D02*
X123458349Y-83345000D01*
X123498349Y-78713000D02*
X123498349Y-79960000D01*
X123498349Y-82040000D02*
X123498349Y-83287000D01*
X123538349Y-78772000D02*
X123538349Y-79960000D01*
X123538349Y-82040000D02*
X123538349Y-83228000D01*
X123578349Y-78834000D02*
X123578349Y-79960000D01*
X123578349Y-82040000D02*
X123578349Y-83166000D01*
X123618349Y-78898000D02*
X123618349Y-79960000D01*
X123618349Y-82040000D02*
X123618349Y-83102000D01*
X123658349Y-78966000D02*
X123658349Y-83034000D01*
X123698349Y-79036000D02*
X123698349Y-82964000D01*
X123738349Y-79110000D02*
X123738349Y-82890000D01*
X123778349Y-79187000D02*
X123778349Y-82813000D01*
X123818349Y-79269000D02*
X123818349Y-82731000D01*
X123858349Y-79355000D02*
X123858349Y-82645000D01*
X123898349Y-79448000D02*
X123898349Y-82552000D01*
X123938349Y-79547000D02*
X123938349Y-82453000D01*
X123978349Y-79654000D02*
X123978349Y-82346000D01*
X124018349Y-79771000D02*
X124018349Y-82229000D01*
X124058349Y-79902000D02*
X124058349Y-82098000D01*
X124098349Y-80052000D02*
X124098349Y-81948000D01*
X124138349Y-80232000D02*
X124138349Y-81768000D01*
X124178349Y-80467000D02*
X124178349Y-81533000D01*
X124217349Y-81000000D02*
G75*
G02*
X115977349Y-81000000I-4120000J0D01*
G01*
X115977349Y-81000000D02*
G75*
G02*
X124217349Y-81000000I4120000J0D01*
G01*
%TO.C,R2*%
X142130000Y-88310000D02*
X142130000Y-94850000D01*
X142130000Y-94850000D02*
X144870000Y-94850000D01*
X143500000Y-87540000D02*
X143500000Y-88310000D01*
X143500000Y-95620000D02*
X143500000Y-94850000D01*
X144870000Y-88310000D02*
X142130000Y-88310000D01*
X144870000Y-94850000D02*
X144870000Y-88310000D01*
D12*
%TO.C,J2*%
X167530001Y-64425009D02*
X167530001Y-71574994D01*
X167530001Y-71574994D02*
X173344907Y-71574994D01*
X169365001Y-73352994D02*
X170000001Y-71828994D01*
X170000001Y-71828994D02*
X170635001Y-73352994D01*
X170635001Y-73352994D02*
X169365001Y-73352994D01*
X173344914Y-64425009D02*
X167530001Y-64425009D01*
X174535095Y-71574994D02*
X176300001Y-71574994D01*
X176300001Y-64425009D02*
X174535088Y-64425009D01*
X176300001Y-71574994D02*
X176300001Y-64425009D01*
D11*
%TO.C,R1*%
X161130000Y-88150000D02*
X161130000Y-94690000D01*
X161130000Y-94690000D02*
X163870000Y-94690000D01*
X162500000Y-87380000D02*
X162500000Y-88150000D01*
X162500000Y-95460000D02*
X162500000Y-94690000D01*
X163870000Y-88150000D02*
X161130000Y-88150000D01*
X163870000Y-94690000D02*
X163870000Y-88150000D01*
D12*
%TO.C,J1*%
X167590000Y-53425021D02*
X167590000Y-60575006D01*
X167590000Y-60575006D02*
X173404906Y-60575006D01*
X169425000Y-62353006D02*
X170060000Y-60829006D01*
X170060000Y-60829006D02*
X170695000Y-62353006D01*
X170695000Y-62353006D02*
X169425000Y-62353006D01*
X173404913Y-53425021D02*
X167590000Y-53425021D01*
X174595094Y-60575006D02*
X176360000Y-60575006D01*
X176360000Y-53425021D02*
X174595087Y-53425021D01*
X176360000Y-60575006D02*
X176360000Y-53425021D01*
D11*
%TO.C,R3*%
X123130000Y-88230000D02*
X123130000Y-94770000D01*
X123130000Y-94770000D02*
X125870000Y-94770000D01*
X124500000Y-87460000D02*
X124500000Y-88230000D01*
X124500000Y-95540000D02*
X124500000Y-94770000D01*
X125870000Y-88230000D02*
X123130000Y-88230000D01*
X125870000Y-94770000D02*
X125870000Y-88230000D01*
D12*
%TO.C,M2*%
X135925009Y-57700000D02*
X135925009Y-59464913D01*
X135925009Y-60655087D02*
X135925009Y-66470000D01*
X135925009Y-66470000D02*
X143074994Y-66470000D01*
X143074994Y-57700000D02*
X135925009Y-57700000D01*
X143074994Y-59464906D02*
X143074994Y-57700000D01*
X143074994Y-66470000D02*
X143074994Y-60655094D01*
X143328994Y-64000000D02*
X144852994Y-63365000D01*
X144852994Y-63365000D02*
X144852994Y-64635000D01*
X144852994Y-64635000D02*
X143328994Y-64000000D01*
D11*
%TO.C,D2*%
X134430000Y-70030000D02*
X143570000Y-70030000D01*
X134430000Y-70360000D02*
X134430000Y-70030000D01*
X134430000Y-73640000D02*
X134430000Y-73970000D01*
X134430000Y-73970000D02*
X143570000Y-73970000D01*
X135765000Y-70030000D02*
X135765000Y-73970000D01*
X135885000Y-70030000D02*
X135885000Y-73970000D01*
X136005000Y-70030000D02*
X136005000Y-73970000D01*
X143570000Y-70030000D02*
X143570000Y-70360000D01*
X143570000Y-73970000D02*
X143570000Y-73640000D01*
D12*
%TO.C,M3*%
X116925009Y-57700000D02*
X116925009Y-59464913D01*
X116925009Y-60655087D02*
X116925009Y-66470000D01*
X116925009Y-66470000D02*
X124074994Y-66470000D01*
X124074994Y-57700000D02*
X116925009Y-57700000D01*
X124074994Y-59464906D02*
X124074994Y-57700000D01*
X124074994Y-66470000D02*
X124074994Y-60655094D01*
X124328994Y-64000000D02*
X125852994Y-63365000D01*
X125852994Y-63365000D02*
X125852994Y-64635000D01*
X125852994Y-64635000D02*
X124328994Y-64000000D01*
%TD*%
M02*
