M48
; DRILL file {KiCad 8.0.5} date 2024-10-01T12:23:29-0400
; FORMAT={-:-/ absolute / metric / decimal}
; #@! TF.CreationDate,2024-10-01T12:23:29-04:00
; #@! TF.GenerationSoftware,Kicad,Pcbnew,8.0.5
; #@! TF.FileFunction,Plated,1,2,PTH
FMAT,2
METRIC
; #@! TA.AperFunction,Plated,PTH,ComponentDrill
T1C0.483
; #@! TA.AperFunction,Plated,PTH,ComponentDrill
T2C0.800
; #@! TA.AperFunction,Plated,PTH,ComponentDrill
T3C1.000
; #@! TA.AperFunction,Plated,PTH,ComponentDrill
T4C1.020
; #@! TA.AperFunction,Plated,PTH,ComponentDrill
T5C1.400
%
G90
G05
T1
X129.73Y-79.23
X131.0Y-77.96
X131.0Y-80.5
X148.73Y-79.23
X150.0Y-77.96
X150.0Y-80.5
X167.77Y-79.23
X169.04Y-77.96
X169.04Y-80.5
T2
X117.597Y-81.0
X122.597Y-81.0
X124.5Y-86.42
X124.5Y-96.58
X136.597Y-81.0
X141.597Y-81.0
X143.5Y-86.5
X143.5Y-96.66
X155.597Y-81.0
X160.597Y-81.0
X162.5Y-86.34
X162.5Y-96.5
T3
X116.615Y-52.87
X116.615Y-101.13
X119.155Y-52.87
X119.155Y-101.13
X121.695Y-52.87
X121.695Y-101.13
X124.235Y-52.87
X124.235Y-101.13
X126.775Y-52.87
X126.775Y-101.13
X129.315Y-52.87
X129.315Y-101.13
X131.855Y-101.13
X134.395Y-52.87
X134.395Y-101.13
X136.935Y-52.87
X138.455Y-101.13
X139.475Y-52.87
X140.995Y-101.13
X142.015Y-52.87
X143.535Y-101.13
X144.555Y-52.87
X146.075Y-101.13
X147.095Y-52.87
X148.615Y-101.13
X149.635Y-52.87
X151.155Y-101.13
X152.175Y-52.87
X153.695Y-101.13
X156.235Y-101.13
X158.775Y-101.13
X161.315Y-101.13
T4
X120.5Y-61.0
X120.5Y-64.0
X139.5Y-61.0
X139.5Y-64.0
X158.5Y-61.0
X158.5Y-64.0
X170.0Y-68.0
X170.06Y-57.0
X173.0Y-68.0
X173.06Y-57.0
T5
X114.92Y-72.0
X125.08Y-72.0
X133.92Y-72.0
X144.08Y-72.0
X152.92Y-72.0
X163.08Y-72.0
M30
