%TF.GenerationSoftware,KiCad,Pcbnew,8.0.5*%
%TF.CreationDate,2024-10-01T12:23:07-04:00*%
%TF.ProjectId,hapticFeedbackPCB,68617074-6963-4466-9565-646261636b50,rev?*%
%TF.SameCoordinates,Original*%
%TF.FileFunction,Copper,L2,Bot*%
%TF.FilePolarity,Positive*%
%FSLAX46Y46*%
G04 Gerber Fmt 4.6, Leading zero omitted, Abs format (unit mm)*
G04 Created by KiCad (PCBNEW 8.0.5) date 2024-10-01 12:23:07*
%MOMM*%
%LPD*%
G01*
G04 APERTURE LIST*
%TA.AperFunction,ComponentPad*%
%ADD10R,2.800000X2.800000*%
%TD*%
%TA.AperFunction,ComponentPad*%
%ADD11O,2.800000X2.800000*%
%TD*%
%TA.AperFunction,ComponentPad*%
%ADD12R,1.600000X1.600000*%
%TD*%
%TA.AperFunction,ComponentPad*%
%ADD13C,1.600000*%
%TD*%
%TA.AperFunction,ComponentPad*%
%ADD14R,0.990600X0.990600*%
%TD*%
%TA.AperFunction,ComponentPad*%
%ADD15C,0.990600*%
%TD*%
%TA.AperFunction,ComponentPad*%
%ADD16R,1.520000X1.520000*%
%TD*%
%TA.AperFunction,ComponentPad*%
%ADD17C,1.520000*%
%TD*%
%TA.AperFunction,ComponentPad*%
%ADD18O,1.600000X1.600000*%
%TD*%
G04 APERTURE END LIST*
D10*
%TO.P,D1,1,K*%
%TO.N,+5V*%
X152920000Y-72000000D03*
D11*
%TO.P,D1,2,A*%
%TO.N,Net-(D1-A)*%
X163080000Y-72000000D03*
%TD*%
D12*
%TO.P,C1,1*%
%TO.N,+5V*%
X155597349Y-81000000D03*
D13*
%TO.P,C1,2*%
%TO.N,Net-(D1-A)*%
X160597349Y-81000000D03*
%TD*%
D14*
%TO.P,Q1,1,C*%
%TO.N,Net-(D1-A)*%
X169040000Y-80500000D03*
D15*
%TO.P,Q1,2,B*%
%TO.N,Net-(Q1-B)*%
X167770000Y-79230000D03*
%TO.P,Q1,3,E*%
%TO.N,GND*%
X169040000Y-77960000D03*
%TD*%
D10*
%TO.P,D3,1,K*%
%TO.N,+5V*%
X114920000Y-72000000D03*
D11*
%TO.P,D3,2,A*%
%TO.N,Net-(D3-A)*%
X125080000Y-72000000D03*
%TD*%
D14*
%TO.P,Q2,1,C*%
%TO.N,Net-(D2-A)*%
X150000000Y-80500000D03*
D15*
%TO.P,Q2,2,B*%
%TO.N,Net-(Q2-B)*%
X148730000Y-79230000D03*
%TO.P,Q2,3,E*%
%TO.N,GND*%
X150000000Y-77960000D03*
%TD*%
D12*
%TO.P,C2,1*%
%TO.N,+5V*%
X136597349Y-81000000D03*
D13*
%TO.P,C2,2*%
%TO.N,Net-(D2-A)*%
X141597349Y-81000000D03*
%TD*%
D16*
%TO.P,M1,1,+*%
%TO.N,+5V*%
X158500000Y-64000000D03*
D17*
%TO.P,M1,2,-*%
%TO.N,Net-(D1-A)*%
X158500000Y-61000001D03*
%TD*%
D14*
%TO.P,Q3,1,C*%
%TO.N,Net-(D3-A)*%
X131000000Y-80500000D03*
D15*
%TO.P,Q3,2,B*%
%TO.N,Net-(Q3-B)*%
X129730000Y-79230000D03*
%TO.P,Q3,3,E*%
%TO.N,GND*%
X131000000Y-77960000D03*
%TD*%
D12*
%TO.P,C3,1*%
%TO.N,+5V*%
X117597349Y-81000000D03*
D13*
%TO.P,C3,2*%
%TO.N,Net-(D3-A)*%
X122597349Y-81000000D03*
%TD*%
%TO.P,R2,1*%
%TO.N,Net-(A1-D10)*%
X143500000Y-96660000D03*
D18*
%TO.P,R2,2*%
%TO.N,Net-(Q2-B)*%
X143500000Y-86500000D03*
%TD*%
D16*
%TO.P,J2,1,1*%
%TO.N,unconnected-(J2-Pad1)*%
X170000001Y-68000000D03*
D17*
%TO.P,J2,2,2*%
%TO.N,unconnected-(J2-Pad2)*%
X173000000Y-68000000D03*
%TD*%
D13*
%TO.P,R1,1*%
%TO.N,Net-(A1-D11)*%
X162500000Y-96500000D03*
D18*
%TO.P,R1,2*%
%TO.N,Net-(Q1-B)*%
X162500000Y-86340000D03*
%TD*%
D16*
%TO.P,J1,1,1*%
%TO.N,GND*%
X170060000Y-57000012D03*
D17*
%TO.P,J1,2,2*%
%TO.N,+5V*%
X173059999Y-57000012D03*
%TD*%
D13*
%TO.P,R3,1*%
%TO.N,Net-(A1-D9)*%
X124500000Y-96580000D03*
D18*
%TO.P,R3,2*%
%TO.N,Net-(Q3-B)*%
X124500000Y-86420000D03*
%TD*%
D16*
%TO.P,M2,1,+*%
%TO.N,+5V*%
X139500000Y-64000000D03*
D17*
%TO.P,M2,2,-*%
%TO.N,Net-(D2-A)*%
X139500000Y-61000001D03*
%TD*%
D10*
%TO.P,D2,1,K*%
%TO.N,+5V*%
X133920000Y-72000000D03*
D11*
%TO.P,D2,2,A*%
%TO.N,Net-(D2-A)*%
X144080000Y-72000000D03*
%TD*%
D16*
%TO.P,M3,1,+*%
%TO.N,+5V*%
X120500000Y-64000000D03*
D17*
%TO.P,M3,2,-*%
%TO.N,Net-(D3-A)*%
X120500000Y-61000001D03*
%TD*%
D12*
%TO.P,A1,1,NC*%
%TO.N,unconnected-(A1-NC-Pad1)*%
X152175000Y-52870000D03*
D18*
%TO.P,A1,2,IOREF*%
%TO.N,unconnected-(A1-IOREF-Pad2)*%
X149635000Y-52870000D03*
%TO.P,A1,3,~{RESET}*%
%TO.N,unconnected-(A1-~{RESET}-Pad3)*%
X147095000Y-52870000D03*
%TO.P,A1,4,3V3*%
%TO.N,unconnected-(A1-3V3-Pad4)*%
X144555000Y-52870000D03*
%TO.P,A1,5,+5V*%
%TO.N,+5V*%
X142015000Y-52870000D03*
%TO.P,A1,6,GND*%
%TO.N,GND*%
X139475000Y-52870000D03*
%TO.P,A1,7,GND*%
X136935000Y-52870000D03*
%TO.P,A1,8,VIN*%
%TO.N,unconnected-(A1-VIN-Pad8)*%
X134395000Y-52870000D03*
%TO.P,A1,9,A0*%
%TO.N,unconnected-(A1-A0-Pad9)*%
X129315000Y-52870000D03*
%TO.P,A1,10,A1*%
%TO.N,unconnected-(A1-A1-Pad10)*%
X126775000Y-52870000D03*
%TO.P,A1,11,A2*%
%TO.N,unconnected-(A1-A2-Pad11)*%
X124235000Y-52870000D03*
%TO.P,A1,12,A3*%
%TO.N,unconnected-(A1-A3-Pad12)*%
X121695000Y-52870000D03*
%TO.P,A1,13,SDA/A4*%
%TO.N,unconnected-(A1-SDA{slash}A4-Pad13)*%
X119155000Y-52870000D03*
%TO.P,A1,14,SCL/A5*%
%TO.N,unconnected-(A1-SCL{slash}A5-Pad14)*%
X116615000Y-52870000D03*
%TO.P,A1,15,D0/RX*%
%TO.N,unconnected-(A1-D0{slash}RX-Pad15)*%
X116615000Y-101130000D03*
%TO.P,A1,16,D1/TX*%
%TO.N,unconnected-(A1-D1{slash}TX-Pad16)*%
X119155000Y-101130000D03*
%TO.P,A1,17,D2*%
%TO.N,unconnected-(A1-D2-Pad17)*%
X121695000Y-101130000D03*
%TO.P,A1,18,D3*%
%TO.N,unconnected-(A1-D3-Pad18)*%
X124235000Y-101130000D03*
%TO.P,A1,19,D4*%
%TO.N,unconnected-(A1-D4-Pad19)*%
X126775000Y-101130000D03*
%TO.P,A1,20,D5*%
%TO.N,unconnected-(A1-D5-Pad20)*%
X129315000Y-101130000D03*
%TO.P,A1,21,D6*%
%TO.N,unconnected-(A1-D6-Pad21)*%
X131855000Y-101130000D03*
%TO.P,A1,22,D7*%
%TO.N,unconnected-(A1-D7-Pad22)*%
X134395000Y-101130000D03*
%TO.P,A1,23,D8*%
%TO.N,unconnected-(A1-D8-Pad23)*%
X138455000Y-101130000D03*
%TO.P,A1,24,D9*%
%TO.N,Net-(A1-D9)*%
X140995000Y-101130000D03*
%TO.P,A1,25,D10*%
%TO.N,Net-(A1-D10)*%
X143535000Y-101130000D03*
%TO.P,A1,26,D11*%
%TO.N,Net-(A1-D11)*%
X146075000Y-101130000D03*
%TO.P,A1,27,D12*%
%TO.N,unconnected-(A1-D12-Pad27)*%
X148615000Y-101130000D03*
%TO.P,A1,28,D13*%
%TO.N,unconnected-(A1-D13-Pad28)*%
X151155000Y-101130000D03*
%TO.P,A1,29,GND*%
%TO.N,GND*%
X153695000Y-101130000D03*
%TO.P,A1,30,AREF*%
%TO.N,unconnected-(A1-AREF-Pad30)*%
X156235000Y-101130000D03*
%TO.P,A1,31,SDA/A4*%
%TO.N,unconnected-(A1-SDA{slash}A4-Pad31)*%
X158775000Y-101130000D03*
%TO.P,A1,32,SCL/A5*%
%TO.N,unconnected-(A1-SCL{slash}A5-Pad32)*%
X161315000Y-101130000D03*
%TD*%
M02*
