G04*
G04 #@! TF.GenerationSoftware,Altium Limited,Altium Designer,20.2.4 (192)*
G04*
G04 Layer_Physical_Order=1*
G04 Layer_Color=255*
%FSLAX44Y44*%
%MOMM*%
G71*
G04*
G04 #@! TF.SameCoordinates,CF283823-0513-47C4-8CBF-F8F342A7A539*
G04*
G04*
G04 #@! TF.FilePolarity,Positive*
G04*
G01*
G75*
%ADD12R,1.5000X1.5000*%
%ADD13R,0.7400X1.7300*%
%ADD14R,1.1000X0.3800*%
%ADD15R,1.7300X0.7400*%
%ADD22C,0.2000*%
%ADD23C,1.5240*%
%ADD24C,0.6000*%
G36*
X123961Y-7961D02*
X106845D01*
X97442Y1442D01*
X96780Y1884D01*
X96000Y2039D01*
X96000Y2039D01*
X15845Y2039D01*
X2039Y15845D01*
Y33155D01*
X15845Y46961D01*
X96000D01*
X96780Y47116D01*
X97442Y47558D01*
X106845Y56961D01*
X123961D01*
Y-7961D01*
D02*
G37*
%LPC*%
G36*
X73555Y42505D02*
X64270D01*
Y38170D01*
X73555D01*
Y42505D01*
D02*
G37*
G36*
X63000D02*
X53715D01*
Y38170D01*
X63000D01*
Y42505D01*
D02*
G37*
G36*
X111000Y54967D02*
X108679Y54661D01*
X106517Y53765D01*
X104660Y52340D01*
X103235Y50483D01*
X102339Y48321D01*
X102033Y46000D01*
X102339Y43679D01*
X103235Y41517D01*
X104660Y39660D01*
X106517Y38235D01*
X108679Y37339D01*
X111000Y37033D01*
X113321Y37339D01*
X115483Y38235D01*
X117340Y39660D01*
X118765Y41517D01*
X119661Y43679D01*
X119967Y46000D01*
X119661Y48321D01*
X118765Y50483D01*
X117340Y52340D01*
X115483Y53765D01*
X113321Y54661D01*
X111000Y54967D01*
D02*
G37*
G36*
X48740Y38953D02*
X42606D01*
Y36418D01*
X48740D01*
Y38953D01*
D02*
G37*
G36*
X41336D02*
X35201D01*
Y36418D01*
X41336D01*
Y38953D01*
D02*
G37*
G36*
X73555Y36900D02*
X63635D01*
X53715D01*
Y32797D01*
X48740D01*
Y35148D01*
X41971D01*
Y35783D01*
D01*
Y35148D01*
X35201D01*
Y32659D01*
X32437D01*
X32019Y33284D01*
X30607Y34228D01*
X28941Y34559D01*
X27275Y34228D01*
X25862Y33284D01*
X25824Y33226D01*
X24554Y33611D01*
Y34077D01*
X11319D01*
Y24157D01*
Y14237D01*
X24554D01*
Y16741D01*
X25824Y17126D01*
X25892Y17024D01*
X27304Y16080D01*
X28482Y15846D01*
X29071Y14693D01*
X29086Y14530D01*
X29024Y14446D01*
X28970Y14456D01*
X27304Y14125D01*
X25892Y13181D01*
X24948Y11769D01*
X24617Y10103D01*
X24948Y8437D01*
X25892Y7024D01*
X27304Y6080D01*
X28970Y5749D01*
X30636Y6080D01*
X32049Y7024D01*
X32993Y8437D01*
X33324Y10103D01*
X33145Y11004D01*
X37092Y14951D01*
X37594Y15702D01*
X37770Y16588D01*
Y27313D01*
X48740D01*
Y28168D01*
X53715D01*
Y24040D01*
X53715Y23665D01*
X52816Y22770D01*
X52230D01*
Y5230D01*
X69770D01*
Y11686D01*
X71556D01*
X72745Y10496D01*
X72646Y10000D01*
X72978Y8334D01*
X73921Y6921D01*
X75334Y5978D01*
X77000Y5646D01*
X78666Y5978D01*
X80078Y6921D01*
X81022Y8334D01*
X81081Y8628D01*
X82551Y9512D01*
X82861Y9420D01*
X83235Y8517D01*
X84660Y6660D01*
X86517Y5235D01*
X88679Y4339D01*
X91000Y4033D01*
X93321Y4339D01*
X95483Y5235D01*
X97340Y6660D01*
X98765Y8517D01*
X99661Y10679D01*
X99967Y13000D01*
X99661Y15321D01*
X98765Y17483D01*
X97340Y19340D01*
X95483Y20765D01*
X93321Y21661D01*
X91000Y21967D01*
X88679Y21661D01*
X86517Y20765D01*
X84660Y19340D01*
X83775Y18187D01*
X82373Y18121D01*
X73555Y26938D01*
Y32565D01*
Y36900D01*
D02*
G37*
G36*
X91000Y43967D02*
X88679Y43661D01*
X86517Y42765D01*
X84660Y41340D01*
X83235Y39483D01*
X82339Y37321D01*
X82033Y35000D01*
X82339Y32679D01*
X83235Y30517D01*
X84660Y28660D01*
X86517Y27235D01*
X88679Y26339D01*
X91000Y26033D01*
X93321Y26339D01*
X95483Y27235D01*
X97340Y28660D01*
X98765Y30517D01*
X99661Y32679D01*
X99967Y35000D01*
X99661Y37321D01*
X98765Y39483D01*
X97340Y41340D01*
X95483Y42765D01*
X93321Y43661D01*
X91000Y43967D01*
D02*
G37*
G36*
X10049Y34077D02*
X5714D01*
Y24792D01*
X10049D01*
Y34077D01*
D02*
G37*
G36*
X111000Y32967D02*
X108679Y32661D01*
X106517Y31765D01*
X104660Y30340D01*
X103235Y28483D01*
X102339Y26321D01*
X102033Y24000D01*
X102339Y21679D01*
X103235Y19517D01*
X104660Y17660D01*
X106517Y16235D01*
X108679Y15339D01*
X111000Y15033D01*
X113321Y15339D01*
X115483Y16235D01*
X117340Y17660D01*
X118765Y19517D01*
X119661Y21679D01*
X119967Y24000D01*
X119661Y26321D01*
X118765Y28483D01*
X117340Y30340D01*
X115483Y31765D01*
X113321Y32661D01*
X111000Y32967D01*
D02*
G37*
G36*
X10049Y23522D02*
X5714D01*
Y14237D01*
X10049D01*
Y23522D01*
D02*
G37*
G36*
X111635Y11883D02*
Y3635D01*
X119883D01*
X119661Y5321D01*
X118765Y7483D01*
X117340Y9340D01*
X115483Y10765D01*
X113321Y11661D01*
X111635Y11883D01*
D02*
G37*
G36*
X110365Y11883D02*
X108679Y11661D01*
X106517Y10765D01*
X104660Y9340D01*
X103235Y7483D01*
X102339Y5321D01*
X102117Y3635D01*
X110365D01*
Y11883D01*
D02*
G37*
G36*
Y2365D02*
X102117D01*
X102339Y679D01*
X103235Y-1483D01*
X104660Y-3340D01*
X106517Y-4765D01*
X108679Y-5661D01*
X110365Y-5883D01*
Y2365D01*
D02*
G37*
G36*
X119883D02*
X111635D01*
Y-5883D01*
X113321Y-5661D01*
X115483Y-4765D01*
X117340Y-3340D01*
X118765Y-1483D01*
X119661Y679D01*
X119883Y2365D01*
D02*
G37*
%LPD*%
D12*
X61000Y14000D02*
D03*
D13*
X10684Y24157D02*
D03*
X19584D02*
D03*
D14*
X41971Y30483D02*
D03*
Y35783D02*
D03*
D15*
X63635Y37535D02*
D03*
Y28635D02*
D03*
D22*
X61000Y14000D02*
X72515D01*
X76515Y10000D01*
X77000D01*
X88467Y15533D02*
X91000Y13000D01*
X63635Y28635D02*
X64384Y27887D01*
X61787Y30483D02*
X64384Y27887D01*
X69334D01*
X81687Y15533D01*
X88467D01*
X19584Y21446D02*
Y24157D01*
Y21446D02*
X20927Y20103D01*
X28970D01*
X41971Y30483D02*
X61787D01*
X28970Y10103D02*
X35456Y16588D01*
X29079Y30344D02*
X35456D01*
X28941Y30206D02*
X29079Y30344D01*
X41832D02*
X41971Y30483D01*
X35456Y16588D02*
Y30344D01*
X41832D01*
D23*
X91000Y35000D02*
D03*
Y13000D02*
D03*
X111000Y46000D02*
D03*
Y24000D02*
D03*
Y3000D02*
D03*
D24*
X77000Y10000D02*
D03*
X28970Y10103D02*
D03*
Y20103D02*
D03*
Y40103D02*
D03*
X28941Y30206D02*
D03*
M02*
