G04*
G04 #@! TF.GenerationSoftware,Altium Limited,Altium Designer,20.2.4 (192)*
G04*
G04 Layer_Color=32896*
%FSLAX44Y44*%
%MOMM*%
G71*
G04*
G04 #@! TF.SameCoordinates,CF283823-0513-47C4-8CBF-F8F342A7A539*
G04*
G04*
G04 #@! TF.FilePolarity,Positive*
G04*
G01*
G75*
%ADD10C,0.0500*%
%ADD30C,0.0400*%
%ADD31C,0.0600*%
%ADD32C,0.1000*%
D10*
X65470Y7103D02*
X70470D01*
Y12103D01*
Y38103D02*
Y43103D01*
Y38103D02*
Y43103D01*
X65470D02*
X70470D01*
X37471D02*
X42470D01*
X37471D02*
X42470D01*
X37471Y38103D02*
Y43103D01*
Y7103D02*
X42470D01*
X37471D02*
X42470D01*
X37471D02*
Y12103D01*
D30*
X121598Y56330D02*
X123264Y55497D01*
X121598Y54664D01*
X123264Y53831D02*
Y52998D01*
Y53414D01*
X120765D01*
X121181Y53831D01*
X123264Y51748D02*
X122847D01*
Y51332D01*
X123264D01*
Y51748D01*
X121181Y49665D02*
X120765Y49249D01*
Y48416D01*
X121181Y47999D01*
X122847D01*
X123264Y48416D01*
Y49249D01*
X122847Y49665D01*
X121181D01*
X21767Y35375D02*
X19268D01*
Y34125D01*
X19684Y33709D01*
X20517D01*
X20934Y34125D01*
Y35375D01*
Y34542D02*
X21767Y33709D01*
X20101Y32876D02*
X21350D01*
X21767Y32459D01*
Y31209D01*
X22183D01*
X22600Y31626D01*
Y32043D01*
X21767Y31209D02*
X20101D01*
Y29960D02*
Y29127D01*
X20517Y28710D01*
X21767D01*
Y29960D01*
X21350Y30377D01*
X20934Y29960D01*
Y28710D01*
X21767Y27877D02*
X20101D01*
Y26628D01*
X20517Y26211D01*
X21767D01*
X19684Y21213D02*
X19268Y21629D01*
Y22462D01*
X19684Y22879D01*
X21350D01*
X21767Y22462D01*
Y21629D01*
X21350Y21213D01*
X19268Y20380D02*
X21767D01*
X20517D01*
X20101Y19963D01*
Y19130D01*
X20517Y18714D01*
X21767D01*
Y16631D02*
Y17464D01*
X21350Y17881D01*
X20517D01*
X20101Y17464D01*
Y16631D01*
X20517Y16214D01*
X20934D01*
Y17881D01*
X21767Y15381D02*
X20101D01*
Y14132D01*
X20517Y13715D01*
X21767D01*
D31*
X5862Y27999D02*
X5363Y28499D01*
Y29498D01*
X5862Y29998D01*
X6362D01*
X6862Y29498D01*
Y28499D01*
X7362Y27999D01*
X7862D01*
X8362Y28499D01*
Y29498D01*
X7862Y29998D01*
X8362Y26999D02*
Y26000D01*
Y26499D01*
X5363D01*
Y26999D01*
X8362Y24500D02*
Y23500D01*
Y24000D01*
X6362D01*
Y24500D01*
X9361Y22001D02*
X6362D01*
Y20501D01*
X6862Y20001D01*
X7862D01*
X8362Y20501D01*
Y22001D01*
X11901Y40495D02*
X11401Y40995D01*
Y41994D01*
X11901Y42494D01*
X12401D01*
X12901Y41994D01*
Y40995D01*
X13400Y40495D01*
X13900D01*
X14400Y40995D01*
Y41994D01*
X13900Y42494D01*
X14400Y37996D02*
Y38995D01*
X13900Y39495D01*
X12901D01*
X12401Y38995D01*
Y37996D01*
X12901Y37496D01*
X13400D01*
Y39495D01*
X14400Y36496D02*
X12401D01*
Y34997D01*
X12901Y34497D01*
X14400D01*
Y33497D02*
Y31998D01*
X13900Y31498D01*
X13400Y31998D01*
Y32997D01*
X12901Y33497D01*
X12401Y32997D01*
Y31498D01*
X14400Y29998D02*
Y28999D01*
X13900Y28499D01*
X12901D01*
X12401Y28999D01*
Y29998D01*
X12901Y30498D01*
X13900D01*
X14400Y29998D01*
X12401Y27499D02*
X14400D01*
X13400D01*
X12901Y26999D01*
X12401Y26499D01*
Y26000D01*
X11401Y21501D02*
X14400D01*
Y20001D01*
X13900Y19502D01*
X13400D01*
X12901Y20001D01*
Y21501D01*
Y20001D01*
X12401Y19502D01*
X11901D01*
X11401Y20001D01*
Y21501D01*
X14400Y18002D02*
Y17003D01*
X13900Y16503D01*
X12901D01*
X12401Y17003D01*
Y18002D01*
X12901Y18502D01*
X13900D01*
X14400Y18002D01*
X12401Y15003D02*
Y14003D01*
X12901Y13504D01*
X14400D01*
Y15003D01*
X13900Y15503D01*
X13400Y15003D01*
Y13504D01*
X12401Y12504D02*
X14400D01*
X13400D01*
X12901Y12004D01*
X12401Y11504D01*
Y11004D01*
X11401Y7505D02*
X14400D01*
Y9005D01*
X13900Y9505D01*
X12901D01*
X12401Y9005D01*
Y7505D01*
D32*
X74471Y27115D02*
X78636D01*
X79470Y26282D01*
Y24616D01*
X78636Y23783D01*
X74471D01*
X79470Y22116D02*
Y20450D01*
Y21283D01*
X74471D01*
X75304Y22116D01*
M02*
