%FSTAX23Y23*%
%MOIN*%
%SFA1B1*%

%IPPOS*%
%ADD10C,0.000984*%
%ADD11C,0.001969*%
%ADD12C,0.001181*%
%ADD13C,0.001378*%
%LNslipsensorevalboard-1*%
%LPD*%
G54D10*
X003Y00055D02*
X00321D01*
X003D02*
Y00101D01*
X00321Y00055D02*
Y00101D01*
X003D02*
X00321D01*
G54D11*
X0002Y00053D02*
X00098D01*
X0002D02*
Y00136D01*
X00098*
Y00053D02*
Y00136D01*
X00194Y00104D02*
Y00156D01*
X00135Y00104D02*
X00194D01*
X00135D02*
Y00156D01*
X00194*
X00209Y0009D02*
Y00169D01*
X00291*
Y0009D02*
Y00169D01*
X00209Y0009D02*
X00291D01*
X00488Y00083D02*
X00486Y00081D01*
Y00077*
X00488Y00075*
X00496*
X00498Y00077*
Y00081*
X00496Y00083*
X00492*
Y00079*
X00498Y00087D02*
X00486D01*
X00498Y00095*
X00486*
Y00099D02*
X00498D01*
Y00105*
X00496Y00107*
X00488*
X00486Y00105*
Y00099*
X00488Y00167D02*
X00486Y00165D01*
Y00161*
X00488Y00159*
X00496*
X00498Y00161*
Y00165*
X00496Y00167*
X00486Y00171D02*
X00498D01*
Y00179*
X00486Y00183D02*
X00498D01*
X00494*
X00486Y0019*
X00492Y00185*
X00498Y0019*
X00407Y00112D02*
X00419D01*
Y00118*
X00417Y0012*
X00409*
X00407Y00118*
Y00112*
X00419Y00124D02*
X00411D01*
X00407Y00127*
X00411Y00131*
X00419*
X00413*
Y00124*
X00407Y00135D02*
Y00143D01*
Y00139*
X00419*
Y00147D02*
X00411D01*
X00407Y00151*
X00411Y00155*
X00419*
X00413*
Y00147*
X00407Y00031D02*
X00415D01*
X00419Y00035*
X00415Y00039*
X00407*
X00409Y00051D02*
X00407Y00049D01*
Y00045*
X00409Y00043*
X00417*
X00419Y00045*
Y00049*
X00417Y00051*
X00409Y00062D02*
X00407Y00061D01*
Y00057*
X00409Y00055*
X00417*
X00419Y00057*
Y00061*
X00417Y00062*
X00057Y00149D02*
X00055Y00151D01*
X00051*
X00049Y00149*
Y00141*
X00051Y0014*
X00055*
X00057Y00141*
X0006Y00149D02*
X00062Y00151D01*
X00066*
X00068Y00149*
Y00147*
X00066Y00145*
X00064*
X00066*
X00068Y00143*
Y00141*
X00066Y0014*
X00062*
X0006Y00141*
X00163Y00168D02*
X00161Y0017D01*
X00157*
X00156Y00168*
Y0016*
X00157Y00158*
X00161*
X00163Y0016*
X00174Y00158D02*
X00167D01*
X00174Y00166*
Y00168*
X00172Y0017*
X00168*
X00167Y00168*
X0025Y00181D02*
X00248Y00183D01*
X00244*
X00242Y00181*
Y00174*
X00244Y00172*
X00248*
X0025Y00174*
X00253Y00172D02*
X00257D01*
X00255*
Y00183*
X00253Y00181*
G54D12*
X0033Y00073D02*
X00322D01*
Y00077*
X00324Y00078*
X00326*
X00328Y00077*
Y00073*
Y00076D02*
X0033Y00078D01*
Y00081D02*
Y00083D01*
Y00082*
X00322*
X00324Y00081*
G54D13*
X00221Y00019D02*
X00224D01*
X00222*
Y00011*
X00221*
X00224*
X00228Y00019D02*
Y00011D01*
X00232*
X00233Y00012*
Y00017*
X00232Y00019*
X00228*
X00236Y00009D02*
X00241D01*
X00249Y00017D02*
X00247Y00019D01*
X00245*
X00243Y00017*
Y00016*
X00245Y00015*
X00247*
X00249Y00013*
Y00012*
X00247Y00011*
X00245*
X00243Y00012*
X00257Y00019D02*
X00251D01*
Y00011*
X00257*
X00251Y00015D02*
X00254D01*
X00259Y00019D02*
Y00011D01*
X00264*
M02*