%FSTAX23Y23*%
%MOIN*%
%SFA1B1*%

%IPPOS*%
%ADD14R,0.059055X0.059055*%
%ADD15R,0.009843X0.011811*%
%ADD16R,0.029134X0.068110*%
%ADD17R,0.043307X0.014961*%
%ADD18R,0.068110X0.029134*%
%ADD25C,0.007874*%
%ADD26C,0.060000*%
%ADD27C,0.023622*%
%LNslipsensorevalboard-1*%
%LPD*%
G36*
X00499Y00066D02*
X00441Y00008D01*
X00062*
X00008Y00062*
Y0013*
X00062Y00184*
X00319*
X0032Y0018*
X00314Y00173*
X00311Y00174*
X00304Y00173*
X00298Y00169*
X00295Y00164*
X00294Y00161*
X00289Y00161*
Y00167*
X00253*
Y00147*
X0025*
Y00145*
X00211*
Y00129*
X00191*
Y00138*
X00165*
X00138*
Y00128*
X00127*
X00126Y00131*
X0012Y00134*
X00113Y00136*
X00107Y00134*
X00101Y00131*
X00101Y0013*
X00096Y00132*
Y00134*
X00044*
Y00095*
Y00056*
X00096*
Y00065*
X00101Y00067*
X00101Y00067*
X00107Y00063*
X00112Y00062*
X00114Y00057*
X00114Y00057*
X00114Y00056*
X00114Y00056*
X00107Y00055*
X00101Y00051*
X00098Y00046*
X00096Y00039*
X00098Y00033*
X00101Y00027*
X00107Y00023*
X00114Y00022*
X0012Y00023*
X00126Y00027*
X00129Y00033*
X00131Y00039*
X0013Y00043*
X00146Y00058*
X00148Y00061*
X00148Y00065*
Y00107*
X00191*
Y0011*
X00211*
Y00093*
X00207Y00089*
X00205*
Y0002*
X00274*
Y00033*
X00295*
X00295Y00032*
X00298Y00027*
X00304Y00023*
X00311Y00022*
X00317Y00023*
X00323Y00027*
X00326Y00032*
X00328Y00039*
X00328Y00039*
X00331Y00043*
X00335Y00042*
X00336Y00041*
X00339Y00033*
X00345Y00026*
X00352Y0002*
X0036Y00017*
X0037Y00015*
X00379Y00017*
X00387Y0002*
X00395Y00026*
X004Y00033*
X00404Y00042*
X00405Y00051*
X00404Y0006*
X004Y00068*
X00395Y00076*
X00387Y00081*
X00379Y00085*
X0037Y00086*
X0036Y00085*
X00352Y00081*
X00345Y00076*
X00339Y00068*
X00338Y00067*
X00333Y00066*
X00325Y00074*
X00323Y00075*
X0032Y00079*
Y00101*
X00322Y00105*
X00323Y00106*
X00326Y00111*
X00328Y00118*
X00332Y00122*
X00336*
X00339Y00116*
X00345Y00108*
X00352Y00103*
X0036Y00099*
X0037Y00098*
X00379Y00099*
X00387Y00103*
X00395Y00108*
X004Y00116*
X00404Y00124*
X00405Y00133*
X00404Y00142*
X004Y00151*
X00395Y00158*
X00387Y00164*
X00381Y00166*
X00382Y00171*
X00414*
X00414Y00168*
X00418Y00159*
X00423Y00152*
X00431Y00146*
X00439Y00143*
X00448Y00141*
X00457Y00143*
X00466Y00146*
X00473Y00152*
X00479Y00159*
X00482Y00168*
X00484Y00177*
X00482Y00186*
X00479Y00194*
X00473Y00202*
X00466Y00207*
X00457Y00211*
X00448Y00212*
X00439Y00211*
X00431Y00207*
X00423Y00202*
X00418Y00194*
X00416Y0019*
X00393*
X00391Y00194*
X0042Y00224*
X00499*
Y00066*
G37*
%LNslipsensorevalboard-2*%
%LPC*%
G36*
X00248Y00167D02*
X00211D01*
Y0015*
X00248*
Y00167*
G37*
G36*
X00191Y00153D02*
X00167D01*
Y00143*
X00191*
Y00153*
G37*
G36*
X00162D02*
X00138D01*
Y00143*
X00162*
Y00153*
G37*
G36*
X00039Y00134D02*
X00022D01*
Y00097*
X00039*
Y00134*
G37*
G36*
X00451Y00122D02*
Y0009D01*
X00483*
X00482Y00096*
X00479Y00105*
X00473Y00112*
X00466Y00118*
X00457Y00121*
X00451Y00122*
G37*
G36*
X00446D02*
X00439Y00121D01*
X00431Y00118*
X00423Y00112*
X00418Y00105*
X00414Y00096*
X00413Y0009*
X00446*
Y00122*
G37*
G36*
X00039Y00092D02*
X00022D01*
Y00056*
X00039*
Y00092*
G37*
G36*
X00483Y00085D02*
X00451D01*
Y00052*
X00457Y00053*
X00466Y00057*
X00473Y00062*
X00479Y0007*
X00482Y00078*
X00483Y00085*
G37*
G36*
X00446D02*
X00413D01*
X00414Y00078*
X00418Y0007*
X00423Y00062*
X00431Y00057*
X00439Y00053*
X00446Y00052*
Y00085*
G37*
%LNslipsensorevalboard-3*%
%LPD*%
G54D14*
X0024Y00055D03*
G54D15*
X00311Y0009D03*
Y00066D03*
G54D16*
X00042Y00095D03*
X00077D03*
G54D17*
X00165Y0012D03*
Y0014D03*
G54D18*
X0025Y00147D03*
Y00112D03*
G54D25*
X00444Y00181D02*
X00448Y00177D01*
X00334Y00181D02*
X00444D01*
X00311Y00157D02*
X00334Y00181D01*
X0024Y00055D02*
X00252Y00042D01*
X00308*
X00311Y00039*
X0031Y0009D02*
X00311Y0009D01*
X0031Y0009D02*
Y00118D01*
X0031Y00118D02*
X0031Y00118D01*
X00307Y00067D02*
X00318D01*
X00332Y00053D02*
X00367D01*
X00318Y00067D02*
X00332Y00053D01*
X00367D02*
X0037Y00051D01*
X0027Y00112D02*
X0028Y00102D01*
X0025Y00112D02*
X0027D01*
X0028Y00093D02*
X00307Y00066D01*
X0028Y00093D02*
Y00102D01*
X00077Y00084D02*
Y00095D01*
Y00084D02*
X00082Y00079D01*
X00114*
X00243Y0012D02*
X0025Y00112D01*
X00165Y0012D02*
X00243D01*
X00367Y00131D02*
X0037Y00133D01*
X00328Y00131D02*
X00367D01*
X00315Y00118D02*
X00328Y00131D01*
X0031Y00118D02*
X00315D01*
X00114Y00039D02*
X00139Y00065D01*
X00114Y00119D02*
X00139D01*
X00113Y00118D02*
X00114Y00119D01*
X00164D02*
X00165Y0012D01*
X00139Y00065D02*
Y00119D01*
X00164*
G54D26*
X0037Y00051D03*
X00448Y00087D03*
X0037Y00133D03*
X00448Y00177D03*
G54D27*
X00114Y00039D03*
Y00079D03*
Y00157D03*
X00113Y00118D03*
X00311Y00039D03*
Y00157D03*
X0031Y00118D03*
M02*