%FSTAX23Y23*%
%MOIN*%
%SFA1B1*%

%IPPOS*%
%ADD25C,0.007874*%
%ADD26C,0.060000*%
%ADD27C,0.023622*%
%ADD28R,0.029527X0.019685*%
%ADD29R,0.027559X0.015748*%
%ADD30C,0.027165*%
%LNslipsensorevalboard-1*%
%LPD*%
G36*
X00155Y00041D02*
Y00061D01*
X00184*
X00188Y00057*
Y00041*
X00155*
G37*
G54D25*
X00114Y00079D02*
X00115Y0008D01*
X00116Y00039D02*
X00127Y00051D01*
X00114Y00039D02*
X00116D01*
X00116Y00118D02*
X0012Y00114D01*
X00114Y00157D02*
X00125Y00146D01*
X00113Y00118D02*
X00116D01*
X00113D02*
X00115Y00117D01*
X00168Y0008D02*
X0017Y00083D01*
X00167Y00117D02*
X0017Y00114D01*
X00254Y00051D02*
X00296D01*
X00254Y00146D02*
X00297D01*
X00115Y0008D02*
X00168D01*
X00127Y00051D02*
X00171D01*
X0012Y00114D02*
X0017D01*
X00125Y00146D02*
X0017D01*
X00296Y00051D02*
X00308Y00039D01*
X00311*
X00304Y00114D02*
X00308Y00118D01*
X00297Y00146D02*
X00308Y00157D01*
X00311*
X00308Y00118D02*
X0031D01*
X00254Y00114D02*
X00304D01*
G54D26*
X0037Y00051D03*
X00448Y00087D03*
X0037Y00133D03*
X00448Y00177D03*
G54D27*
X00114Y00039D03*
Y00079D03*
Y00157D03*
X00113Y00118D03*
X00311Y00039D03*
Y00157D03*
X0031Y00118D03*
G54D28*
X0017Y00083D03*
Y00146D03*
Y00114D03*
X00254Y00146D03*
Y00114D03*
Y00083D03*
Y00051D03*
G54D29*
X00171Y00051D03*
G54D30*
X00212Y00142D03*
M02*