%TF.GenerationSoftware,KiCad,Pcbnew,(6.0.7-1)-1*%
%TF.CreationDate,2023-04-05T16:12:29-04:00*%
%TF.ProjectId,Seth'sEMG,53657468-2773-4454-9d47-2e6b69636164,rev?*%
%TF.SameCoordinates,Original*%
%TF.FileFunction,Legend,Top*%
%TF.FilePolarity,Positive*%
%FSLAX46Y46*%
G04 Gerber Fmt 4.6, Leading zero omitted, Abs format (unit mm)*
G04 Created by KiCad (PCBNEW (6.0.7-1)-1) date 2023-04-05 16:12:29*
%MOMM*%
%LPD*%
G01*
G04 APERTURE LIST*
%ADD10C,0.150000*%
%ADD11C,0.120000*%
%ADD12C,0.127000*%
%ADD13C,0.200000*%
G04 APERTURE END LIST*
D10*
%TO.C,R11*%
X161997380Y-106322857D02*
X161521190Y-106656190D01*
X161997380Y-106894285D02*
X160997380Y-106894285D01*
X160997380Y-106513333D01*
X161045000Y-106418095D01*
X161092619Y-106370476D01*
X161187857Y-106322857D01*
X161330714Y-106322857D01*
X161425952Y-106370476D01*
X161473571Y-106418095D01*
X161521190Y-106513333D01*
X161521190Y-106894285D01*
X161997380Y-105370476D02*
X161997380Y-105941904D01*
X161997380Y-105656190D02*
X160997380Y-105656190D01*
X161140238Y-105751428D01*
X161235476Y-105846666D01*
X161283095Y-105941904D01*
X161997380Y-104418095D02*
X161997380Y-104989523D01*
X161997380Y-104703809D02*
X160997380Y-104703809D01*
X161140238Y-104799047D01*
X161235476Y-104894285D01*
X161283095Y-104989523D01*
%TO.C,J3*%
X148267380Y-124158333D02*
X148981666Y-124158333D01*
X149124523Y-124205952D01*
X149219761Y-124301190D01*
X149267380Y-124444047D01*
X149267380Y-124539285D01*
X148267380Y-123777380D02*
X148267380Y-123158333D01*
X148648333Y-123491666D01*
X148648333Y-123348809D01*
X148695952Y-123253571D01*
X148743571Y-123205952D01*
X148838809Y-123158333D01*
X149076904Y-123158333D01*
X149172142Y-123205952D01*
X149219761Y-123253571D01*
X149267380Y-123348809D01*
X149267380Y-123634523D01*
X149219761Y-123729761D01*
X149172142Y-123777380D01*
%TO.C,J5*%
X155876666Y-89897380D02*
X155876666Y-90611666D01*
X155829047Y-90754523D01*
X155733809Y-90849761D01*
X155590952Y-90897380D01*
X155495714Y-90897380D01*
X156829047Y-89897380D02*
X156352857Y-89897380D01*
X156305238Y-90373571D01*
X156352857Y-90325952D01*
X156448095Y-90278333D01*
X156686190Y-90278333D01*
X156781428Y-90325952D01*
X156829047Y-90373571D01*
X156876666Y-90468809D01*
X156876666Y-90706904D01*
X156829047Y-90802142D01*
X156781428Y-90849761D01*
X156686190Y-90897380D01*
X156448095Y-90897380D01*
X156352857Y-90849761D01*
X156305238Y-90802142D01*
%TO.C,R15*%
X152114642Y-122752380D02*
X151781309Y-122276190D01*
X151543214Y-122752380D02*
X151543214Y-121752380D01*
X151924166Y-121752380D01*
X152019404Y-121800000D01*
X152067023Y-121847619D01*
X152114642Y-121942857D01*
X152114642Y-122085714D01*
X152067023Y-122180952D01*
X152019404Y-122228571D01*
X151924166Y-122276190D01*
X151543214Y-122276190D01*
X153067023Y-122752380D02*
X152495595Y-122752380D01*
X152781309Y-122752380D02*
X152781309Y-121752380D01*
X152686071Y-121895238D01*
X152590833Y-121990476D01*
X152495595Y-122038095D01*
X153971785Y-121752380D02*
X153495595Y-121752380D01*
X153447976Y-122228571D01*
X153495595Y-122180952D01*
X153590833Y-122133333D01*
X153828928Y-122133333D01*
X153924166Y-122180952D01*
X153971785Y-122228571D01*
X154019404Y-122323809D01*
X154019404Y-122561904D01*
X153971785Y-122657142D01*
X153924166Y-122704761D01*
X153828928Y-122752380D01*
X153590833Y-122752380D01*
X153495595Y-122704761D01*
X153447976Y-122657142D01*
%TO.C,R9*%
X148152380Y-103949166D02*
X147676190Y-104282500D01*
X148152380Y-104520595D02*
X147152380Y-104520595D01*
X147152380Y-104139642D01*
X147200000Y-104044404D01*
X147247619Y-103996785D01*
X147342857Y-103949166D01*
X147485714Y-103949166D01*
X147580952Y-103996785D01*
X147628571Y-104044404D01*
X147676190Y-104139642D01*
X147676190Y-104520595D01*
X148152380Y-103472976D02*
X148152380Y-103282500D01*
X148104761Y-103187261D01*
X148057142Y-103139642D01*
X147914285Y-103044404D01*
X147723809Y-102996785D01*
X147342857Y-102996785D01*
X147247619Y-103044404D01*
X147200000Y-103092023D01*
X147152380Y-103187261D01*
X147152380Y-103377738D01*
X147200000Y-103472976D01*
X147247619Y-103520595D01*
X147342857Y-103568214D01*
X147580952Y-103568214D01*
X147676190Y-103520595D01*
X147723809Y-103472976D01*
X147771428Y-103377738D01*
X147771428Y-103187261D01*
X147723809Y-103092023D01*
X147676190Y-103044404D01*
X147580952Y-102996785D01*
%TO.C,C6*%
X161742142Y-98591666D02*
X161789761Y-98639285D01*
X161837380Y-98782142D01*
X161837380Y-98877380D01*
X161789761Y-99020238D01*
X161694523Y-99115476D01*
X161599285Y-99163095D01*
X161408809Y-99210714D01*
X161265952Y-99210714D01*
X161075476Y-99163095D01*
X160980238Y-99115476D01*
X160885000Y-99020238D01*
X160837380Y-98877380D01*
X160837380Y-98782142D01*
X160885000Y-98639285D01*
X160932619Y-98591666D01*
X160837380Y-97734523D02*
X160837380Y-97925000D01*
X160885000Y-98020238D01*
X160932619Y-98067857D01*
X161075476Y-98163095D01*
X161265952Y-98210714D01*
X161646904Y-98210714D01*
X161742142Y-98163095D01*
X161789761Y-98115476D01*
X161837380Y-98020238D01*
X161837380Y-97829761D01*
X161789761Y-97734523D01*
X161742142Y-97686904D01*
X161646904Y-97639285D01*
X161408809Y-97639285D01*
X161313571Y-97686904D01*
X161265952Y-97734523D01*
X161218333Y-97829761D01*
X161218333Y-98020238D01*
X161265952Y-98115476D01*
X161313571Y-98163095D01*
X161408809Y-98210714D01*
%TO.C,J1*%
X145081666Y-105087380D02*
X145081666Y-105801666D01*
X145034047Y-105944523D01*
X144938809Y-106039761D01*
X144795952Y-106087380D01*
X144700714Y-106087380D01*
X146081666Y-106087380D02*
X145510238Y-106087380D01*
X145795952Y-106087380D02*
X145795952Y-105087380D01*
X145700714Y-105230238D01*
X145605476Y-105325476D01*
X145510238Y-105373095D01*
%TO.C,U1*%
X154918095Y-104510380D02*
X154918095Y-105319904D01*
X154965714Y-105415142D01*
X155013333Y-105462761D01*
X155108571Y-105510380D01*
X155299047Y-105510380D01*
X155394285Y-105462761D01*
X155441904Y-105415142D01*
X155489523Y-105319904D01*
X155489523Y-104510380D01*
X156489523Y-105510380D02*
X155918095Y-105510380D01*
X156203809Y-105510380D02*
X156203809Y-104510380D01*
X156108571Y-104653238D01*
X156013333Y-104748476D01*
X155918095Y-104796095D01*
%TO.C,R10*%
X167202380Y-107870357D02*
X166726190Y-108203690D01*
X167202380Y-108441785D02*
X166202380Y-108441785D01*
X166202380Y-108060833D01*
X166250000Y-107965595D01*
X166297619Y-107917976D01*
X166392857Y-107870357D01*
X166535714Y-107870357D01*
X166630952Y-107917976D01*
X166678571Y-107965595D01*
X166726190Y-108060833D01*
X166726190Y-108441785D01*
X167202380Y-106917976D02*
X167202380Y-107489404D01*
X167202380Y-107203690D02*
X166202380Y-107203690D01*
X166345238Y-107298928D01*
X166440476Y-107394166D01*
X166488095Y-107489404D01*
X166202380Y-106298928D02*
X166202380Y-106203690D01*
X166250000Y-106108452D01*
X166297619Y-106060833D01*
X166392857Y-106013214D01*
X166583333Y-105965595D01*
X166821428Y-105965595D01*
X167011904Y-106013214D01*
X167107142Y-106060833D01*
X167154761Y-106108452D01*
X167202380Y-106203690D01*
X167202380Y-106298928D01*
X167154761Y-106394166D01*
X167107142Y-106441785D01*
X167011904Y-106489404D01*
X166821428Y-106537023D01*
X166583333Y-106537023D01*
X166392857Y-106489404D01*
X166297619Y-106441785D01*
X166250000Y-106394166D01*
X166202380Y-106298928D01*
%TO.C,RV1*%
X162599761Y-112522380D02*
X162266428Y-112046190D01*
X162028333Y-112522380D02*
X162028333Y-111522380D01*
X162409285Y-111522380D01*
X162504523Y-111570000D01*
X162552142Y-111617619D01*
X162599761Y-111712857D01*
X162599761Y-111855714D01*
X162552142Y-111950952D01*
X162504523Y-111998571D01*
X162409285Y-112046190D01*
X162028333Y-112046190D01*
X162885476Y-111522380D02*
X163218809Y-112522380D01*
X163552142Y-111522380D01*
X164409285Y-112522380D02*
X163837857Y-112522380D01*
X164123571Y-112522380D02*
X164123571Y-111522380D01*
X164028333Y-111665238D01*
X163933095Y-111760476D01*
X163837857Y-111808095D01*
%TO.C,D1*%
X154836904Y-114792380D02*
X154836904Y-113792380D01*
X155075000Y-113792380D01*
X155217857Y-113840000D01*
X155313095Y-113935238D01*
X155360714Y-114030476D01*
X155408333Y-114220952D01*
X155408333Y-114363809D01*
X155360714Y-114554285D01*
X155313095Y-114649523D01*
X155217857Y-114744761D01*
X155075000Y-114792380D01*
X154836904Y-114792380D01*
X156360714Y-114792380D02*
X155789285Y-114792380D01*
X156075000Y-114792380D02*
X156075000Y-113792380D01*
X155979761Y-113935238D01*
X155884523Y-114030476D01*
X155789285Y-114078095D01*
%TO.C,U2*%
X157353095Y-101277380D02*
X157353095Y-102086904D01*
X157400714Y-102182142D01*
X157448333Y-102229761D01*
X157543571Y-102277380D01*
X157734047Y-102277380D01*
X157829285Y-102229761D01*
X157876904Y-102182142D01*
X157924523Y-102086904D01*
X157924523Y-101277380D01*
X158353095Y-101372619D02*
X158400714Y-101325000D01*
X158495952Y-101277380D01*
X158734047Y-101277380D01*
X158829285Y-101325000D01*
X158876904Y-101372619D01*
X158924523Y-101467857D01*
X158924523Y-101563095D01*
X158876904Y-101705952D01*
X158305476Y-102277380D01*
X158924523Y-102277380D01*
%TO.C,R12*%
X160092380Y-106322857D02*
X159616190Y-106656190D01*
X160092380Y-106894285D02*
X159092380Y-106894285D01*
X159092380Y-106513333D01*
X159140000Y-106418095D01*
X159187619Y-106370476D01*
X159282857Y-106322857D01*
X159425714Y-106322857D01*
X159520952Y-106370476D01*
X159568571Y-106418095D01*
X159616190Y-106513333D01*
X159616190Y-106894285D01*
X160092380Y-105370476D02*
X160092380Y-105941904D01*
X160092380Y-105656190D02*
X159092380Y-105656190D01*
X159235238Y-105751428D01*
X159330476Y-105846666D01*
X159378095Y-105941904D01*
X159187619Y-104989523D02*
X159140000Y-104941904D01*
X159092380Y-104846666D01*
X159092380Y-104608571D01*
X159140000Y-104513333D01*
X159187619Y-104465714D01*
X159282857Y-104418095D01*
X159378095Y-104418095D01*
X159520952Y-104465714D01*
X160092380Y-105037142D01*
X160092380Y-104418095D01*
%TO.C,J6*%
X145716666Y-119742380D02*
X145716666Y-120456666D01*
X145669047Y-120599523D01*
X145573809Y-120694761D01*
X145430952Y-120742380D01*
X145335714Y-120742380D01*
X146621428Y-119742380D02*
X146430952Y-119742380D01*
X146335714Y-119790000D01*
X146288095Y-119837619D01*
X146192857Y-119980476D01*
X146145238Y-120170952D01*
X146145238Y-120551904D01*
X146192857Y-120647142D01*
X146240476Y-120694761D01*
X146335714Y-120742380D01*
X146526190Y-120742380D01*
X146621428Y-120694761D01*
X146669047Y-120647142D01*
X146716666Y-120551904D01*
X146716666Y-120313809D01*
X146669047Y-120218571D01*
X146621428Y-120170952D01*
X146526190Y-120123333D01*
X146335714Y-120123333D01*
X146240476Y-120170952D01*
X146192857Y-120218571D01*
X146145238Y-120313809D01*
%TO.C,C8*%
X147788333Y-93797142D02*
X147740714Y-93844761D01*
X147597857Y-93892380D01*
X147502619Y-93892380D01*
X147359761Y-93844761D01*
X147264523Y-93749523D01*
X147216904Y-93654285D01*
X147169285Y-93463809D01*
X147169285Y-93320952D01*
X147216904Y-93130476D01*
X147264523Y-93035238D01*
X147359761Y-92940000D01*
X147502619Y-92892380D01*
X147597857Y-92892380D01*
X147740714Y-92940000D01*
X147788333Y-92987619D01*
X148359761Y-93320952D02*
X148264523Y-93273333D01*
X148216904Y-93225714D01*
X148169285Y-93130476D01*
X148169285Y-93082857D01*
X148216904Y-92987619D01*
X148264523Y-92940000D01*
X148359761Y-92892380D01*
X148550238Y-92892380D01*
X148645476Y-92940000D01*
X148693095Y-92987619D01*
X148740714Y-93082857D01*
X148740714Y-93130476D01*
X148693095Y-93225714D01*
X148645476Y-93273333D01*
X148550238Y-93320952D01*
X148359761Y-93320952D01*
X148264523Y-93368571D01*
X148216904Y-93416190D01*
X148169285Y-93511428D01*
X148169285Y-93701904D01*
X148216904Y-93797142D01*
X148264523Y-93844761D01*
X148359761Y-93892380D01*
X148550238Y-93892380D01*
X148645476Y-93844761D01*
X148693095Y-93797142D01*
X148740714Y-93701904D01*
X148740714Y-93511428D01*
X148693095Y-93416190D01*
X148645476Y-93368571D01*
X148550238Y-93320952D01*
%TO.C,C9*%
X163028333Y-117562142D02*
X162980714Y-117609761D01*
X162837857Y-117657380D01*
X162742619Y-117657380D01*
X162599761Y-117609761D01*
X162504523Y-117514523D01*
X162456904Y-117419285D01*
X162409285Y-117228809D01*
X162409285Y-117085952D01*
X162456904Y-116895476D01*
X162504523Y-116800238D01*
X162599761Y-116705000D01*
X162742619Y-116657380D01*
X162837857Y-116657380D01*
X162980714Y-116705000D01*
X163028333Y-116752619D01*
X163504523Y-117657380D02*
X163695000Y-117657380D01*
X163790238Y-117609761D01*
X163837857Y-117562142D01*
X163933095Y-117419285D01*
X163980714Y-117228809D01*
X163980714Y-116847857D01*
X163933095Y-116752619D01*
X163885476Y-116705000D01*
X163790238Y-116657380D01*
X163599761Y-116657380D01*
X163504523Y-116705000D01*
X163456904Y-116752619D01*
X163409285Y-116847857D01*
X163409285Y-117085952D01*
X163456904Y-117181190D01*
X163504523Y-117228809D01*
X163599761Y-117276428D01*
X163790238Y-117276428D01*
X163885476Y-117228809D01*
X163933095Y-117181190D01*
X163980714Y-117085952D01*
%TO.C,R5*%
X149058333Y-110677380D02*
X148725000Y-110201190D01*
X148486904Y-110677380D02*
X148486904Y-109677380D01*
X148867857Y-109677380D01*
X148963095Y-109725000D01*
X149010714Y-109772619D01*
X149058333Y-109867857D01*
X149058333Y-110010714D01*
X149010714Y-110105952D01*
X148963095Y-110153571D01*
X148867857Y-110201190D01*
X148486904Y-110201190D01*
X149963095Y-109677380D02*
X149486904Y-109677380D01*
X149439285Y-110153571D01*
X149486904Y-110105952D01*
X149582142Y-110058333D01*
X149820238Y-110058333D01*
X149915476Y-110105952D01*
X149963095Y-110153571D01*
X150010714Y-110248809D01*
X150010714Y-110486904D01*
X149963095Y-110582142D01*
X149915476Y-110629761D01*
X149820238Y-110677380D01*
X149582142Y-110677380D01*
X149486904Y-110629761D01*
X149439285Y-110582142D01*
%TO.C,R6*%
X149058333Y-103577380D02*
X148725000Y-103101190D01*
X148486904Y-103577380D02*
X148486904Y-102577380D01*
X148867857Y-102577380D01*
X148963095Y-102625000D01*
X149010714Y-102672619D01*
X149058333Y-102767857D01*
X149058333Y-102910714D01*
X149010714Y-103005952D01*
X148963095Y-103053571D01*
X148867857Y-103101190D01*
X148486904Y-103101190D01*
X149915476Y-102577380D02*
X149725000Y-102577380D01*
X149629761Y-102625000D01*
X149582142Y-102672619D01*
X149486904Y-102815476D01*
X149439285Y-103005952D01*
X149439285Y-103386904D01*
X149486904Y-103482142D01*
X149534523Y-103529761D01*
X149629761Y-103577380D01*
X149820238Y-103577380D01*
X149915476Y-103529761D01*
X149963095Y-103482142D01*
X150010714Y-103386904D01*
X150010714Y-103148809D01*
X149963095Y-103053571D01*
X149915476Y-103005952D01*
X149820238Y-102958333D01*
X149629761Y-102958333D01*
X149534523Y-103005952D01*
X149486904Y-103053571D01*
X149439285Y-103148809D01*
%TO.C,C1*%
X149058333Y-122042142D02*
X149010714Y-122089761D01*
X148867857Y-122137380D01*
X148772619Y-122137380D01*
X148629761Y-122089761D01*
X148534523Y-121994523D01*
X148486904Y-121899285D01*
X148439285Y-121708809D01*
X148439285Y-121565952D01*
X148486904Y-121375476D01*
X148534523Y-121280238D01*
X148629761Y-121185000D01*
X148772619Y-121137380D01*
X148867857Y-121137380D01*
X149010714Y-121185000D01*
X149058333Y-121232619D01*
X150010714Y-122137380D02*
X149439285Y-122137380D01*
X149725000Y-122137380D02*
X149725000Y-121137380D01*
X149629761Y-121280238D01*
X149534523Y-121375476D01*
X149439285Y-121423095D01*
%TO.C,C4*%
X158583333Y-106177142D02*
X158535714Y-106224761D01*
X158392857Y-106272380D01*
X158297619Y-106272380D01*
X158154761Y-106224761D01*
X158059523Y-106129523D01*
X158011904Y-106034285D01*
X157964285Y-105843809D01*
X157964285Y-105700952D01*
X158011904Y-105510476D01*
X158059523Y-105415238D01*
X158154761Y-105320000D01*
X158297619Y-105272380D01*
X158392857Y-105272380D01*
X158535714Y-105320000D01*
X158583333Y-105367619D01*
X159440476Y-105605714D02*
X159440476Y-106272380D01*
X159202380Y-105224761D02*
X158964285Y-105939047D01*
X159583333Y-105939047D01*
%TO.C,R7*%
X151837380Y-101131666D02*
X151361190Y-101465000D01*
X151837380Y-101703095D02*
X150837380Y-101703095D01*
X150837380Y-101322142D01*
X150885000Y-101226904D01*
X150932619Y-101179285D01*
X151027857Y-101131666D01*
X151170714Y-101131666D01*
X151265952Y-101179285D01*
X151313571Y-101226904D01*
X151361190Y-101322142D01*
X151361190Y-101703095D01*
X150837380Y-100798333D02*
X150837380Y-100131666D01*
X151837380Y-100560238D01*
%TO.C,R4*%
X149415833Y-116912380D02*
X149082500Y-116436190D01*
X148844404Y-116912380D02*
X148844404Y-115912380D01*
X149225357Y-115912380D01*
X149320595Y-115960000D01*
X149368214Y-116007619D01*
X149415833Y-116102857D01*
X149415833Y-116245714D01*
X149368214Y-116340952D01*
X149320595Y-116388571D01*
X149225357Y-116436190D01*
X148844404Y-116436190D01*
X150272976Y-116245714D02*
X150272976Y-116912380D01*
X150034880Y-115864761D02*
X149796785Y-116579047D01*
X150415833Y-116579047D01*
%TO.C,R14*%
X160647142Y-116357380D02*
X160313809Y-115881190D01*
X160075714Y-116357380D02*
X160075714Y-115357380D01*
X160456666Y-115357380D01*
X160551904Y-115405000D01*
X160599523Y-115452619D01*
X160647142Y-115547857D01*
X160647142Y-115690714D01*
X160599523Y-115785952D01*
X160551904Y-115833571D01*
X160456666Y-115881190D01*
X160075714Y-115881190D01*
X161599523Y-116357380D02*
X161028095Y-116357380D01*
X161313809Y-116357380D02*
X161313809Y-115357380D01*
X161218571Y-115500238D01*
X161123333Y-115595476D01*
X161028095Y-115643095D01*
X162456666Y-115690714D02*
X162456666Y-116357380D01*
X162218571Y-115309761D02*
X161980476Y-116024047D01*
X162599523Y-116024047D01*
%TO.C,R13*%
X161559642Y-110007380D02*
X161226309Y-109531190D01*
X160988214Y-110007380D02*
X160988214Y-109007380D01*
X161369166Y-109007380D01*
X161464404Y-109055000D01*
X161512023Y-109102619D01*
X161559642Y-109197857D01*
X161559642Y-109340714D01*
X161512023Y-109435952D01*
X161464404Y-109483571D01*
X161369166Y-109531190D01*
X160988214Y-109531190D01*
X162512023Y-110007380D02*
X161940595Y-110007380D01*
X162226309Y-110007380D02*
X162226309Y-109007380D01*
X162131071Y-109150238D01*
X162035833Y-109245476D01*
X161940595Y-109293095D01*
X162845357Y-109007380D02*
X163464404Y-109007380D01*
X163131071Y-109388333D01*
X163273928Y-109388333D01*
X163369166Y-109435952D01*
X163416785Y-109483571D01*
X163464404Y-109578809D01*
X163464404Y-109816904D01*
X163416785Y-109912142D01*
X163369166Y-109959761D01*
X163273928Y-110007380D01*
X162988214Y-110007380D01*
X162892976Y-109959761D01*
X162845357Y-109912142D01*
%TO.C,R8*%
X153860833Y-106242380D02*
X153527500Y-105766190D01*
X153289404Y-106242380D02*
X153289404Y-105242380D01*
X153670357Y-105242380D01*
X153765595Y-105290000D01*
X153813214Y-105337619D01*
X153860833Y-105432857D01*
X153860833Y-105575714D01*
X153813214Y-105670952D01*
X153765595Y-105718571D01*
X153670357Y-105766190D01*
X153289404Y-105766190D01*
X154432261Y-105670952D02*
X154337023Y-105623333D01*
X154289404Y-105575714D01*
X154241785Y-105480476D01*
X154241785Y-105432857D01*
X154289404Y-105337619D01*
X154337023Y-105290000D01*
X154432261Y-105242380D01*
X154622738Y-105242380D01*
X154717976Y-105290000D01*
X154765595Y-105337619D01*
X154813214Y-105432857D01*
X154813214Y-105480476D01*
X154765595Y-105575714D01*
X154717976Y-105623333D01*
X154622738Y-105670952D01*
X154432261Y-105670952D01*
X154337023Y-105718571D01*
X154289404Y-105766190D01*
X154241785Y-105861428D01*
X154241785Y-106051904D01*
X154289404Y-106147142D01*
X154337023Y-106194761D01*
X154432261Y-106242380D01*
X154622738Y-106242380D01*
X154717976Y-106194761D01*
X154765595Y-106147142D01*
X154813214Y-106051904D01*
X154813214Y-105861428D01*
X154765595Y-105766190D01*
X154717976Y-105718571D01*
X154622738Y-105670952D01*
%TO.C,C3*%
X162073333Y-110892142D02*
X162025714Y-110939761D01*
X161882857Y-110987380D01*
X161787619Y-110987380D01*
X161644761Y-110939761D01*
X161549523Y-110844523D01*
X161501904Y-110749285D01*
X161454285Y-110558809D01*
X161454285Y-110415952D01*
X161501904Y-110225476D01*
X161549523Y-110130238D01*
X161644761Y-110035000D01*
X161787619Y-109987380D01*
X161882857Y-109987380D01*
X162025714Y-110035000D01*
X162073333Y-110082619D01*
X162406666Y-109987380D02*
X163025714Y-109987380D01*
X162692380Y-110368333D01*
X162835238Y-110368333D01*
X162930476Y-110415952D01*
X162978095Y-110463571D01*
X163025714Y-110558809D01*
X163025714Y-110796904D01*
X162978095Y-110892142D01*
X162930476Y-110939761D01*
X162835238Y-110987380D01*
X162549523Y-110987380D01*
X162454285Y-110939761D01*
X162406666Y-110892142D01*
%TO.C,R1*%
X149058333Y-114997380D02*
X148725000Y-114521190D01*
X148486904Y-114997380D02*
X148486904Y-113997380D01*
X148867857Y-113997380D01*
X148963095Y-114045000D01*
X149010714Y-114092619D01*
X149058333Y-114187857D01*
X149058333Y-114330714D01*
X149010714Y-114425952D01*
X148963095Y-114473571D01*
X148867857Y-114521190D01*
X148486904Y-114521190D01*
X150010714Y-114997380D02*
X149439285Y-114997380D01*
X149725000Y-114997380D02*
X149725000Y-113997380D01*
X149629761Y-114140238D01*
X149534523Y-114235476D01*
X149439285Y-114283095D01*
%TO.C,C2*%
X149058333Y-105357142D02*
X149010714Y-105404761D01*
X148867857Y-105452380D01*
X148772619Y-105452380D01*
X148629761Y-105404761D01*
X148534523Y-105309523D01*
X148486904Y-105214285D01*
X148439285Y-105023809D01*
X148439285Y-104880952D01*
X148486904Y-104690476D01*
X148534523Y-104595238D01*
X148629761Y-104500000D01*
X148772619Y-104452380D01*
X148867857Y-104452380D01*
X149010714Y-104500000D01*
X149058333Y-104547619D01*
X149439285Y-104547619D02*
X149486904Y-104500000D01*
X149582142Y-104452380D01*
X149820238Y-104452380D01*
X149915476Y-104500000D01*
X149963095Y-104547619D01*
X150010714Y-104642857D01*
X150010714Y-104738095D01*
X149963095Y-104880952D01*
X149391666Y-105452380D01*
X150010714Y-105452380D01*
%TO.C,C5*%
X149058333Y-112517142D02*
X149010714Y-112564761D01*
X148867857Y-112612380D01*
X148772619Y-112612380D01*
X148629761Y-112564761D01*
X148534523Y-112469523D01*
X148486904Y-112374285D01*
X148439285Y-112183809D01*
X148439285Y-112040952D01*
X148486904Y-111850476D01*
X148534523Y-111755238D01*
X148629761Y-111660000D01*
X148772619Y-111612380D01*
X148867857Y-111612380D01*
X149010714Y-111660000D01*
X149058333Y-111707619D01*
X149963095Y-111612380D02*
X149486904Y-111612380D01*
X149439285Y-112088571D01*
X149486904Y-112040952D01*
X149582142Y-111993333D01*
X149820238Y-111993333D01*
X149915476Y-112040952D01*
X149963095Y-112088571D01*
X150010714Y-112183809D01*
X150010714Y-112421904D01*
X149963095Y-112517142D01*
X149915476Y-112564761D01*
X149820238Y-112612380D01*
X149582142Y-112612380D01*
X149486904Y-112564761D01*
X149439285Y-112517142D01*
%TO.C,R2*%
X149058333Y-113092380D02*
X148725000Y-112616190D01*
X148486904Y-113092380D02*
X148486904Y-112092380D01*
X148867857Y-112092380D01*
X148963095Y-112140000D01*
X149010714Y-112187619D01*
X149058333Y-112282857D01*
X149058333Y-112425714D01*
X149010714Y-112520952D01*
X148963095Y-112568571D01*
X148867857Y-112616190D01*
X148486904Y-112616190D01*
X149439285Y-112187619D02*
X149486904Y-112140000D01*
X149582142Y-112092380D01*
X149820238Y-112092380D01*
X149915476Y-112140000D01*
X149963095Y-112187619D01*
X150010714Y-112282857D01*
X150010714Y-112378095D01*
X149963095Y-112520952D01*
X149391666Y-113092380D01*
X150010714Y-113092380D01*
%TO.C,R3*%
X149058333Y-114487380D02*
X148725000Y-114011190D01*
X148486904Y-114487380D02*
X148486904Y-113487380D01*
X148867857Y-113487380D01*
X148963095Y-113535000D01*
X149010714Y-113582619D01*
X149058333Y-113677857D01*
X149058333Y-113820714D01*
X149010714Y-113915952D01*
X148963095Y-113963571D01*
X148867857Y-114011190D01*
X148486904Y-114011190D01*
X149391666Y-113487380D02*
X150010714Y-113487380D01*
X149677380Y-113868333D01*
X149820238Y-113868333D01*
X149915476Y-113915952D01*
X149963095Y-113963571D01*
X150010714Y-114058809D01*
X150010714Y-114296904D01*
X149963095Y-114392142D01*
X149915476Y-114439761D01*
X149820238Y-114487380D01*
X149534523Y-114487380D01*
X149439285Y-114439761D01*
X149391666Y-114392142D01*
D11*
%TO.C,R11*%
X162460000Y-105907064D02*
X162460000Y-105452936D01*
X163930000Y-105907064D02*
X163930000Y-105452936D01*
%TO.C,J3*%
X152415000Y-125155000D02*
X157555000Y-125155000D01*
X152415000Y-125155000D02*
X152415000Y-122495000D01*
X149815000Y-125155000D02*
X149815000Y-123825000D01*
X157555000Y-125155000D02*
X157555000Y-122495000D01*
X152415000Y-122495000D02*
X157555000Y-122495000D01*
X151145000Y-125155000D02*
X149815000Y-125155000D01*
%TO.C,R15*%
X152984564Y-121385000D02*
X152530436Y-121385000D01*
X152984564Y-119915000D02*
X152530436Y-119915000D01*
%TO.C,R9*%
X146785000Y-103555436D02*
X146785000Y-104009564D01*
X145315000Y-103555436D02*
X145315000Y-104009564D01*
%TO.C,C6*%
X163389437Y-101835000D02*
X164675000Y-101835000D01*
X162325000Y-95015000D02*
X164675000Y-95015000D01*
X168080563Y-101835000D02*
X166795000Y-101835000D01*
X163493750Y-102468750D02*
X164281250Y-102468750D01*
X168080563Y-101835000D02*
X169145000Y-100770563D01*
X163389437Y-101835000D02*
X162325000Y-100770563D01*
X163887500Y-102862500D02*
X163887500Y-102075000D01*
X169145000Y-100770563D02*
X169145000Y-95015000D01*
X162325000Y-100770563D02*
X162325000Y-95015000D01*
X169145000Y-95015000D02*
X166795000Y-95015000D01*
%TO.C,J1*%
X144085000Y-107965000D02*
X144085000Y-106635000D01*
X144085000Y-114375000D02*
X146745000Y-114375000D01*
X146745000Y-109235000D02*
X146745000Y-114375000D01*
X144085000Y-109235000D02*
X146745000Y-109235000D01*
X144085000Y-109235000D02*
X144085000Y-114375000D01*
X144085000Y-106635000D02*
X145415000Y-106635000D01*
D12*
%TO.C,U1*%
X154260000Y-114915000D02*
X158160000Y-114915000D01*
X154260000Y-106065000D02*
X158160000Y-106065000D01*
D13*
X152105000Y-106070000D02*
G75*
G03*
X152105000Y-106070000I-100000J0D01*
G01*
D11*
%TO.C,R10*%
X165835000Y-107000436D02*
X165835000Y-107454564D01*
X164365000Y-107000436D02*
X164365000Y-107454564D01*
%TO.C,RV1*%
X165095000Y-116170000D02*
X165095000Y-115570000D01*
X165095000Y-112970000D02*
X165095000Y-113570000D01*
X161095000Y-114370000D02*
X161095000Y-114770000D01*
X161295000Y-112770000D02*
X160595000Y-112770000D01*
X160595000Y-112770000D02*
X160595000Y-113470000D01*
X162195000Y-116170000D02*
X165095000Y-116170000D01*
X162195000Y-112970000D02*
X165095000Y-112970000D01*
%TO.C,D1*%
X152175000Y-115190000D02*
X157575000Y-115190000D01*
X152175000Y-118490000D02*
X157575000Y-118490000D01*
X152175000Y-115190000D02*
X152175000Y-118490000D01*
%TO.C,U2*%
X158115000Y-95865000D02*
X160065000Y-95865000D01*
X158115000Y-100985000D02*
X161565000Y-100985000D01*
X158115000Y-100985000D02*
X156165000Y-100985000D01*
X158115000Y-95865000D02*
X156165000Y-95865000D01*
%TO.C,R12*%
X162025000Y-105907064D02*
X162025000Y-105452936D01*
X160555000Y-105907064D02*
X160555000Y-105452936D01*
%TO.C,C8*%
X143517500Y-95942500D02*
X144305000Y-95942500D01*
X144545000Y-100135563D02*
X145609437Y-101200000D01*
X145609437Y-101200000D02*
X151365000Y-101200000D01*
X151365000Y-101200000D02*
X151365000Y-98850000D01*
X143911250Y-95548750D02*
X143911250Y-96336250D01*
X145609437Y-94380000D02*
X151365000Y-94380000D01*
X144545000Y-100135563D02*
X144545000Y-98850000D01*
X151365000Y-94380000D02*
X151365000Y-96730000D01*
X144545000Y-95444437D02*
X144545000Y-96730000D01*
X144545000Y-95444437D02*
X145609437Y-94380000D01*
%TO.C,C9*%
X159785000Y-119654437D02*
X160849437Y-118590000D01*
X160849437Y-125410000D02*
X166605000Y-125410000D01*
X160849437Y-118590000D02*
X166605000Y-118590000D01*
X166605000Y-118590000D02*
X166605000Y-120940000D01*
X159151250Y-119758750D02*
X159151250Y-120546250D01*
X159785000Y-124345563D02*
X159785000Y-123060000D01*
X159785000Y-124345563D02*
X160849437Y-125410000D01*
X159785000Y-119654437D02*
X159785000Y-120940000D01*
X166605000Y-125410000D02*
X166605000Y-123060000D01*
X158757500Y-120152500D02*
X159545000Y-120152500D01*
%TO.C,R5*%
X149452064Y-109310000D02*
X148997936Y-109310000D01*
X149452064Y-107840000D02*
X148997936Y-107840000D01*
%TO.C,R6*%
X148997936Y-104040000D02*
X149452064Y-104040000D01*
X148997936Y-105510000D02*
X149452064Y-105510000D01*
%TO.C,C1*%
X149486252Y-119270000D02*
X148963748Y-119270000D01*
X149486252Y-120740000D02*
X148963748Y-120740000D01*
%TO.C,C4*%
X159011252Y-104875000D02*
X158488748Y-104875000D01*
X159011252Y-103405000D02*
X158488748Y-103405000D01*
%TO.C,R7*%
X152300000Y-101192064D02*
X152300000Y-100737936D01*
X153770000Y-101192064D02*
X153770000Y-100737936D01*
%TO.C,R4*%
X149355436Y-118845000D02*
X149809564Y-118845000D01*
X149355436Y-117375000D02*
X149809564Y-117375000D01*
%TO.C,R14*%
X161062936Y-116820000D02*
X161517064Y-116820000D01*
X161062936Y-118290000D02*
X161517064Y-118290000D01*
%TO.C,R13*%
X161975436Y-110470000D02*
X162429564Y-110470000D01*
X161975436Y-111940000D02*
X162429564Y-111940000D01*
%TO.C,R8*%
X154254564Y-104875000D02*
X153800436Y-104875000D01*
X154254564Y-103405000D02*
X153800436Y-103405000D01*
%TO.C,C3*%
X162501252Y-108120000D02*
X161978748Y-108120000D01*
X162501252Y-109590000D02*
X161978748Y-109590000D01*
%TO.C,R1*%
X148997936Y-115460000D02*
X149452064Y-115460000D01*
X148997936Y-116930000D02*
X149452064Y-116930000D01*
%TO.C,C2*%
X148963748Y-107415000D02*
X149486252Y-107415000D01*
X148963748Y-105945000D02*
X149486252Y-105945000D01*
%TO.C,C5*%
X149486252Y-111215000D02*
X148963748Y-111215000D01*
X149486252Y-109745000D02*
X148963748Y-109745000D01*
%TO.C,R2*%
X148997936Y-115025000D02*
X149452064Y-115025000D01*
X148997936Y-113555000D02*
X149452064Y-113555000D01*
%TO.C,R3*%
X149452064Y-113120000D02*
X148997936Y-113120000D01*
X149452064Y-111650000D02*
X148997936Y-111650000D01*
%TD*%
M02*
