%TF.GenerationSoftware,KiCad,Pcbnew,(6.0.7-1)-1*%
%TF.CreationDate,2023-04-05T16:12:29-04:00*%
%TF.ProjectId,Seth'sEMG,53657468-2773-4454-9d47-2e6b69636164,rev?*%
%TF.SameCoordinates,Original*%
%TF.FileFunction,Copper,L2,Bot*%
%TF.FilePolarity,Positive*%
%FSLAX46Y46*%
G04 Gerber Fmt 4.6, Leading zero omitted, Abs format (unit mm)*
G04 Created by KiCad (PCBNEW (6.0.7-1)-1) date 2023-04-05 16:12:29*
%MOMM*%
%LPD*%
G01*
G04 APERTURE LIST*
%TA.AperFunction,ComponentPad*%
%ADD10R,1.700000X1.700000*%
%TD*%
%TA.AperFunction,ComponentPad*%
%ADD11O,1.700000X1.700000*%
%TD*%
%TA.AperFunction,ComponentPad*%
%ADD12C,3.800000*%
%TD*%
%TA.AperFunction,ViaPad*%
%ADD13C,0.800000*%
%TD*%
%TA.AperFunction,Conductor*%
%ADD14C,0.250000*%
%TD*%
G04 APERTURE END LIST*
D10*
%TO.P,J3,1*%
%TO.N,+5V*%
X151145000Y-123825000D03*
D11*
%TO.P,J3,2*%
%TO.N,GND*%
X153685000Y-123825000D03*
%TO.P,J3,3*%
%TO.N,Net-(C9-Pad1)*%
X156225000Y-123825000D03*
%TD*%
D12*
%TO.P,J5,1,1*%
%TO.N,GND*%
X156210000Y-93345000D03*
%TD*%
D10*
%TO.P,J1,1*%
%TO.N,GND*%
X145415000Y-107965000D03*
D11*
%TO.P,J1,2*%
%TO.N,Net-(J1-Pad2)*%
X145415000Y-110505000D03*
%TO.P,J1,3*%
%TO.N,Net-(J1-Pad3)*%
X145415000Y-113045000D03*
%TD*%
D12*
%TO.P,J6,1,1*%
%TO.N,GND*%
X146050000Y-123190000D03*
%TD*%
D13*
%TO.N,Net-(C1-Pad2)*%
X146050000Y-119380000D03*
X147320000Y-106045000D03*
%TO.N,Net-(C4-Pad2)*%
X160020000Y-102235000D03*
X165100000Y-105410000D03*
X156502000Y-104140000D03*
X144145000Y-105410000D03*
%TO.N,+5V*%
X155039702Y-109992591D03*
%TO.N,-5V*%
X158690000Y-110490000D03*
X157480000Y-96520000D03*
%TD*%
D14*
%TO.N,Net-(C1-Pad2)*%
X146050000Y-119380000D02*
X147320000Y-118110000D01*
X147320000Y-118110000D02*
X147320000Y-106045000D01*
%TO.N,Net-(C4-Pad2)*%
X165100000Y-105410000D02*
X161925000Y-105410000D01*
X161925000Y-105410000D02*
X160020000Y-103505000D01*
X156210000Y-104140000D02*
X156502000Y-104140000D01*
X160020000Y-103505000D02*
X160020000Y-102235000D01*
X144145000Y-105410000D02*
X145415000Y-104140000D01*
X145415000Y-104140000D02*
X156210000Y-104140000D01*
%TO.N,+5V*%
X151145000Y-123825000D02*
X151145000Y-116190000D01*
X156210000Y-111125000D02*
X155039702Y-109954702D01*
X151145000Y-116190000D02*
X156210000Y-111125000D01*
X155039702Y-109954702D02*
X155039702Y-109992591D01*
%TO.N,-5V*%
X158750000Y-105410000D02*
X158750000Y-97790000D01*
X157480000Y-106680000D02*
X158750000Y-105410000D01*
X157480000Y-109280000D02*
X158690000Y-110490000D01*
X157480000Y-109280000D02*
X157480000Y-106680000D01*
X158750000Y-97790000D02*
X157480000Y-96520000D01*
%TD*%
%TA.AperFunction,Conductor*%
%TO.N,GND*%
G36*
X170122121Y-90190002D02*
G01*
X170168614Y-90243658D01*
X170180000Y-90296000D01*
X170180000Y-126874000D01*
X170159998Y-126942121D01*
X170106342Y-126988614D01*
X170054000Y-127000000D01*
X142366000Y-127000000D01*
X142297879Y-126979998D01*
X142251386Y-126926342D01*
X142240000Y-126874000D01*
X142240000Y-125064394D01*
X144540314Y-125064394D01*
X144549143Y-125076014D01*
X144753970Y-125224830D01*
X144760650Y-125229070D01*
X145019234Y-125371228D01*
X145026369Y-125374585D01*
X145300746Y-125483219D01*
X145308237Y-125485653D01*
X145594059Y-125559039D01*
X145601830Y-125560521D01*
X145894570Y-125597503D01*
X145902460Y-125598000D01*
X146197540Y-125598000D01*
X146205430Y-125597503D01*
X146498170Y-125560521D01*
X146505941Y-125559039D01*
X146791763Y-125485653D01*
X146799254Y-125483219D01*
X147073631Y-125374585D01*
X147080766Y-125371228D01*
X147339350Y-125229070D01*
X147346030Y-125224830D01*
X147551230Y-125075744D01*
X147559653Y-125064821D01*
X147552749Y-125051960D01*
X147223923Y-124723134D01*
X149786500Y-124723134D01*
X149793255Y-124785316D01*
X149844385Y-124921705D01*
X149931739Y-125038261D01*
X150048295Y-125125615D01*
X150184684Y-125176745D01*
X150246866Y-125183500D01*
X152043134Y-125183500D01*
X152105316Y-125176745D01*
X152241705Y-125125615D01*
X152358261Y-125038261D01*
X152445615Y-124921705D01*
X152489798Y-124803848D01*
X152532440Y-124747084D01*
X152599001Y-124722384D01*
X152668350Y-124737592D01*
X152703017Y-124765580D01*
X152728218Y-124794673D01*
X152735580Y-124801883D01*
X152899434Y-124937916D01*
X152907881Y-124943831D01*
X153091756Y-125051279D01*
X153101042Y-125055729D01*
X153300001Y-125131703D01*
X153309899Y-125134579D01*
X153413250Y-125155606D01*
X153427299Y-125154410D01*
X153431000Y-125144065D01*
X153431000Y-125143517D01*
X153939000Y-125143517D01*
X153943064Y-125157359D01*
X153956478Y-125159393D01*
X153963184Y-125158534D01*
X153973262Y-125156392D01*
X154177255Y-125095191D01*
X154186842Y-125091433D01*
X154378095Y-124997739D01*
X154386945Y-124992464D01*
X154560328Y-124868792D01*
X154568200Y-124862139D01*
X154719052Y-124711812D01*
X154725730Y-124703965D01*
X154853022Y-124526819D01*
X154854279Y-124527722D01*
X154901373Y-124484362D01*
X154971311Y-124472145D01*
X155036751Y-124499678D01*
X155064579Y-124531511D01*
X155124987Y-124630088D01*
X155271250Y-124798938D01*
X155443126Y-124941632D01*
X155636000Y-125054338D01*
X155640825Y-125056180D01*
X155640826Y-125056181D01*
X155692764Y-125076014D01*
X155844692Y-125134030D01*
X155849760Y-125135061D01*
X155849763Y-125135062D01*
X155944862Y-125154410D01*
X156063597Y-125178567D01*
X156068772Y-125178757D01*
X156068774Y-125178757D01*
X156281673Y-125186564D01*
X156281677Y-125186564D01*
X156286837Y-125186753D01*
X156291957Y-125186097D01*
X156291959Y-125186097D01*
X156503288Y-125159025D01*
X156503289Y-125159025D01*
X156508416Y-125158368D01*
X156513366Y-125156883D01*
X156717429Y-125095661D01*
X156717434Y-125095659D01*
X156722384Y-125094174D01*
X156922994Y-124995896D01*
X157104860Y-124866173D01*
X157263096Y-124708489D01*
X157275691Y-124690962D01*
X157390435Y-124531277D01*
X157393453Y-124527077D01*
X157406995Y-124499678D01*
X157490136Y-124331453D01*
X157490137Y-124331451D01*
X157492430Y-124326811D01*
X157557370Y-124113069D01*
X157586529Y-123891590D01*
X157588156Y-123825000D01*
X157569852Y-123602361D01*
X157515431Y-123385702D01*
X157426354Y-123180840D01*
X157305014Y-122993277D01*
X157154670Y-122828051D01*
X157150619Y-122824852D01*
X157150615Y-122824848D01*
X156983414Y-122692800D01*
X156983410Y-122692798D01*
X156979359Y-122689598D01*
X156943028Y-122669542D01*
X156927136Y-122660769D01*
X156783789Y-122581638D01*
X156778920Y-122579914D01*
X156778916Y-122579912D01*
X156578087Y-122508795D01*
X156578083Y-122508794D01*
X156573212Y-122507069D01*
X156568119Y-122506162D01*
X156568116Y-122506161D01*
X156358373Y-122468800D01*
X156358367Y-122468799D01*
X156353284Y-122467894D01*
X156279452Y-122466992D01*
X156135081Y-122465228D01*
X156135079Y-122465228D01*
X156129911Y-122465165D01*
X155909091Y-122498955D01*
X155696756Y-122568357D01*
X155498607Y-122671507D01*
X155494474Y-122674610D01*
X155494471Y-122674612D01*
X155324100Y-122802530D01*
X155319965Y-122805635D01*
X155165629Y-122967138D01*
X155162715Y-122971410D01*
X155162714Y-122971411D01*
X155057898Y-123125066D01*
X155002987Y-123170069D01*
X154932462Y-123178240D01*
X154868715Y-123146986D01*
X154848018Y-123122502D01*
X154767426Y-122997926D01*
X154761136Y-122989757D01*
X154617806Y-122832240D01*
X154610273Y-122825215D01*
X154443139Y-122693222D01*
X154434552Y-122687517D01*
X154248117Y-122584599D01*
X154238705Y-122580369D01*
X154037959Y-122509280D01*
X154027988Y-122506646D01*
X153956837Y-122493972D01*
X153943540Y-122495432D01*
X153939000Y-122509989D01*
X153939000Y-125143517D01*
X153431000Y-125143517D01*
X153431000Y-122508102D01*
X153427082Y-122494758D01*
X153412806Y-122492771D01*
X153374324Y-122498660D01*
X153364288Y-122501051D01*
X153161868Y-122567212D01*
X153152359Y-122571209D01*
X152963463Y-122669542D01*
X152954738Y-122675036D01*
X152784433Y-122802905D01*
X152776726Y-122809748D01*
X152699478Y-122890584D01*
X152637954Y-122926014D01*
X152567042Y-122922557D01*
X152509255Y-122881311D01*
X152490402Y-122847763D01*
X152448767Y-122736703D01*
X152445615Y-122728295D01*
X152358261Y-122611739D01*
X152241705Y-122524385D01*
X152105316Y-122473255D01*
X152043134Y-122466500D01*
X151904500Y-122466500D01*
X151836379Y-122446498D01*
X151789886Y-122392842D01*
X151778500Y-122340500D01*
X151778500Y-116504594D01*
X151798502Y-116436473D01*
X151815405Y-116415499D01*
X156607182Y-111623722D01*
X156625453Y-111608606D01*
X156625710Y-111608431D01*
X156632271Y-111603972D01*
X156669418Y-111561837D01*
X156674837Y-111556067D01*
X156686135Y-111544769D01*
X156688571Y-111541629D01*
X156695938Y-111532133D01*
X156700979Y-111526039D01*
X156732878Y-111489856D01*
X156732878Y-111489855D01*
X156738120Y-111483910D01*
X156741720Y-111476845D01*
X156741860Y-111476571D01*
X156754566Y-111456550D01*
X156754752Y-111456310D01*
X156754754Y-111456306D01*
X156759614Y-111450041D01*
X156781923Y-111398489D01*
X156785278Y-111391358D01*
X156810785Y-111341296D01*
X156812583Y-111333251D01*
X156819909Y-111310706D01*
X156820032Y-111310421D01*
X156823181Y-111303145D01*
X156831967Y-111247674D01*
X156833451Y-111239899D01*
X156843971Y-111192834D01*
X156845702Y-111185091D01*
X156845443Y-111176856D01*
X156846933Y-111153185D01*
X156846980Y-111152889D01*
X156846980Y-111152886D01*
X156848220Y-111145057D01*
X156846324Y-111125000D01*
X156842935Y-111089143D01*
X156842438Y-111081246D01*
X156840922Y-111033036D01*
X156840673Y-111025110D01*
X156838375Y-111017201D01*
X156833932Y-110993907D01*
X156833903Y-110993598D01*
X156833903Y-110993597D01*
X156833157Y-110985708D01*
X156814128Y-110932852D01*
X156811688Y-110925342D01*
X156798229Y-110879016D01*
X156798228Y-110879014D01*
X156796018Y-110871407D01*
X156791826Y-110864318D01*
X156781731Y-110842864D01*
X156781627Y-110842575D01*
X156781624Y-110842570D01*
X156778939Y-110835111D01*
X156747364Y-110788649D01*
X156743124Y-110781967D01*
X156741859Y-110779828D01*
X156714542Y-110733637D01*
X156708720Y-110727815D01*
X156693604Y-110709545D01*
X156693425Y-110709282D01*
X156688972Y-110702729D01*
X156683031Y-110697491D01*
X156683029Y-110697489D01*
X156646834Y-110665579D01*
X156641065Y-110660160D01*
X155982374Y-110001469D01*
X155948348Y-109939157D01*
X155946159Y-109925544D01*
X155933934Y-109809226D01*
X155933934Y-109809224D01*
X155933244Y-109802663D01*
X155874229Y-109621035D01*
X155778742Y-109455647D01*
X155707698Y-109376744D01*
X155655377Y-109318636D01*
X155655376Y-109318635D01*
X155650955Y-109313725D01*
X155551859Y-109241727D01*
X155501796Y-109205354D01*
X155501795Y-109205353D01*
X155496454Y-109201473D01*
X155490426Y-109198789D01*
X155490424Y-109198788D01*
X155328021Y-109126482D01*
X155328020Y-109126482D01*
X155321990Y-109123797D01*
X155228590Y-109103944D01*
X155141646Y-109085463D01*
X155141641Y-109085463D01*
X155135189Y-109084091D01*
X154944215Y-109084091D01*
X154937763Y-109085463D01*
X154937758Y-109085463D01*
X154850815Y-109103944D01*
X154757414Y-109123797D01*
X154751384Y-109126482D01*
X154751383Y-109126482D01*
X154588980Y-109198788D01*
X154588978Y-109198789D01*
X154582950Y-109201473D01*
X154577609Y-109205353D01*
X154577608Y-109205354D01*
X154527545Y-109241727D01*
X154428449Y-109313725D01*
X154424028Y-109318635D01*
X154424027Y-109318636D01*
X154371707Y-109376744D01*
X154300662Y-109455647D01*
X154205175Y-109621035D01*
X154146160Y-109802663D01*
X154145470Y-109809224D01*
X154145470Y-109809226D01*
X154143560Y-109827401D01*
X154126198Y-109992591D01*
X154126888Y-109999156D01*
X154139426Y-110118444D01*
X154146160Y-110182519D01*
X154205175Y-110364147D01*
X154300662Y-110529535D01*
X154428449Y-110671457D01*
X154582950Y-110783709D01*
X154588978Y-110786393D01*
X154588980Y-110786394D01*
X154751383Y-110858700D01*
X154757414Y-110861385D01*
X154840361Y-110879016D01*
X154937758Y-110899719D01*
X154937763Y-110899719D01*
X154944215Y-110901091D01*
X155037997Y-110901091D01*
X155106118Y-110921093D01*
X155127092Y-110937996D01*
X155225001Y-111035905D01*
X155259027Y-111098217D01*
X155253962Y-111169032D01*
X155225001Y-111214095D01*
X152986456Y-113452639D01*
X150752747Y-115686348D01*
X150744461Y-115693888D01*
X150737982Y-115698000D01*
X150732557Y-115703777D01*
X150691357Y-115747651D01*
X150688602Y-115750493D01*
X150668865Y-115770230D01*
X150666385Y-115773427D01*
X150658682Y-115782447D01*
X150628414Y-115814679D01*
X150624595Y-115821625D01*
X150624593Y-115821628D01*
X150618652Y-115832434D01*
X150607801Y-115848953D01*
X150595386Y-115864959D01*
X150592241Y-115872228D01*
X150592238Y-115872232D01*
X150577826Y-115905537D01*
X150572609Y-115916187D01*
X150551305Y-115954940D01*
X150549334Y-115962615D01*
X150549334Y-115962616D01*
X150546267Y-115974562D01*
X150539863Y-115993266D01*
X150531819Y-116011855D01*
X150530580Y-116019678D01*
X150530577Y-116019688D01*
X150524901Y-116055524D01*
X150522495Y-116067144D01*
X150511500Y-116109970D01*
X150511500Y-116130224D01*
X150509949Y-116149934D01*
X150506780Y-116169943D01*
X150507526Y-116177835D01*
X150510941Y-116213961D01*
X150511500Y-116225819D01*
X150511500Y-122340500D01*
X150491498Y-122408621D01*
X150437842Y-122455114D01*
X150385500Y-122466500D01*
X150246866Y-122466500D01*
X150184684Y-122473255D01*
X150048295Y-122524385D01*
X149931739Y-122611739D01*
X149844385Y-122728295D01*
X149793255Y-122864684D01*
X149786500Y-122926866D01*
X149786500Y-124723134D01*
X147223923Y-124723134D01*
X146062810Y-123562020D01*
X146048869Y-123554408D01*
X146047034Y-123554539D01*
X146040420Y-123558790D01*
X144546927Y-125052284D01*
X144540314Y-125064394D01*
X142240000Y-125064394D01*
X142240000Y-123193958D01*
X143637488Y-123193958D01*
X143656015Y-123488436D01*
X143657008Y-123496297D01*
X143712296Y-123786128D01*
X143714267Y-123793805D01*
X143805446Y-124074424D01*
X143808361Y-124081787D01*
X143933993Y-124348770D01*
X143937805Y-124355703D01*
X144095909Y-124604835D01*
X144100563Y-124611241D01*
X144165521Y-124689761D01*
X144178040Y-124698217D01*
X144188778Y-124692011D01*
X145677980Y-123202810D01*
X145684357Y-123191131D01*
X146414408Y-123191131D01*
X146414539Y-123192966D01*
X146418790Y-123199580D01*
X147910119Y-124690908D01*
X147923381Y-124698150D01*
X147933485Y-124690962D01*
X147999437Y-124611241D01*
X148004091Y-124604835D01*
X148162195Y-124355703D01*
X148166007Y-124348770D01*
X148291639Y-124081787D01*
X148294554Y-124074424D01*
X148385733Y-123793805D01*
X148387704Y-123786128D01*
X148442992Y-123496297D01*
X148443985Y-123488436D01*
X148462512Y-123193958D01*
X148462512Y-123186042D01*
X148443985Y-122891564D01*
X148442992Y-122883703D01*
X148387704Y-122593872D01*
X148385733Y-122586195D01*
X148294554Y-122305576D01*
X148291639Y-122298213D01*
X148166007Y-122031230D01*
X148162195Y-122024297D01*
X148004091Y-121775165D01*
X147999437Y-121768759D01*
X147934479Y-121690239D01*
X147921960Y-121681783D01*
X147911222Y-121687989D01*
X146422020Y-123177190D01*
X146414408Y-123191131D01*
X145684357Y-123191131D01*
X145685592Y-123188869D01*
X145685461Y-123187034D01*
X145681210Y-123180420D01*
X144189881Y-121689092D01*
X144176619Y-121681850D01*
X144166515Y-121689038D01*
X144100563Y-121768759D01*
X144095909Y-121775165D01*
X143937805Y-122024297D01*
X143933993Y-122031230D01*
X143808361Y-122298213D01*
X143805446Y-122305576D01*
X143714267Y-122586195D01*
X143712296Y-122593872D01*
X143657008Y-122883703D01*
X143656015Y-122891564D01*
X143637488Y-123186042D01*
X143637488Y-123193958D01*
X142240000Y-123193958D01*
X142240000Y-121315179D01*
X144540347Y-121315179D01*
X144547251Y-121328040D01*
X146037190Y-122817980D01*
X146051131Y-122825592D01*
X146052966Y-122825461D01*
X146059580Y-122821210D01*
X147553073Y-121327716D01*
X147559686Y-121315606D01*
X147550857Y-121303986D01*
X147346030Y-121155170D01*
X147339350Y-121150930D01*
X147080766Y-121008772D01*
X147073631Y-121005415D01*
X146799254Y-120896781D01*
X146791763Y-120894347D01*
X146505941Y-120820961D01*
X146498170Y-120819479D01*
X146205430Y-120782497D01*
X146197540Y-120782000D01*
X145902460Y-120782000D01*
X145894570Y-120782497D01*
X145601830Y-120819479D01*
X145594059Y-120820961D01*
X145308237Y-120894347D01*
X145300746Y-120896781D01*
X145026369Y-121005415D01*
X145019234Y-121008772D01*
X144760650Y-121150930D01*
X144753970Y-121155170D01*
X144548770Y-121304256D01*
X144540347Y-121315179D01*
X142240000Y-121315179D01*
X142240000Y-113011695D01*
X144052251Y-113011695D01*
X144065110Y-113234715D01*
X144066247Y-113239761D01*
X144066248Y-113239767D01*
X144090304Y-113346508D01*
X144114222Y-113452639D01*
X144198266Y-113659616D01*
X144314987Y-113850088D01*
X144461250Y-114018938D01*
X144633126Y-114161632D01*
X144826000Y-114274338D01*
X145034692Y-114354030D01*
X145039760Y-114355061D01*
X145039763Y-114355062D01*
X145147017Y-114376883D01*
X145253597Y-114398567D01*
X145258772Y-114398757D01*
X145258774Y-114398757D01*
X145471673Y-114406564D01*
X145471677Y-114406564D01*
X145476837Y-114406753D01*
X145481957Y-114406097D01*
X145481959Y-114406097D01*
X145693288Y-114379025D01*
X145693289Y-114379025D01*
X145698416Y-114378368D01*
X145703366Y-114376883D01*
X145907429Y-114315661D01*
X145907434Y-114315659D01*
X145912384Y-114314174D01*
X146112994Y-114215896D01*
X146294860Y-114086173D01*
X146453096Y-113928489D01*
X146458177Y-113921418D01*
X146459308Y-113920536D01*
X146459465Y-113920352D01*
X146459503Y-113920384D01*
X146514172Y-113877770D01*
X146584875Y-113871324D01*
X146647840Y-113904127D01*
X146683074Y-113965763D01*
X146686500Y-113994944D01*
X146686500Y-117795405D01*
X146666498Y-117863526D01*
X146649595Y-117884500D01*
X146099500Y-118434595D01*
X146037188Y-118468621D01*
X146010405Y-118471500D01*
X145954513Y-118471500D01*
X145948061Y-118472872D01*
X145948056Y-118472872D01*
X145862298Y-118491101D01*
X145767712Y-118511206D01*
X145761682Y-118513891D01*
X145761681Y-118513891D01*
X145599278Y-118586197D01*
X145599276Y-118586198D01*
X145593248Y-118588882D01*
X145587907Y-118592762D01*
X145587906Y-118592763D01*
X145570144Y-118605668D01*
X145438747Y-118701134D01*
X145310960Y-118843056D01*
X145215473Y-119008444D01*
X145156458Y-119190072D01*
X145136496Y-119380000D01*
X145156458Y-119569928D01*
X145215473Y-119751556D01*
X145310960Y-119916944D01*
X145438747Y-120058866D01*
X145593248Y-120171118D01*
X145599276Y-120173802D01*
X145599278Y-120173803D01*
X145761681Y-120246109D01*
X145767712Y-120248794D01*
X145861112Y-120268647D01*
X145948056Y-120287128D01*
X145948061Y-120287128D01*
X145954513Y-120288500D01*
X146145487Y-120288500D01*
X146151939Y-120287128D01*
X146151944Y-120287128D01*
X146238888Y-120268647D01*
X146332288Y-120248794D01*
X146338319Y-120246109D01*
X146500722Y-120173803D01*
X146500724Y-120173802D01*
X146506752Y-120171118D01*
X146661253Y-120058866D01*
X146789040Y-119916944D01*
X146884527Y-119751556D01*
X146943542Y-119569928D01*
X146960907Y-119404706D01*
X146987920Y-119339050D01*
X146997122Y-119328782D01*
X147712247Y-118613657D01*
X147720537Y-118606113D01*
X147727018Y-118602000D01*
X147773659Y-118552332D01*
X147776413Y-118549491D01*
X147796134Y-118529770D01*
X147798612Y-118526575D01*
X147806318Y-118517553D01*
X147831158Y-118491101D01*
X147836586Y-118485321D01*
X147846346Y-118467568D01*
X147857199Y-118451045D01*
X147864753Y-118441306D01*
X147869613Y-118435041D01*
X147887176Y-118394457D01*
X147892383Y-118383827D01*
X147913695Y-118345060D01*
X147915666Y-118337383D01*
X147915668Y-118337378D01*
X147918732Y-118325442D01*
X147925138Y-118306730D01*
X147930033Y-118295419D01*
X147933181Y-118288145D01*
X147934421Y-118280317D01*
X147934423Y-118280310D01*
X147940099Y-118244476D01*
X147942505Y-118232856D01*
X147951528Y-118197711D01*
X147951528Y-118197710D01*
X147953500Y-118190030D01*
X147953500Y-118169776D01*
X147955051Y-118150065D01*
X147956980Y-118137886D01*
X147958220Y-118130057D01*
X147954059Y-118086038D01*
X147953500Y-118074181D01*
X147953500Y-106747524D01*
X147973502Y-106679403D01*
X147985858Y-106663221D01*
X148059040Y-106581944D01*
X148133708Y-106452616D01*
X148151223Y-106422279D01*
X148151224Y-106422278D01*
X148154527Y-106416556D01*
X148213542Y-106234928D01*
X148216814Y-106203803D01*
X148232814Y-106051565D01*
X148233504Y-106045000D01*
X148220488Y-105921159D01*
X148214232Y-105861635D01*
X148214232Y-105861633D01*
X148213542Y-105855072D01*
X148154527Y-105673444D01*
X148138140Y-105645060D01*
X148062341Y-105513774D01*
X148059040Y-105508056D01*
X148049726Y-105497711D01*
X147935675Y-105371045D01*
X147935674Y-105371044D01*
X147931253Y-105366134D01*
X147776752Y-105253882D01*
X147770724Y-105251198D01*
X147770722Y-105251197D01*
X147608319Y-105178891D01*
X147608318Y-105178891D01*
X147602288Y-105176206D01*
X147508887Y-105156353D01*
X147421944Y-105137872D01*
X147421939Y-105137872D01*
X147415487Y-105136500D01*
X147224513Y-105136500D01*
X147218061Y-105137872D01*
X147218056Y-105137872D01*
X147131113Y-105156353D01*
X147037712Y-105176206D01*
X147031682Y-105178891D01*
X147031681Y-105178891D01*
X146869278Y-105251197D01*
X146869276Y-105251198D01*
X146863248Y-105253882D01*
X146708747Y-105366134D01*
X146704326Y-105371044D01*
X146704325Y-105371045D01*
X146590275Y-105497711D01*
X146580960Y-105508056D01*
X146577659Y-105513774D01*
X146501861Y-105645060D01*
X146485473Y-105673444D01*
X146426458Y-105855072D01*
X146425768Y-105861633D01*
X146425768Y-105861635D01*
X146419512Y-105921159D01*
X146406496Y-106045000D01*
X146407186Y-106051565D01*
X146423187Y-106203803D01*
X146426458Y-106234928D01*
X146485473Y-106416556D01*
X146490140Y-106424639D01*
X146490514Y-106426179D01*
X146491461Y-106428307D01*
X146491072Y-106428480D01*
X146506877Y-106493635D01*
X146483656Y-106560727D01*
X146427848Y-106604613D01*
X146367413Y-106612901D01*
X146316488Y-106607369D01*
X146309672Y-106607000D01*
X145687115Y-106607000D01*
X145671876Y-106611475D01*
X145670671Y-106612865D01*
X145669000Y-106620548D01*
X145669000Y-108093000D01*
X145648998Y-108161121D01*
X145595342Y-108207614D01*
X145543000Y-108219000D01*
X144075116Y-108219000D01*
X144059877Y-108223475D01*
X144058672Y-108224865D01*
X144057001Y-108232548D01*
X144057001Y-108859669D01*
X144057371Y-108866490D01*
X144062895Y-108917352D01*
X144066521Y-108932604D01*
X144111676Y-109053054D01*
X144120214Y-109068649D01*
X144196715Y-109170724D01*
X144209276Y-109183285D01*
X144311351Y-109259786D01*
X144326946Y-109268324D01*
X144435827Y-109309142D01*
X144492591Y-109351784D01*
X144517291Y-109418345D01*
X144502083Y-109487694D01*
X144482691Y-109514175D01*
X144359200Y-109643401D01*
X144355629Y-109647138D01*
X144352715Y-109651410D01*
X144352714Y-109651411D01*
X144338233Y-109672640D01*
X144229743Y-109831680D01*
X144186173Y-109925544D01*
X144141324Y-110022164D01*
X144135688Y-110034305D01*
X144075989Y-110249570D01*
X144052251Y-110471695D01*
X144065110Y-110694715D01*
X144066247Y-110699761D01*
X144066248Y-110699767D01*
X144075419Y-110740461D01*
X144114222Y-110912639D01*
X144198266Y-111119616D01*
X144233533Y-111177167D01*
X144298880Y-111283803D01*
X144314987Y-111310088D01*
X144461250Y-111478938D01*
X144633126Y-111621632D01*
X144703595Y-111662811D01*
X144706445Y-111664476D01*
X144755169Y-111716114D01*
X144768240Y-111785897D01*
X144741509Y-111851669D01*
X144701055Y-111885027D01*
X144688607Y-111891507D01*
X144684474Y-111894610D01*
X144684471Y-111894612D01*
X144660247Y-111912800D01*
X144509965Y-112025635D01*
X144444346Y-112094301D01*
X144359750Y-112182826D01*
X144355629Y-112187138D01*
X144229743Y-112371680D01*
X144182716Y-112472992D01*
X144141324Y-112562164D01*
X144135688Y-112574305D01*
X144075989Y-112789570D01*
X144052251Y-113011695D01*
X142240000Y-113011695D01*
X142240000Y-107692885D01*
X144057000Y-107692885D01*
X144061475Y-107708124D01*
X144062865Y-107709329D01*
X144070548Y-107711000D01*
X145142885Y-107711000D01*
X145158124Y-107706525D01*
X145159329Y-107705135D01*
X145161000Y-107697452D01*
X145161000Y-106625116D01*
X145156525Y-106609877D01*
X145155135Y-106608672D01*
X145147452Y-106607001D01*
X144520331Y-106607001D01*
X144513510Y-106607371D01*
X144462648Y-106612895D01*
X144447396Y-106616521D01*
X144326946Y-106661676D01*
X144311351Y-106670214D01*
X144209276Y-106746715D01*
X144196715Y-106759276D01*
X144120214Y-106861351D01*
X144111676Y-106876946D01*
X144066522Y-106997394D01*
X144062895Y-107012649D01*
X144057369Y-107063514D01*
X144057000Y-107070328D01*
X144057000Y-107692885D01*
X142240000Y-107692885D01*
X142240000Y-105410000D01*
X143231496Y-105410000D01*
X143232186Y-105416565D01*
X143250220Y-105588145D01*
X143251458Y-105599928D01*
X143310473Y-105781556D01*
X143405960Y-105946944D01*
X143410378Y-105951851D01*
X143410379Y-105951852D01*
X143497149Y-106048220D01*
X143533747Y-106088866D01*
X143632843Y-106160864D01*
X143670193Y-106188000D01*
X143688248Y-106201118D01*
X143694276Y-106203802D01*
X143694278Y-106203803D01*
X143856681Y-106276109D01*
X143862712Y-106278794D01*
X143956112Y-106298647D01*
X144043056Y-106317128D01*
X144043061Y-106317128D01*
X144049513Y-106318500D01*
X144240487Y-106318500D01*
X144246939Y-106317128D01*
X144246944Y-106317128D01*
X144333887Y-106298647D01*
X144427288Y-106278794D01*
X144433319Y-106276109D01*
X144595722Y-106203803D01*
X144595724Y-106203802D01*
X144601752Y-106201118D01*
X144619808Y-106188000D01*
X144657157Y-106160864D01*
X144756253Y-106088866D01*
X144792851Y-106048220D01*
X144879621Y-105951852D01*
X144879622Y-105951851D01*
X144884040Y-105946944D01*
X144979527Y-105781556D01*
X145038542Y-105599928D01*
X145039781Y-105588145D01*
X145055907Y-105434707D01*
X145082920Y-105369050D01*
X145092122Y-105358782D01*
X145640499Y-104810405D01*
X145702811Y-104776379D01*
X145729594Y-104773500D01*
X155793800Y-104773500D01*
X155861921Y-104793502D01*
X155881147Y-104809843D01*
X155881420Y-104809540D01*
X155886332Y-104813963D01*
X155890747Y-104818866D01*
X155912329Y-104834546D01*
X155958578Y-104868148D01*
X156045248Y-104931118D01*
X156051276Y-104933802D01*
X156051278Y-104933803D01*
X156213681Y-105006109D01*
X156219712Y-105008794D01*
X156313113Y-105028647D01*
X156400056Y-105047128D01*
X156400061Y-105047128D01*
X156406513Y-105048500D01*
X156597487Y-105048500D01*
X156603939Y-105047128D01*
X156603944Y-105047128D01*
X156690888Y-105028647D01*
X156784288Y-105008794D01*
X156790319Y-105006109D01*
X156952722Y-104933803D01*
X156952724Y-104933802D01*
X156958752Y-104931118D01*
X157113253Y-104818866D01*
X157136091Y-104793502D01*
X157236621Y-104681852D01*
X157236622Y-104681851D01*
X157241040Y-104676944D01*
X157336527Y-104511556D01*
X157395542Y-104329928D01*
X157415504Y-104140000D01*
X157395542Y-103950072D01*
X157336527Y-103768444D01*
X157241040Y-103603056D01*
X157224881Y-103585109D01*
X157117675Y-103466045D01*
X157117674Y-103466044D01*
X157113253Y-103461134D01*
X156958752Y-103348882D01*
X156952724Y-103346198D01*
X156952722Y-103346197D01*
X156790319Y-103273891D01*
X156790318Y-103273891D01*
X156784288Y-103271206D01*
X156690887Y-103251353D01*
X156603944Y-103232872D01*
X156603939Y-103232872D01*
X156597487Y-103231500D01*
X156406513Y-103231500D01*
X156400061Y-103232872D01*
X156400056Y-103232872D01*
X156313113Y-103251353D01*
X156219712Y-103271206D01*
X156213682Y-103273891D01*
X156213681Y-103273891D01*
X156051278Y-103346197D01*
X156051276Y-103346198D01*
X156045248Y-103348882D01*
X155890747Y-103461134D01*
X155886332Y-103466037D01*
X155881420Y-103470460D01*
X155880295Y-103469211D01*
X155826986Y-103502051D01*
X155793800Y-103506500D01*
X145493767Y-103506500D01*
X145482584Y-103505973D01*
X145475091Y-103504298D01*
X145467165Y-103504547D01*
X145467164Y-103504547D01*
X145407014Y-103506438D01*
X145403055Y-103506500D01*
X145375144Y-103506500D01*
X145371210Y-103506997D01*
X145371209Y-103506997D01*
X145371144Y-103507005D01*
X145359307Y-103507938D01*
X145327490Y-103508938D01*
X145323029Y-103509078D01*
X145315110Y-103509327D01*
X145297454Y-103514456D01*
X145295658Y-103514978D01*
X145276306Y-103518986D01*
X145269235Y-103519880D01*
X145256203Y-103521526D01*
X145248834Y-103524443D01*
X145248832Y-103524444D01*
X145215097Y-103537800D01*
X145203869Y-103541645D01*
X145161407Y-103553982D01*
X145154585Y-103558016D01*
X145154579Y-103558019D01*
X145143968Y-103564294D01*
X145126218Y-103572990D01*
X145114756Y-103577528D01*
X145114751Y-103577531D01*
X145107383Y-103580448D01*
X145100968Y-103585109D01*
X145071625Y-103606427D01*
X145061707Y-103612943D01*
X145043019Y-103623995D01*
X145023637Y-103635458D01*
X145009313Y-103649782D01*
X144994281Y-103662621D01*
X144977893Y-103674528D01*
X144949712Y-103708593D01*
X144941722Y-103717373D01*
X144194500Y-104464595D01*
X144132188Y-104498621D01*
X144105405Y-104501500D01*
X144049513Y-104501500D01*
X144043061Y-104502872D01*
X144043056Y-104502872D01*
X143975279Y-104517279D01*
X143862712Y-104541206D01*
X143856682Y-104543891D01*
X143856681Y-104543891D01*
X143694278Y-104616197D01*
X143694276Y-104616198D01*
X143688248Y-104618882D01*
X143533747Y-104731134D01*
X143529326Y-104736044D01*
X143529325Y-104736045D01*
X143451257Y-104822749D01*
X143405960Y-104873056D01*
X143310473Y-105038444D01*
X143251458Y-105220072D01*
X143250768Y-105226633D01*
X143250768Y-105226635D01*
X143236879Y-105358782D01*
X143231496Y-105410000D01*
X142240000Y-105410000D01*
X142240000Y-95219394D01*
X154700314Y-95219394D01*
X154709143Y-95231014D01*
X154913970Y-95379830D01*
X154920650Y-95384070D01*
X155179234Y-95526228D01*
X155186369Y-95529585D01*
X155460746Y-95638219D01*
X155468237Y-95640653D01*
X155754059Y-95714039D01*
X155761830Y-95715521D01*
X156054570Y-95752503D01*
X156062460Y-95753000D01*
X156357540Y-95753000D01*
X156365430Y-95752503D01*
X156658170Y-95715521D01*
X156665947Y-95714038D01*
X156674356Y-95711879D01*
X156745311Y-95714311D01*
X156803687Y-95754717D01*
X156830951Y-95820270D01*
X156818447Y-95890157D01*
X156799331Y-95918228D01*
X156740960Y-95983056D01*
X156645473Y-96148444D01*
X156586458Y-96330072D01*
X156566496Y-96520000D01*
X156586458Y-96709928D01*
X156645473Y-96891556D01*
X156740960Y-97056944D01*
X156868747Y-97198866D01*
X157023248Y-97311118D01*
X157029276Y-97313802D01*
X157029278Y-97313803D01*
X157187647Y-97384313D01*
X157197712Y-97388794D01*
X157276105Y-97405457D01*
X157378056Y-97427128D01*
X157378061Y-97427128D01*
X157384513Y-97428500D01*
X157440406Y-97428500D01*
X157508527Y-97448502D01*
X157529501Y-97465405D01*
X158079595Y-98015499D01*
X158113621Y-98077811D01*
X158116500Y-98104594D01*
X158116500Y-105095405D01*
X158096498Y-105163526D01*
X158079595Y-105184500D01*
X157087747Y-106176348D01*
X157079461Y-106183888D01*
X157072982Y-106188000D01*
X157067557Y-106193777D01*
X157026357Y-106237651D01*
X157023602Y-106240493D01*
X157003865Y-106260230D01*
X157001385Y-106263427D01*
X156993682Y-106272447D01*
X156963414Y-106304679D01*
X156959595Y-106311625D01*
X156959593Y-106311628D01*
X156953652Y-106322434D01*
X156942801Y-106338953D01*
X156930386Y-106354959D01*
X156927241Y-106362228D01*
X156927238Y-106362232D01*
X156912826Y-106395537D01*
X156907609Y-106406187D01*
X156886305Y-106444940D01*
X156884334Y-106452615D01*
X156884334Y-106452616D01*
X156881267Y-106464562D01*
X156874863Y-106483266D01*
X156866819Y-106501855D01*
X156865580Y-106509678D01*
X156865577Y-106509688D01*
X156859901Y-106545524D01*
X156857495Y-106557144D01*
X156852596Y-106576226D01*
X156846500Y-106599970D01*
X156846500Y-106620224D01*
X156844949Y-106639934D01*
X156841780Y-106659943D01*
X156842526Y-106667835D01*
X156845941Y-106703961D01*
X156846500Y-106715819D01*
X156846500Y-109201233D01*
X156845973Y-109212416D01*
X156844298Y-109219909D01*
X156844547Y-109227835D01*
X156844547Y-109227836D01*
X156846438Y-109287986D01*
X156846500Y-109291945D01*
X156846500Y-109319856D01*
X156846997Y-109323790D01*
X156846997Y-109323791D01*
X156847005Y-109323856D01*
X156847938Y-109335693D01*
X156849327Y-109379889D01*
X156854978Y-109399339D01*
X156858987Y-109418700D01*
X156861526Y-109438797D01*
X156864445Y-109446168D01*
X156864445Y-109446170D01*
X156877804Y-109479912D01*
X156881649Y-109491142D01*
X156887444Y-109511088D01*
X156893982Y-109533593D01*
X156898015Y-109540412D01*
X156898017Y-109540417D01*
X156904293Y-109551028D01*
X156912988Y-109568776D01*
X156920448Y-109587617D01*
X156925110Y-109594033D01*
X156925110Y-109594034D01*
X156946436Y-109623387D01*
X156952952Y-109633307D01*
X156975458Y-109671362D01*
X156989779Y-109685683D01*
X157002619Y-109700716D01*
X157014528Y-109717107D01*
X157020634Y-109722158D01*
X157048605Y-109745298D01*
X157057384Y-109753288D01*
X157742878Y-110438782D01*
X157776904Y-110501094D01*
X157779093Y-110514707D01*
X157795568Y-110671457D01*
X157796458Y-110679928D01*
X157855473Y-110861556D01*
X157858776Y-110867278D01*
X157858777Y-110867279D01*
X157877506Y-110899719D01*
X157950960Y-111026944D01*
X157955378Y-111031851D01*
X157955379Y-111031852D01*
X158039250Y-111125000D01*
X158078747Y-111168866D01*
X158233248Y-111281118D01*
X158239276Y-111283802D01*
X158239278Y-111283803D01*
X158384281Y-111348362D01*
X158407712Y-111358794D01*
X158501112Y-111378647D01*
X158588056Y-111397128D01*
X158588061Y-111397128D01*
X158594513Y-111398500D01*
X158785487Y-111398500D01*
X158791939Y-111397128D01*
X158791944Y-111397128D01*
X158878888Y-111378647D01*
X158972288Y-111358794D01*
X158995719Y-111348362D01*
X159140722Y-111283803D01*
X159140724Y-111283802D01*
X159146752Y-111281118D01*
X159301253Y-111168866D01*
X159340750Y-111125000D01*
X159424621Y-111031852D01*
X159424622Y-111031851D01*
X159429040Y-111026944D01*
X159502494Y-110899719D01*
X159521223Y-110867279D01*
X159521224Y-110867278D01*
X159524527Y-110861556D01*
X159583542Y-110679928D01*
X159584433Y-110671457D01*
X159602814Y-110496565D01*
X159603504Y-110490000D01*
X159590878Y-110369870D01*
X159584232Y-110306635D01*
X159584232Y-110306633D01*
X159583542Y-110300072D01*
X159524527Y-110118444D01*
X159429040Y-109953056D01*
X159346009Y-109860840D01*
X159305675Y-109816045D01*
X159305674Y-109816044D01*
X159301253Y-109811134D01*
X159178789Y-109722158D01*
X159152094Y-109702763D01*
X159152093Y-109702762D01*
X159146752Y-109698882D01*
X159140724Y-109696198D01*
X159140722Y-109696197D01*
X158978319Y-109623891D01*
X158978318Y-109623891D01*
X158972288Y-109621206D01*
X158844455Y-109594034D01*
X158791944Y-109582872D01*
X158791939Y-109582872D01*
X158785487Y-109581500D01*
X158729595Y-109581500D01*
X158661474Y-109561498D01*
X158640500Y-109544595D01*
X158150405Y-109054500D01*
X158116379Y-108992188D01*
X158113500Y-108965405D01*
X158113500Y-106994594D01*
X158133502Y-106926473D01*
X158150405Y-106905499D01*
X159142247Y-105913657D01*
X159150537Y-105906113D01*
X159157018Y-105902000D01*
X159203659Y-105852332D01*
X159206413Y-105849491D01*
X159226134Y-105829770D01*
X159228612Y-105826575D01*
X159236318Y-105817553D01*
X159261158Y-105791101D01*
X159266586Y-105785321D01*
X159276346Y-105767568D01*
X159287199Y-105751045D01*
X159294753Y-105741306D01*
X159299613Y-105735041D01*
X159317176Y-105694457D01*
X159322383Y-105683827D01*
X159343695Y-105645060D01*
X159345666Y-105637383D01*
X159345668Y-105637378D01*
X159348732Y-105625442D01*
X159355138Y-105606730D01*
X159360033Y-105595419D01*
X159363181Y-105588145D01*
X159364421Y-105580317D01*
X159364423Y-105580310D01*
X159370099Y-105544476D01*
X159372505Y-105532856D01*
X159381528Y-105497711D01*
X159381528Y-105497710D01*
X159383500Y-105490030D01*
X159383500Y-105469776D01*
X159385051Y-105450065D01*
X159386980Y-105437886D01*
X159388220Y-105430057D01*
X159384059Y-105386038D01*
X159383500Y-105374181D01*
X159383500Y-104068594D01*
X159403502Y-104000473D01*
X159457158Y-103953980D01*
X159527432Y-103943876D01*
X159592012Y-103973370D01*
X159598595Y-103979499D01*
X161421348Y-105802253D01*
X161428888Y-105810539D01*
X161433000Y-105817018D01*
X161438777Y-105822443D01*
X161482651Y-105863643D01*
X161485493Y-105866398D01*
X161505230Y-105886135D01*
X161508427Y-105888615D01*
X161517447Y-105896318D01*
X161549679Y-105926586D01*
X161556625Y-105930405D01*
X161556628Y-105930407D01*
X161567434Y-105936348D01*
X161583953Y-105947199D01*
X161599959Y-105959614D01*
X161607228Y-105962759D01*
X161607232Y-105962762D01*
X161640537Y-105977174D01*
X161651187Y-105982391D01*
X161689940Y-106003695D01*
X161697615Y-106005666D01*
X161697616Y-106005666D01*
X161709562Y-106008733D01*
X161728267Y-106015137D01*
X161746855Y-106023181D01*
X161754678Y-106024420D01*
X161754688Y-106024423D01*
X161790524Y-106030099D01*
X161802144Y-106032505D01*
X161825242Y-106038435D01*
X161844970Y-106043500D01*
X161865224Y-106043500D01*
X161884934Y-106045051D01*
X161904943Y-106048220D01*
X161912835Y-106047474D01*
X161948961Y-106044059D01*
X161960819Y-106043500D01*
X164391800Y-106043500D01*
X164459921Y-106063502D01*
X164479147Y-106079843D01*
X164479420Y-106079540D01*
X164484332Y-106083963D01*
X164488747Y-106088866D01*
X164510329Y-106104546D01*
X164625193Y-106188000D01*
X164643248Y-106201118D01*
X164649276Y-106203802D01*
X164649278Y-106203803D01*
X164811681Y-106276109D01*
X164817712Y-106278794D01*
X164911112Y-106298647D01*
X164998056Y-106317128D01*
X164998061Y-106317128D01*
X165004513Y-106318500D01*
X165195487Y-106318500D01*
X165201939Y-106317128D01*
X165201944Y-106317128D01*
X165288887Y-106298647D01*
X165382288Y-106278794D01*
X165388319Y-106276109D01*
X165550722Y-106203803D01*
X165550724Y-106203802D01*
X165556752Y-106201118D01*
X165574808Y-106188000D01*
X165612157Y-106160864D01*
X165711253Y-106088866D01*
X165747851Y-106048220D01*
X165834621Y-105951852D01*
X165834622Y-105951851D01*
X165839040Y-105946944D01*
X165934527Y-105781556D01*
X165993542Y-105599928D01*
X165994781Y-105588145D01*
X166012814Y-105416565D01*
X166013504Y-105410000D01*
X166008121Y-105358782D01*
X165994232Y-105226635D01*
X165994232Y-105226633D01*
X165993542Y-105220072D01*
X165934527Y-105038444D01*
X165839040Y-104873056D01*
X165793744Y-104822749D01*
X165715675Y-104736045D01*
X165715674Y-104736044D01*
X165711253Y-104731134D01*
X165556752Y-104618882D01*
X165550724Y-104616198D01*
X165550722Y-104616197D01*
X165388319Y-104543891D01*
X165388318Y-104543891D01*
X165382288Y-104541206D01*
X165269721Y-104517279D01*
X165201944Y-104502872D01*
X165201939Y-104502872D01*
X165195487Y-104501500D01*
X165004513Y-104501500D01*
X164998061Y-104502872D01*
X164998056Y-104502872D01*
X164930279Y-104517279D01*
X164817712Y-104541206D01*
X164811682Y-104543891D01*
X164811681Y-104543891D01*
X164649278Y-104616197D01*
X164649276Y-104616198D01*
X164643248Y-104618882D01*
X164637907Y-104622762D01*
X164637906Y-104622763D01*
X164510329Y-104715454D01*
X164488747Y-104731134D01*
X164484332Y-104736037D01*
X164479420Y-104740460D01*
X164478295Y-104739211D01*
X164424986Y-104772051D01*
X164391800Y-104776500D01*
X162239594Y-104776500D01*
X162171473Y-104756498D01*
X162150499Y-104739595D01*
X160690405Y-103279500D01*
X160656379Y-103217188D01*
X160653500Y-103190405D01*
X160653500Y-102937524D01*
X160673502Y-102869403D01*
X160685858Y-102853221D01*
X160759040Y-102771944D01*
X160854527Y-102606556D01*
X160913542Y-102424928D01*
X160933504Y-102235000D01*
X160913542Y-102045072D01*
X160854527Y-101863444D01*
X160759040Y-101698056D01*
X160631253Y-101556134D01*
X160476752Y-101443882D01*
X160470724Y-101441198D01*
X160470722Y-101441197D01*
X160308319Y-101368891D01*
X160308318Y-101368891D01*
X160302288Y-101366206D01*
X160208887Y-101346353D01*
X160121944Y-101327872D01*
X160121939Y-101327872D01*
X160115487Y-101326500D01*
X159924513Y-101326500D01*
X159918061Y-101327872D01*
X159918056Y-101327872D01*
X159831113Y-101346353D01*
X159737712Y-101366206D01*
X159731682Y-101368891D01*
X159731681Y-101368891D01*
X159588006Y-101432859D01*
X159563248Y-101443882D01*
X159562323Y-101441804D01*
X159503512Y-101456076D01*
X159436419Y-101432859D01*
X159392528Y-101377055D01*
X159383500Y-101330218D01*
X159383500Y-97868767D01*
X159384027Y-97857584D01*
X159385702Y-97850091D01*
X159383562Y-97782014D01*
X159383500Y-97778055D01*
X159383500Y-97750144D01*
X159382995Y-97746144D01*
X159382062Y-97734301D01*
X159380922Y-97698029D01*
X159380673Y-97690110D01*
X159375022Y-97670658D01*
X159371014Y-97651306D01*
X159369467Y-97639063D01*
X159368474Y-97631203D01*
X159365556Y-97623832D01*
X159352200Y-97590097D01*
X159348355Y-97578870D01*
X159347721Y-97576687D01*
X159336018Y-97536407D01*
X159331984Y-97529585D01*
X159331981Y-97529579D01*
X159325706Y-97518968D01*
X159317010Y-97501218D01*
X159312472Y-97489756D01*
X159312469Y-97489751D01*
X159309552Y-97482383D01*
X159296901Y-97464970D01*
X159283573Y-97446625D01*
X159277057Y-97436707D01*
X159258575Y-97405457D01*
X159254542Y-97398637D01*
X159240218Y-97384313D01*
X159227376Y-97369278D01*
X159215472Y-97352893D01*
X159181406Y-97324711D01*
X159172627Y-97316722D01*
X158427122Y-96571217D01*
X158393096Y-96508905D01*
X158390907Y-96495292D01*
X158374232Y-96336635D01*
X158374232Y-96336633D01*
X158373542Y-96330072D01*
X158314527Y-96148444D01*
X158219040Y-95983056D01*
X158160671Y-95918230D01*
X158095675Y-95846045D01*
X158095674Y-95846044D01*
X158091253Y-95841134D01*
X157972311Y-95754717D01*
X157942094Y-95732763D01*
X157942093Y-95732762D01*
X157936752Y-95728882D01*
X157930724Y-95726198D01*
X157930722Y-95726197D01*
X157768319Y-95653891D01*
X157768318Y-95653891D01*
X157762288Y-95651206D01*
X157668888Y-95631353D01*
X157581944Y-95612872D01*
X157581939Y-95612872D01*
X157575487Y-95611500D01*
X157568885Y-95611500D01*
X157562318Y-95610810D01*
X157562617Y-95607960D01*
X157506551Y-95591498D01*
X157460058Y-95537842D01*
X157449954Y-95467568D01*
X157479448Y-95402988D01*
X157503131Y-95382586D01*
X157502822Y-95382161D01*
X157711230Y-95230744D01*
X157719653Y-95219821D01*
X157712749Y-95206960D01*
X156222810Y-93717020D01*
X156208869Y-93709408D01*
X156207034Y-93709539D01*
X156200420Y-93713790D01*
X154706927Y-95207284D01*
X154700314Y-95219394D01*
X142240000Y-95219394D01*
X142240000Y-93348958D01*
X153797488Y-93348958D01*
X153816015Y-93643436D01*
X153817008Y-93651297D01*
X153872296Y-93941128D01*
X153874267Y-93948805D01*
X153965446Y-94229424D01*
X153968361Y-94236787D01*
X154093993Y-94503770D01*
X154097805Y-94510703D01*
X154255909Y-94759835D01*
X154260563Y-94766241D01*
X154325521Y-94844761D01*
X154338040Y-94853217D01*
X154348778Y-94847011D01*
X155837980Y-93357810D01*
X155844357Y-93346131D01*
X156574408Y-93346131D01*
X156574539Y-93347966D01*
X156578790Y-93354580D01*
X158070119Y-94845908D01*
X158083381Y-94853150D01*
X158093485Y-94845962D01*
X158159437Y-94766241D01*
X158164091Y-94759835D01*
X158322195Y-94510703D01*
X158326007Y-94503770D01*
X158451639Y-94236787D01*
X158454554Y-94229424D01*
X158545733Y-93948805D01*
X158547704Y-93941128D01*
X158602992Y-93651297D01*
X158603985Y-93643436D01*
X158622512Y-93348958D01*
X158622512Y-93341042D01*
X158603985Y-93046564D01*
X158602992Y-93038703D01*
X158547704Y-92748872D01*
X158545733Y-92741195D01*
X158454554Y-92460576D01*
X158451639Y-92453213D01*
X158326007Y-92186230D01*
X158322195Y-92179297D01*
X158164091Y-91930165D01*
X158159437Y-91923759D01*
X158094479Y-91845239D01*
X158081960Y-91836783D01*
X158071222Y-91842989D01*
X156582020Y-93332190D01*
X156574408Y-93346131D01*
X155844357Y-93346131D01*
X155845592Y-93343869D01*
X155845461Y-93342034D01*
X155841210Y-93335420D01*
X154349881Y-91844092D01*
X154336619Y-91836850D01*
X154326515Y-91844038D01*
X154260563Y-91923759D01*
X154255909Y-91930165D01*
X154097805Y-92179297D01*
X154093993Y-92186230D01*
X153968361Y-92453213D01*
X153965446Y-92460576D01*
X153874267Y-92741195D01*
X153872296Y-92748872D01*
X153817008Y-93038703D01*
X153816015Y-93046564D01*
X153797488Y-93341042D01*
X153797488Y-93348958D01*
X142240000Y-93348958D01*
X142240000Y-91470179D01*
X154700347Y-91470179D01*
X154707251Y-91483040D01*
X156197190Y-92972980D01*
X156211131Y-92980592D01*
X156212966Y-92980461D01*
X156219580Y-92976210D01*
X157713073Y-91482716D01*
X157719686Y-91470606D01*
X157710857Y-91458986D01*
X157506030Y-91310170D01*
X157499350Y-91305930D01*
X157240766Y-91163772D01*
X157233631Y-91160415D01*
X156959254Y-91051781D01*
X156951763Y-91049347D01*
X156665941Y-90975961D01*
X156658170Y-90974479D01*
X156365430Y-90937497D01*
X156357540Y-90937000D01*
X156062460Y-90937000D01*
X156054570Y-90937497D01*
X155761830Y-90974479D01*
X155754059Y-90975961D01*
X155468237Y-91049347D01*
X155460746Y-91051781D01*
X155186369Y-91160415D01*
X155179234Y-91163772D01*
X154920650Y-91305930D01*
X154913970Y-91310170D01*
X154708770Y-91459256D01*
X154700347Y-91470179D01*
X142240000Y-91470179D01*
X142240000Y-90296000D01*
X142260002Y-90227879D01*
X142313658Y-90181386D01*
X142366000Y-90170000D01*
X170054000Y-90170000D01*
X170122121Y-90190002D01*
G37*
%TD.AperFunction*%
%TD*%
%TA.AperFunction,Conductor*%
%TO.N,GND*%
G36*
X170122121Y-90190002D02*
G01*
X170168614Y-90243658D01*
X170180000Y-90296000D01*
X170180000Y-126874000D01*
X170159998Y-126942121D01*
X170106342Y-126988614D01*
X170054000Y-127000000D01*
X142366000Y-127000000D01*
X142297879Y-126979998D01*
X142251386Y-126926342D01*
X142240000Y-126874000D01*
X142240000Y-125064394D01*
X144540314Y-125064394D01*
X144549143Y-125076014D01*
X144753970Y-125224830D01*
X144760650Y-125229070D01*
X145019234Y-125371228D01*
X145026369Y-125374585D01*
X145300746Y-125483219D01*
X145308237Y-125485653D01*
X145594059Y-125559039D01*
X145601830Y-125560521D01*
X145894570Y-125597503D01*
X145902460Y-125598000D01*
X146197540Y-125598000D01*
X146205430Y-125597503D01*
X146498170Y-125560521D01*
X146505941Y-125559039D01*
X146791763Y-125485653D01*
X146799254Y-125483219D01*
X147073631Y-125374585D01*
X147080766Y-125371228D01*
X147339350Y-125229070D01*
X147346030Y-125224830D01*
X147551230Y-125075744D01*
X147559653Y-125064821D01*
X147552749Y-125051960D01*
X147223923Y-124723134D01*
X149786500Y-124723134D01*
X149793255Y-124785316D01*
X149844385Y-124921705D01*
X149931739Y-125038261D01*
X150048295Y-125125615D01*
X150184684Y-125176745D01*
X150246866Y-125183500D01*
X152043134Y-125183500D01*
X152105316Y-125176745D01*
X152241705Y-125125615D01*
X152358261Y-125038261D01*
X152445615Y-124921705D01*
X152489798Y-124803848D01*
X152532440Y-124747084D01*
X152599001Y-124722384D01*
X152668350Y-124737592D01*
X152703017Y-124765580D01*
X152728218Y-124794673D01*
X152735580Y-124801883D01*
X152899434Y-124937916D01*
X152907881Y-124943831D01*
X153091756Y-125051279D01*
X153101042Y-125055729D01*
X153300001Y-125131703D01*
X153309899Y-125134579D01*
X153413250Y-125155606D01*
X153427299Y-125154410D01*
X153431000Y-125144065D01*
X153431000Y-125143517D01*
X153939000Y-125143517D01*
X153943064Y-125157359D01*
X153956478Y-125159393D01*
X153963184Y-125158534D01*
X153973262Y-125156392D01*
X154177255Y-125095191D01*
X154186842Y-125091433D01*
X154378095Y-124997739D01*
X154386945Y-124992464D01*
X154560328Y-124868792D01*
X154568200Y-124862139D01*
X154719052Y-124711812D01*
X154725730Y-124703965D01*
X154853022Y-124526819D01*
X154854279Y-124527722D01*
X154901373Y-124484362D01*
X154971311Y-124472145D01*
X155036751Y-124499678D01*
X155064579Y-124531511D01*
X155124987Y-124630088D01*
X155271250Y-124798938D01*
X155443126Y-124941632D01*
X155636000Y-125054338D01*
X155640825Y-125056180D01*
X155640826Y-125056181D01*
X155692764Y-125076014D01*
X155844692Y-125134030D01*
X155849760Y-125135061D01*
X155849763Y-125135062D01*
X155944862Y-125154410D01*
X156063597Y-125178567D01*
X156068772Y-125178757D01*
X156068774Y-125178757D01*
X156281673Y-125186564D01*
X156281677Y-125186564D01*
X156286837Y-125186753D01*
X156291957Y-125186097D01*
X156291959Y-125186097D01*
X156503288Y-125159025D01*
X156503289Y-125159025D01*
X156508416Y-125158368D01*
X156513366Y-125156883D01*
X156717429Y-125095661D01*
X156717434Y-125095659D01*
X156722384Y-125094174D01*
X156922994Y-124995896D01*
X157104860Y-124866173D01*
X157263096Y-124708489D01*
X157275691Y-124690962D01*
X157390435Y-124531277D01*
X157393453Y-124527077D01*
X157406995Y-124499678D01*
X157490136Y-124331453D01*
X157490137Y-124331451D01*
X157492430Y-124326811D01*
X157557370Y-124113069D01*
X157586529Y-123891590D01*
X157588156Y-123825000D01*
X157569852Y-123602361D01*
X157515431Y-123385702D01*
X157426354Y-123180840D01*
X157305014Y-122993277D01*
X157154670Y-122828051D01*
X157150619Y-122824852D01*
X157150615Y-122824848D01*
X156983414Y-122692800D01*
X156983410Y-122692798D01*
X156979359Y-122689598D01*
X156943028Y-122669542D01*
X156927136Y-122660769D01*
X156783789Y-122581638D01*
X156778920Y-122579914D01*
X156778916Y-122579912D01*
X156578087Y-122508795D01*
X156578083Y-122508794D01*
X156573212Y-122507069D01*
X156568119Y-122506162D01*
X156568116Y-122506161D01*
X156358373Y-122468800D01*
X156358367Y-122468799D01*
X156353284Y-122467894D01*
X156279452Y-122466992D01*
X156135081Y-122465228D01*
X156135079Y-122465228D01*
X156129911Y-122465165D01*
X155909091Y-122498955D01*
X155696756Y-122568357D01*
X155498607Y-122671507D01*
X155494474Y-122674610D01*
X155494471Y-122674612D01*
X155324100Y-122802530D01*
X155319965Y-122805635D01*
X155165629Y-122967138D01*
X155162715Y-122971410D01*
X155162714Y-122971411D01*
X155057898Y-123125066D01*
X155002987Y-123170069D01*
X154932462Y-123178240D01*
X154868715Y-123146986D01*
X154848018Y-123122502D01*
X154767426Y-122997926D01*
X154761136Y-122989757D01*
X154617806Y-122832240D01*
X154610273Y-122825215D01*
X154443139Y-122693222D01*
X154434552Y-122687517D01*
X154248117Y-122584599D01*
X154238705Y-122580369D01*
X154037959Y-122509280D01*
X154027988Y-122506646D01*
X153956837Y-122493972D01*
X153943540Y-122495432D01*
X153939000Y-122509989D01*
X153939000Y-125143517D01*
X153431000Y-125143517D01*
X153431000Y-122508102D01*
X153427082Y-122494758D01*
X153412806Y-122492771D01*
X153374324Y-122498660D01*
X153364288Y-122501051D01*
X153161868Y-122567212D01*
X153152359Y-122571209D01*
X152963463Y-122669542D01*
X152954738Y-122675036D01*
X152784433Y-122802905D01*
X152776726Y-122809748D01*
X152699478Y-122890584D01*
X152637954Y-122926014D01*
X152567042Y-122922557D01*
X152509255Y-122881311D01*
X152490402Y-122847763D01*
X152448767Y-122736703D01*
X152445615Y-122728295D01*
X152358261Y-122611739D01*
X152241705Y-122524385D01*
X152105316Y-122473255D01*
X152043134Y-122466500D01*
X151904500Y-122466500D01*
X151836379Y-122446498D01*
X151789886Y-122392842D01*
X151778500Y-122340500D01*
X151778500Y-116504594D01*
X151798502Y-116436473D01*
X151815405Y-116415499D01*
X156607182Y-111623722D01*
X156625453Y-111608606D01*
X156625710Y-111608431D01*
X156632271Y-111603972D01*
X156669418Y-111561837D01*
X156674837Y-111556067D01*
X156686135Y-111544769D01*
X156688571Y-111541629D01*
X156695938Y-111532133D01*
X156700979Y-111526039D01*
X156732878Y-111489856D01*
X156732878Y-111489855D01*
X156738120Y-111483910D01*
X156741720Y-111476845D01*
X156741860Y-111476571D01*
X156754566Y-111456550D01*
X156754752Y-111456310D01*
X156754754Y-111456306D01*
X156759614Y-111450041D01*
X156781923Y-111398489D01*
X156785278Y-111391358D01*
X156810785Y-111341296D01*
X156812583Y-111333251D01*
X156819909Y-111310706D01*
X156820032Y-111310421D01*
X156823181Y-111303145D01*
X156831967Y-111247674D01*
X156833451Y-111239899D01*
X156843971Y-111192834D01*
X156845702Y-111185091D01*
X156845443Y-111176856D01*
X156846933Y-111153185D01*
X156846980Y-111152889D01*
X156846980Y-111152886D01*
X156848220Y-111145057D01*
X156846324Y-111125000D01*
X156842935Y-111089143D01*
X156842438Y-111081246D01*
X156840922Y-111033036D01*
X156840673Y-111025110D01*
X156838375Y-111017201D01*
X156833932Y-110993907D01*
X156833903Y-110993598D01*
X156833903Y-110993597D01*
X156833157Y-110985708D01*
X156814128Y-110932852D01*
X156811688Y-110925342D01*
X156798229Y-110879016D01*
X156798228Y-110879014D01*
X156796018Y-110871407D01*
X156791826Y-110864318D01*
X156781731Y-110842864D01*
X156781627Y-110842575D01*
X156781624Y-110842570D01*
X156778939Y-110835111D01*
X156747364Y-110788649D01*
X156743124Y-110781967D01*
X156741859Y-110779828D01*
X156714542Y-110733637D01*
X156708720Y-110727815D01*
X156693604Y-110709545D01*
X156693425Y-110709282D01*
X156688972Y-110702729D01*
X156683031Y-110697491D01*
X156683029Y-110697489D01*
X156646834Y-110665579D01*
X156641065Y-110660160D01*
X155982374Y-110001469D01*
X155948348Y-109939157D01*
X155946159Y-109925544D01*
X155933934Y-109809226D01*
X155933934Y-109809224D01*
X155933244Y-109802663D01*
X155874229Y-109621035D01*
X155778742Y-109455647D01*
X155707698Y-109376744D01*
X155655377Y-109318636D01*
X155655376Y-109318635D01*
X155650955Y-109313725D01*
X155551859Y-109241727D01*
X155501796Y-109205354D01*
X155501795Y-109205353D01*
X155496454Y-109201473D01*
X155490426Y-109198789D01*
X155490424Y-109198788D01*
X155328021Y-109126482D01*
X155328020Y-109126482D01*
X155321990Y-109123797D01*
X155228590Y-109103944D01*
X155141646Y-109085463D01*
X155141641Y-109085463D01*
X155135189Y-109084091D01*
X154944215Y-109084091D01*
X154937763Y-109085463D01*
X154937758Y-109085463D01*
X154850815Y-109103944D01*
X154757414Y-109123797D01*
X154751384Y-109126482D01*
X154751383Y-109126482D01*
X154588980Y-109198788D01*
X154588978Y-109198789D01*
X154582950Y-109201473D01*
X154577609Y-109205353D01*
X154577608Y-109205354D01*
X154527545Y-109241727D01*
X154428449Y-109313725D01*
X154424028Y-109318635D01*
X154424027Y-109318636D01*
X154371707Y-109376744D01*
X154300662Y-109455647D01*
X154205175Y-109621035D01*
X154146160Y-109802663D01*
X154145470Y-109809224D01*
X154145470Y-109809226D01*
X154143560Y-109827401D01*
X154126198Y-109992591D01*
X154126888Y-109999156D01*
X154139426Y-110118444D01*
X154146160Y-110182519D01*
X154205175Y-110364147D01*
X154300662Y-110529535D01*
X154428449Y-110671457D01*
X154582950Y-110783709D01*
X154588978Y-110786393D01*
X154588980Y-110786394D01*
X154751383Y-110858700D01*
X154757414Y-110861385D01*
X154840361Y-110879016D01*
X154937758Y-110899719D01*
X154937763Y-110899719D01*
X154944215Y-110901091D01*
X155037997Y-110901091D01*
X155106118Y-110921093D01*
X155127092Y-110937996D01*
X155225001Y-111035905D01*
X155259027Y-111098217D01*
X155253962Y-111169032D01*
X155225001Y-111214095D01*
X152986456Y-113452639D01*
X150752747Y-115686348D01*
X150744461Y-115693888D01*
X150737982Y-115698000D01*
X150732557Y-115703777D01*
X150691357Y-115747651D01*
X150688602Y-115750493D01*
X150668865Y-115770230D01*
X150666385Y-115773427D01*
X150658682Y-115782447D01*
X150628414Y-115814679D01*
X150624595Y-115821625D01*
X150624593Y-115821628D01*
X150618652Y-115832434D01*
X150607801Y-115848953D01*
X150595386Y-115864959D01*
X150592241Y-115872228D01*
X150592238Y-115872232D01*
X150577826Y-115905537D01*
X150572609Y-115916187D01*
X150551305Y-115954940D01*
X150549334Y-115962615D01*
X150549334Y-115962616D01*
X150546267Y-115974562D01*
X150539863Y-115993266D01*
X150531819Y-116011855D01*
X150530580Y-116019678D01*
X150530577Y-116019688D01*
X150524901Y-116055524D01*
X150522495Y-116067144D01*
X150511500Y-116109970D01*
X150511500Y-116130224D01*
X150509949Y-116149934D01*
X150506780Y-116169943D01*
X150507526Y-116177835D01*
X150510941Y-116213961D01*
X150511500Y-116225819D01*
X150511500Y-122340500D01*
X150491498Y-122408621D01*
X150437842Y-122455114D01*
X150385500Y-122466500D01*
X150246866Y-122466500D01*
X150184684Y-122473255D01*
X150048295Y-122524385D01*
X149931739Y-122611739D01*
X149844385Y-122728295D01*
X149793255Y-122864684D01*
X149786500Y-122926866D01*
X149786500Y-124723134D01*
X147223923Y-124723134D01*
X146062810Y-123562020D01*
X146048869Y-123554408D01*
X146047034Y-123554539D01*
X146040420Y-123558790D01*
X144546927Y-125052284D01*
X144540314Y-125064394D01*
X142240000Y-125064394D01*
X142240000Y-123193958D01*
X143637488Y-123193958D01*
X143656015Y-123488436D01*
X143657008Y-123496297D01*
X143712296Y-123786128D01*
X143714267Y-123793805D01*
X143805446Y-124074424D01*
X143808361Y-124081787D01*
X143933993Y-124348770D01*
X143937805Y-124355703D01*
X144095909Y-124604835D01*
X144100563Y-124611241D01*
X144165521Y-124689761D01*
X144178040Y-124698217D01*
X144188778Y-124692011D01*
X145677980Y-123202810D01*
X145684357Y-123191131D01*
X146414408Y-123191131D01*
X146414539Y-123192966D01*
X146418790Y-123199580D01*
X147910119Y-124690908D01*
X147923381Y-124698150D01*
X147933485Y-124690962D01*
X147999437Y-124611241D01*
X148004091Y-124604835D01*
X148162195Y-124355703D01*
X148166007Y-124348770D01*
X148291639Y-124081787D01*
X148294554Y-124074424D01*
X148385733Y-123793805D01*
X148387704Y-123786128D01*
X148442992Y-123496297D01*
X148443985Y-123488436D01*
X148462512Y-123193958D01*
X148462512Y-123186042D01*
X148443985Y-122891564D01*
X148442992Y-122883703D01*
X148387704Y-122593872D01*
X148385733Y-122586195D01*
X148294554Y-122305576D01*
X148291639Y-122298213D01*
X148166007Y-122031230D01*
X148162195Y-122024297D01*
X148004091Y-121775165D01*
X147999437Y-121768759D01*
X147934479Y-121690239D01*
X147921960Y-121681783D01*
X147911222Y-121687989D01*
X146422020Y-123177190D01*
X146414408Y-123191131D01*
X145684357Y-123191131D01*
X145685592Y-123188869D01*
X145685461Y-123187034D01*
X145681210Y-123180420D01*
X144189881Y-121689092D01*
X144176619Y-121681850D01*
X144166515Y-121689038D01*
X144100563Y-121768759D01*
X144095909Y-121775165D01*
X143937805Y-122024297D01*
X143933993Y-122031230D01*
X143808361Y-122298213D01*
X143805446Y-122305576D01*
X143714267Y-122586195D01*
X143712296Y-122593872D01*
X143657008Y-122883703D01*
X143656015Y-122891564D01*
X143637488Y-123186042D01*
X143637488Y-123193958D01*
X142240000Y-123193958D01*
X142240000Y-121315179D01*
X144540347Y-121315179D01*
X144547251Y-121328040D01*
X146037190Y-122817980D01*
X146051131Y-122825592D01*
X146052966Y-122825461D01*
X146059580Y-122821210D01*
X147553073Y-121327716D01*
X147559686Y-121315606D01*
X147550857Y-121303986D01*
X147346030Y-121155170D01*
X147339350Y-121150930D01*
X147080766Y-121008772D01*
X147073631Y-121005415D01*
X146799254Y-120896781D01*
X146791763Y-120894347D01*
X146505941Y-120820961D01*
X146498170Y-120819479D01*
X146205430Y-120782497D01*
X146197540Y-120782000D01*
X145902460Y-120782000D01*
X145894570Y-120782497D01*
X145601830Y-120819479D01*
X145594059Y-120820961D01*
X145308237Y-120894347D01*
X145300746Y-120896781D01*
X145026369Y-121005415D01*
X145019234Y-121008772D01*
X144760650Y-121150930D01*
X144753970Y-121155170D01*
X144548770Y-121304256D01*
X144540347Y-121315179D01*
X142240000Y-121315179D01*
X142240000Y-113011695D01*
X144052251Y-113011695D01*
X144065110Y-113234715D01*
X144066247Y-113239761D01*
X144066248Y-113239767D01*
X144090304Y-113346508D01*
X144114222Y-113452639D01*
X144198266Y-113659616D01*
X144314987Y-113850088D01*
X144461250Y-114018938D01*
X144633126Y-114161632D01*
X144826000Y-114274338D01*
X145034692Y-114354030D01*
X145039760Y-114355061D01*
X145039763Y-114355062D01*
X145147017Y-114376883D01*
X145253597Y-114398567D01*
X145258772Y-114398757D01*
X145258774Y-114398757D01*
X145471673Y-114406564D01*
X145471677Y-114406564D01*
X145476837Y-114406753D01*
X145481957Y-114406097D01*
X145481959Y-114406097D01*
X145693288Y-114379025D01*
X145693289Y-114379025D01*
X145698416Y-114378368D01*
X145703366Y-114376883D01*
X145907429Y-114315661D01*
X145907434Y-114315659D01*
X145912384Y-114314174D01*
X146112994Y-114215896D01*
X146294860Y-114086173D01*
X146453096Y-113928489D01*
X146458177Y-113921418D01*
X146459308Y-113920536D01*
X146459465Y-113920352D01*
X146459503Y-113920384D01*
X146514172Y-113877770D01*
X146584875Y-113871324D01*
X146647840Y-113904127D01*
X146683074Y-113965763D01*
X146686500Y-113994944D01*
X146686500Y-117795405D01*
X146666498Y-117863526D01*
X146649595Y-117884500D01*
X146099500Y-118434595D01*
X146037188Y-118468621D01*
X146010405Y-118471500D01*
X145954513Y-118471500D01*
X145948061Y-118472872D01*
X145948056Y-118472872D01*
X145862298Y-118491101D01*
X145767712Y-118511206D01*
X145761682Y-118513891D01*
X145761681Y-118513891D01*
X145599278Y-118586197D01*
X145599276Y-118586198D01*
X145593248Y-118588882D01*
X145587907Y-118592762D01*
X145587906Y-118592763D01*
X145570144Y-118605668D01*
X145438747Y-118701134D01*
X145310960Y-118843056D01*
X145215473Y-119008444D01*
X145156458Y-119190072D01*
X145136496Y-119380000D01*
X145156458Y-119569928D01*
X145215473Y-119751556D01*
X145310960Y-119916944D01*
X145438747Y-120058866D01*
X145593248Y-120171118D01*
X145599276Y-120173802D01*
X145599278Y-120173803D01*
X145761681Y-120246109D01*
X145767712Y-120248794D01*
X145861112Y-120268647D01*
X145948056Y-120287128D01*
X145948061Y-120287128D01*
X145954513Y-120288500D01*
X146145487Y-120288500D01*
X146151939Y-120287128D01*
X146151944Y-120287128D01*
X146238888Y-120268647D01*
X146332288Y-120248794D01*
X146338319Y-120246109D01*
X146500722Y-120173803D01*
X146500724Y-120173802D01*
X146506752Y-120171118D01*
X146661253Y-120058866D01*
X146789040Y-119916944D01*
X146884527Y-119751556D01*
X146943542Y-119569928D01*
X146960907Y-119404706D01*
X146987920Y-119339050D01*
X146997122Y-119328782D01*
X147712247Y-118613657D01*
X147720537Y-118606113D01*
X147727018Y-118602000D01*
X147773659Y-118552332D01*
X147776413Y-118549491D01*
X147796134Y-118529770D01*
X147798612Y-118526575D01*
X147806318Y-118517553D01*
X147831158Y-118491101D01*
X147836586Y-118485321D01*
X147846346Y-118467568D01*
X147857199Y-118451045D01*
X147864753Y-118441306D01*
X147869613Y-118435041D01*
X147887176Y-118394457D01*
X147892383Y-118383827D01*
X147913695Y-118345060D01*
X147915666Y-118337383D01*
X147915668Y-118337378D01*
X147918732Y-118325442D01*
X147925138Y-118306730D01*
X147930033Y-118295419D01*
X147933181Y-118288145D01*
X147934421Y-118280317D01*
X147934423Y-118280310D01*
X147940099Y-118244476D01*
X147942505Y-118232856D01*
X147951528Y-118197711D01*
X147951528Y-118197710D01*
X147953500Y-118190030D01*
X147953500Y-118169776D01*
X147955051Y-118150065D01*
X147956980Y-118137886D01*
X147958220Y-118130057D01*
X147954059Y-118086038D01*
X147953500Y-118074181D01*
X147953500Y-106747524D01*
X147973502Y-106679403D01*
X147985858Y-106663221D01*
X148059040Y-106581944D01*
X148133708Y-106452616D01*
X148151223Y-106422279D01*
X148151224Y-106422278D01*
X148154527Y-106416556D01*
X148213542Y-106234928D01*
X148216814Y-106203803D01*
X148232814Y-106051565D01*
X148233504Y-106045000D01*
X148220488Y-105921159D01*
X148214232Y-105861635D01*
X148214232Y-105861633D01*
X148213542Y-105855072D01*
X148154527Y-105673444D01*
X148138140Y-105645060D01*
X148062341Y-105513774D01*
X148059040Y-105508056D01*
X148049726Y-105497711D01*
X147935675Y-105371045D01*
X147935674Y-105371044D01*
X147931253Y-105366134D01*
X147776752Y-105253882D01*
X147770724Y-105251198D01*
X147770722Y-105251197D01*
X147608319Y-105178891D01*
X147608318Y-105178891D01*
X147602288Y-105176206D01*
X147508887Y-105156353D01*
X147421944Y-105137872D01*
X147421939Y-105137872D01*
X147415487Y-105136500D01*
X147224513Y-105136500D01*
X147218061Y-105137872D01*
X147218056Y-105137872D01*
X147131113Y-105156353D01*
X147037712Y-105176206D01*
X147031682Y-105178891D01*
X147031681Y-105178891D01*
X146869278Y-105251197D01*
X146869276Y-105251198D01*
X146863248Y-105253882D01*
X146708747Y-105366134D01*
X146704326Y-105371044D01*
X146704325Y-105371045D01*
X146590275Y-105497711D01*
X146580960Y-105508056D01*
X146577659Y-105513774D01*
X146501861Y-105645060D01*
X146485473Y-105673444D01*
X146426458Y-105855072D01*
X146425768Y-105861633D01*
X146425768Y-105861635D01*
X146419512Y-105921159D01*
X146406496Y-106045000D01*
X146407186Y-106051565D01*
X146423187Y-106203803D01*
X146426458Y-106234928D01*
X146485473Y-106416556D01*
X146490140Y-106424639D01*
X146490514Y-106426179D01*
X146491461Y-106428307D01*
X146491072Y-106428480D01*
X146506877Y-106493635D01*
X146483656Y-106560727D01*
X146427848Y-106604613D01*
X146367413Y-106612901D01*
X146316488Y-106607369D01*
X146309672Y-106607000D01*
X145687115Y-106607000D01*
X145671876Y-106611475D01*
X145670671Y-106612865D01*
X145669000Y-106620548D01*
X145669000Y-108093000D01*
X145648998Y-108161121D01*
X145595342Y-108207614D01*
X145543000Y-108219000D01*
X144075116Y-108219000D01*
X144059877Y-108223475D01*
X144058672Y-108224865D01*
X144057001Y-108232548D01*
X144057001Y-108859669D01*
X144057371Y-108866490D01*
X144062895Y-108917352D01*
X144066521Y-108932604D01*
X144111676Y-109053054D01*
X144120214Y-109068649D01*
X144196715Y-109170724D01*
X144209276Y-109183285D01*
X144311351Y-109259786D01*
X144326946Y-109268324D01*
X144435827Y-109309142D01*
X144492591Y-109351784D01*
X144517291Y-109418345D01*
X144502083Y-109487694D01*
X144482691Y-109514175D01*
X144359200Y-109643401D01*
X144355629Y-109647138D01*
X144352715Y-109651410D01*
X144352714Y-109651411D01*
X144338233Y-109672640D01*
X144229743Y-109831680D01*
X144186173Y-109925544D01*
X144141324Y-110022164D01*
X144135688Y-110034305D01*
X144075989Y-110249570D01*
X144052251Y-110471695D01*
X144065110Y-110694715D01*
X144066247Y-110699761D01*
X144066248Y-110699767D01*
X144075419Y-110740461D01*
X144114222Y-110912639D01*
X144198266Y-111119616D01*
X144233533Y-111177167D01*
X144298880Y-111283803D01*
X144314987Y-111310088D01*
X144461250Y-111478938D01*
X144633126Y-111621632D01*
X144703595Y-111662811D01*
X144706445Y-111664476D01*
X144755169Y-111716114D01*
X144768240Y-111785897D01*
X144741509Y-111851669D01*
X144701055Y-111885027D01*
X144688607Y-111891507D01*
X144684474Y-111894610D01*
X144684471Y-111894612D01*
X144660247Y-111912800D01*
X144509965Y-112025635D01*
X144444346Y-112094301D01*
X144359750Y-112182826D01*
X144355629Y-112187138D01*
X144229743Y-112371680D01*
X144182716Y-112472992D01*
X144141324Y-112562164D01*
X144135688Y-112574305D01*
X144075989Y-112789570D01*
X144052251Y-113011695D01*
X142240000Y-113011695D01*
X142240000Y-107692885D01*
X144057000Y-107692885D01*
X144061475Y-107708124D01*
X144062865Y-107709329D01*
X144070548Y-107711000D01*
X145142885Y-107711000D01*
X145158124Y-107706525D01*
X145159329Y-107705135D01*
X145161000Y-107697452D01*
X145161000Y-106625116D01*
X145156525Y-106609877D01*
X145155135Y-106608672D01*
X145147452Y-106607001D01*
X144520331Y-106607001D01*
X144513510Y-106607371D01*
X144462648Y-106612895D01*
X144447396Y-106616521D01*
X144326946Y-106661676D01*
X144311351Y-106670214D01*
X144209276Y-106746715D01*
X144196715Y-106759276D01*
X144120214Y-106861351D01*
X144111676Y-106876946D01*
X144066522Y-106997394D01*
X144062895Y-107012649D01*
X144057369Y-107063514D01*
X144057000Y-107070328D01*
X144057000Y-107692885D01*
X142240000Y-107692885D01*
X142240000Y-105410000D01*
X143231496Y-105410000D01*
X143232186Y-105416565D01*
X143250220Y-105588145D01*
X143251458Y-105599928D01*
X143310473Y-105781556D01*
X143405960Y-105946944D01*
X143410378Y-105951851D01*
X143410379Y-105951852D01*
X143497149Y-106048220D01*
X143533747Y-106088866D01*
X143632843Y-106160864D01*
X143670193Y-106188000D01*
X143688248Y-106201118D01*
X143694276Y-106203802D01*
X143694278Y-106203803D01*
X143856681Y-106276109D01*
X143862712Y-106278794D01*
X143956112Y-106298647D01*
X144043056Y-106317128D01*
X144043061Y-106317128D01*
X144049513Y-106318500D01*
X144240487Y-106318500D01*
X144246939Y-106317128D01*
X144246944Y-106317128D01*
X144333887Y-106298647D01*
X144427288Y-106278794D01*
X144433319Y-106276109D01*
X144595722Y-106203803D01*
X144595724Y-106203802D01*
X144601752Y-106201118D01*
X144619808Y-106188000D01*
X144657157Y-106160864D01*
X144756253Y-106088866D01*
X144792851Y-106048220D01*
X144879621Y-105951852D01*
X144879622Y-105951851D01*
X144884040Y-105946944D01*
X144979527Y-105781556D01*
X145038542Y-105599928D01*
X145039781Y-105588145D01*
X145055907Y-105434707D01*
X145082920Y-105369050D01*
X145092122Y-105358782D01*
X145640499Y-104810405D01*
X145702811Y-104776379D01*
X145729594Y-104773500D01*
X155793800Y-104773500D01*
X155861921Y-104793502D01*
X155881147Y-104809843D01*
X155881420Y-104809540D01*
X155886332Y-104813963D01*
X155890747Y-104818866D01*
X155912329Y-104834546D01*
X155958578Y-104868148D01*
X156045248Y-104931118D01*
X156051276Y-104933802D01*
X156051278Y-104933803D01*
X156213681Y-105006109D01*
X156219712Y-105008794D01*
X156313113Y-105028647D01*
X156400056Y-105047128D01*
X156400061Y-105047128D01*
X156406513Y-105048500D01*
X156597487Y-105048500D01*
X156603939Y-105047128D01*
X156603944Y-105047128D01*
X156690888Y-105028647D01*
X156784288Y-105008794D01*
X156790319Y-105006109D01*
X156952722Y-104933803D01*
X156952724Y-104933802D01*
X156958752Y-104931118D01*
X157113253Y-104818866D01*
X157136091Y-104793502D01*
X157236621Y-104681852D01*
X157236622Y-104681851D01*
X157241040Y-104676944D01*
X157336527Y-104511556D01*
X157395542Y-104329928D01*
X157415504Y-104140000D01*
X157395542Y-103950072D01*
X157336527Y-103768444D01*
X157241040Y-103603056D01*
X157224881Y-103585109D01*
X157117675Y-103466045D01*
X157117674Y-103466044D01*
X157113253Y-103461134D01*
X156958752Y-103348882D01*
X156952724Y-103346198D01*
X156952722Y-103346197D01*
X156790319Y-103273891D01*
X156790318Y-103273891D01*
X156784288Y-103271206D01*
X156690887Y-103251353D01*
X156603944Y-103232872D01*
X156603939Y-103232872D01*
X156597487Y-103231500D01*
X156406513Y-103231500D01*
X156400061Y-103232872D01*
X156400056Y-103232872D01*
X156313113Y-103251353D01*
X156219712Y-103271206D01*
X156213682Y-103273891D01*
X156213681Y-103273891D01*
X156051278Y-103346197D01*
X156051276Y-103346198D01*
X156045248Y-103348882D01*
X155890747Y-103461134D01*
X155886332Y-103466037D01*
X155881420Y-103470460D01*
X155880295Y-103469211D01*
X155826986Y-103502051D01*
X155793800Y-103506500D01*
X145493767Y-103506500D01*
X145482584Y-103505973D01*
X145475091Y-103504298D01*
X145467165Y-103504547D01*
X145467164Y-103504547D01*
X145407014Y-103506438D01*
X145403055Y-103506500D01*
X145375144Y-103506500D01*
X145371210Y-103506997D01*
X145371209Y-103506997D01*
X145371144Y-103507005D01*
X145359307Y-103507938D01*
X145327490Y-103508938D01*
X145323029Y-103509078D01*
X145315110Y-103509327D01*
X145297454Y-103514456D01*
X145295658Y-103514978D01*
X145276306Y-103518986D01*
X145269235Y-103519880D01*
X145256203Y-103521526D01*
X145248834Y-103524443D01*
X145248832Y-103524444D01*
X145215097Y-103537800D01*
X145203869Y-103541645D01*
X145161407Y-103553982D01*
X145154585Y-103558016D01*
X145154579Y-103558019D01*
X145143968Y-103564294D01*
X145126218Y-103572990D01*
X145114756Y-103577528D01*
X145114751Y-103577531D01*
X145107383Y-103580448D01*
X145100968Y-103585109D01*
X145071625Y-103606427D01*
X145061707Y-103612943D01*
X145043019Y-103623995D01*
X145023637Y-103635458D01*
X145009313Y-103649782D01*
X144994281Y-103662621D01*
X144977893Y-103674528D01*
X144949712Y-103708593D01*
X144941722Y-103717373D01*
X144194500Y-104464595D01*
X144132188Y-104498621D01*
X144105405Y-104501500D01*
X144049513Y-104501500D01*
X144043061Y-104502872D01*
X144043056Y-104502872D01*
X143975279Y-104517279D01*
X143862712Y-104541206D01*
X143856682Y-104543891D01*
X143856681Y-104543891D01*
X143694278Y-104616197D01*
X143694276Y-104616198D01*
X143688248Y-104618882D01*
X143533747Y-104731134D01*
X143529326Y-104736044D01*
X143529325Y-104736045D01*
X143451257Y-104822749D01*
X143405960Y-104873056D01*
X143310473Y-105038444D01*
X143251458Y-105220072D01*
X143250768Y-105226633D01*
X143250768Y-105226635D01*
X143236879Y-105358782D01*
X143231496Y-105410000D01*
X142240000Y-105410000D01*
X142240000Y-95219394D01*
X154700314Y-95219394D01*
X154709143Y-95231014D01*
X154913970Y-95379830D01*
X154920650Y-95384070D01*
X155179234Y-95526228D01*
X155186369Y-95529585D01*
X155460746Y-95638219D01*
X155468237Y-95640653D01*
X155754059Y-95714039D01*
X155761830Y-95715521D01*
X156054570Y-95752503D01*
X156062460Y-95753000D01*
X156357540Y-95753000D01*
X156365430Y-95752503D01*
X156658170Y-95715521D01*
X156665947Y-95714038D01*
X156674356Y-95711879D01*
X156745311Y-95714311D01*
X156803687Y-95754717D01*
X156830951Y-95820270D01*
X156818447Y-95890157D01*
X156799331Y-95918228D01*
X156740960Y-95983056D01*
X156645473Y-96148444D01*
X156586458Y-96330072D01*
X156566496Y-96520000D01*
X156586458Y-96709928D01*
X156645473Y-96891556D01*
X156740960Y-97056944D01*
X156868747Y-97198866D01*
X157023248Y-97311118D01*
X157029276Y-97313802D01*
X157029278Y-97313803D01*
X157187647Y-97384313D01*
X157197712Y-97388794D01*
X157276105Y-97405457D01*
X157378056Y-97427128D01*
X157378061Y-97427128D01*
X157384513Y-97428500D01*
X157440406Y-97428500D01*
X157508527Y-97448502D01*
X157529501Y-97465405D01*
X158079595Y-98015499D01*
X158113621Y-98077811D01*
X158116500Y-98104594D01*
X158116500Y-105095405D01*
X158096498Y-105163526D01*
X158079595Y-105184500D01*
X157087747Y-106176348D01*
X157079461Y-106183888D01*
X157072982Y-106188000D01*
X157067557Y-106193777D01*
X157026357Y-106237651D01*
X157023602Y-106240493D01*
X157003865Y-106260230D01*
X157001385Y-106263427D01*
X156993682Y-106272447D01*
X156963414Y-106304679D01*
X156959595Y-106311625D01*
X156959593Y-106311628D01*
X156953652Y-106322434D01*
X156942801Y-106338953D01*
X156930386Y-106354959D01*
X156927241Y-106362228D01*
X156927238Y-106362232D01*
X156912826Y-106395537D01*
X156907609Y-106406187D01*
X156886305Y-106444940D01*
X156884334Y-106452615D01*
X156884334Y-106452616D01*
X156881267Y-106464562D01*
X156874863Y-106483266D01*
X156866819Y-106501855D01*
X156865580Y-106509678D01*
X156865577Y-106509688D01*
X156859901Y-106545524D01*
X156857495Y-106557144D01*
X156852596Y-106576226D01*
X156846500Y-106599970D01*
X156846500Y-106620224D01*
X156844949Y-106639934D01*
X156841780Y-106659943D01*
X156842526Y-106667835D01*
X156845941Y-106703961D01*
X156846500Y-106715819D01*
X156846500Y-109201233D01*
X156845973Y-109212416D01*
X156844298Y-109219909D01*
X156844547Y-109227835D01*
X156844547Y-109227836D01*
X156846438Y-109287986D01*
X156846500Y-109291945D01*
X156846500Y-109319856D01*
X156846997Y-109323790D01*
X156846997Y-109323791D01*
X156847005Y-109323856D01*
X156847938Y-109335693D01*
X156849327Y-109379889D01*
X156854978Y-109399339D01*
X156858987Y-109418700D01*
X156861526Y-109438797D01*
X156864445Y-109446168D01*
X156864445Y-109446170D01*
X156877804Y-109479912D01*
X156881649Y-109491142D01*
X156887444Y-109511088D01*
X156893982Y-109533593D01*
X156898015Y-109540412D01*
X156898017Y-109540417D01*
X156904293Y-109551028D01*
X156912988Y-109568776D01*
X156920448Y-109587617D01*
X156925110Y-109594033D01*
X156925110Y-109594034D01*
X156946436Y-109623387D01*
X156952952Y-109633307D01*
X156975458Y-109671362D01*
X156989779Y-109685683D01*
X157002619Y-109700716D01*
X157014528Y-109717107D01*
X157020634Y-109722158D01*
X157048605Y-109745298D01*
X157057384Y-109753288D01*
X157742878Y-110438782D01*
X157776904Y-110501094D01*
X157779093Y-110514707D01*
X157795568Y-110671457D01*
X157796458Y-110679928D01*
X157855473Y-110861556D01*
X157858776Y-110867278D01*
X157858777Y-110867279D01*
X157877506Y-110899719D01*
X157950960Y-111026944D01*
X157955378Y-111031851D01*
X157955379Y-111031852D01*
X158039250Y-111125000D01*
X158078747Y-111168866D01*
X158233248Y-111281118D01*
X158239276Y-111283802D01*
X158239278Y-111283803D01*
X158384281Y-111348362D01*
X158407712Y-111358794D01*
X158501112Y-111378647D01*
X158588056Y-111397128D01*
X158588061Y-111397128D01*
X158594513Y-111398500D01*
X158785487Y-111398500D01*
X158791939Y-111397128D01*
X158791944Y-111397128D01*
X158878888Y-111378647D01*
X158972288Y-111358794D01*
X158995719Y-111348362D01*
X159140722Y-111283803D01*
X159140724Y-111283802D01*
X159146752Y-111281118D01*
X159301253Y-111168866D01*
X159340750Y-111125000D01*
X159424621Y-111031852D01*
X159424622Y-111031851D01*
X159429040Y-111026944D01*
X159502494Y-110899719D01*
X159521223Y-110867279D01*
X159521224Y-110867278D01*
X159524527Y-110861556D01*
X159583542Y-110679928D01*
X159584433Y-110671457D01*
X159602814Y-110496565D01*
X159603504Y-110490000D01*
X159590878Y-110369870D01*
X159584232Y-110306635D01*
X159584232Y-110306633D01*
X159583542Y-110300072D01*
X159524527Y-110118444D01*
X159429040Y-109953056D01*
X159346009Y-109860840D01*
X159305675Y-109816045D01*
X159305674Y-109816044D01*
X159301253Y-109811134D01*
X159178789Y-109722158D01*
X159152094Y-109702763D01*
X159152093Y-109702762D01*
X159146752Y-109698882D01*
X159140724Y-109696198D01*
X159140722Y-109696197D01*
X158978319Y-109623891D01*
X158978318Y-109623891D01*
X158972288Y-109621206D01*
X158844455Y-109594034D01*
X158791944Y-109582872D01*
X158791939Y-109582872D01*
X158785487Y-109581500D01*
X158729595Y-109581500D01*
X158661474Y-109561498D01*
X158640500Y-109544595D01*
X158150405Y-109054500D01*
X158116379Y-108992188D01*
X158113500Y-108965405D01*
X158113500Y-106994594D01*
X158133502Y-106926473D01*
X158150405Y-106905499D01*
X159142247Y-105913657D01*
X159150537Y-105906113D01*
X159157018Y-105902000D01*
X159203659Y-105852332D01*
X159206413Y-105849491D01*
X159226134Y-105829770D01*
X159228612Y-105826575D01*
X159236318Y-105817553D01*
X159261158Y-105791101D01*
X159266586Y-105785321D01*
X159276346Y-105767568D01*
X159287199Y-105751045D01*
X159294753Y-105741306D01*
X159299613Y-105735041D01*
X159317176Y-105694457D01*
X159322383Y-105683827D01*
X159343695Y-105645060D01*
X159345666Y-105637383D01*
X159345668Y-105637378D01*
X159348732Y-105625442D01*
X159355138Y-105606730D01*
X159360033Y-105595419D01*
X159363181Y-105588145D01*
X159364421Y-105580317D01*
X159364423Y-105580310D01*
X159370099Y-105544476D01*
X159372505Y-105532856D01*
X159381528Y-105497711D01*
X159381528Y-105497710D01*
X159383500Y-105490030D01*
X159383500Y-105469776D01*
X159385051Y-105450065D01*
X159386980Y-105437886D01*
X159388220Y-105430057D01*
X159384059Y-105386038D01*
X159383500Y-105374181D01*
X159383500Y-104068594D01*
X159403502Y-104000473D01*
X159457158Y-103953980D01*
X159527432Y-103943876D01*
X159592012Y-103973370D01*
X159598595Y-103979499D01*
X161421348Y-105802253D01*
X161428888Y-105810539D01*
X161433000Y-105817018D01*
X161438777Y-105822443D01*
X161482651Y-105863643D01*
X161485493Y-105866398D01*
X161505230Y-105886135D01*
X161508427Y-105888615D01*
X161517447Y-105896318D01*
X161549679Y-105926586D01*
X161556625Y-105930405D01*
X161556628Y-105930407D01*
X161567434Y-105936348D01*
X161583953Y-105947199D01*
X161599959Y-105959614D01*
X161607228Y-105962759D01*
X161607232Y-105962762D01*
X161640537Y-105977174D01*
X161651187Y-105982391D01*
X161689940Y-106003695D01*
X161697615Y-106005666D01*
X161697616Y-106005666D01*
X161709562Y-106008733D01*
X161728267Y-106015137D01*
X161746855Y-106023181D01*
X161754678Y-106024420D01*
X161754688Y-106024423D01*
X161790524Y-106030099D01*
X161802144Y-106032505D01*
X161825242Y-106038435D01*
X161844970Y-106043500D01*
X161865224Y-106043500D01*
X161884934Y-106045051D01*
X161904943Y-106048220D01*
X161912835Y-106047474D01*
X161948961Y-106044059D01*
X161960819Y-106043500D01*
X164391800Y-106043500D01*
X164459921Y-106063502D01*
X164479147Y-106079843D01*
X164479420Y-106079540D01*
X164484332Y-106083963D01*
X164488747Y-106088866D01*
X164510329Y-106104546D01*
X164625193Y-106188000D01*
X164643248Y-106201118D01*
X164649276Y-106203802D01*
X164649278Y-106203803D01*
X164811681Y-106276109D01*
X164817712Y-106278794D01*
X164911112Y-106298647D01*
X164998056Y-106317128D01*
X164998061Y-106317128D01*
X165004513Y-106318500D01*
X165195487Y-106318500D01*
X165201939Y-106317128D01*
X165201944Y-106317128D01*
X165288887Y-106298647D01*
X165382288Y-106278794D01*
X165388319Y-106276109D01*
X165550722Y-106203803D01*
X165550724Y-106203802D01*
X165556752Y-106201118D01*
X165574808Y-106188000D01*
X165612157Y-106160864D01*
X165711253Y-106088866D01*
X165747851Y-106048220D01*
X165834621Y-105951852D01*
X165834622Y-105951851D01*
X165839040Y-105946944D01*
X165934527Y-105781556D01*
X165993542Y-105599928D01*
X165994781Y-105588145D01*
X166012814Y-105416565D01*
X166013504Y-105410000D01*
X166008121Y-105358782D01*
X165994232Y-105226635D01*
X165994232Y-105226633D01*
X165993542Y-105220072D01*
X165934527Y-105038444D01*
X165839040Y-104873056D01*
X165793744Y-104822749D01*
X165715675Y-104736045D01*
X165715674Y-104736044D01*
X165711253Y-104731134D01*
X165556752Y-104618882D01*
X165550724Y-104616198D01*
X165550722Y-104616197D01*
X165388319Y-104543891D01*
X165388318Y-104543891D01*
X165382288Y-104541206D01*
X165269721Y-104517279D01*
X165201944Y-104502872D01*
X165201939Y-104502872D01*
X165195487Y-104501500D01*
X165004513Y-104501500D01*
X164998061Y-104502872D01*
X164998056Y-104502872D01*
X164930279Y-104517279D01*
X164817712Y-104541206D01*
X164811682Y-104543891D01*
X164811681Y-104543891D01*
X164649278Y-104616197D01*
X164649276Y-104616198D01*
X164643248Y-104618882D01*
X164637907Y-104622762D01*
X164637906Y-104622763D01*
X164510329Y-104715454D01*
X164488747Y-104731134D01*
X164484332Y-104736037D01*
X164479420Y-104740460D01*
X164478295Y-104739211D01*
X164424986Y-104772051D01*
X164391800Y-104776500D01*
X162239594Y-104776500D01*
X162171473Y-104756498D01*
X162150499Y-104739595D01*
X160690405Y-103279500D01*
X160656379Y-103217188D01*
X160653500Y-103190405D01*
X160653500Y-102937524D01*
X160673502Y-102869403D01*
X160685858Y-102853221D01*
X160759040Y-102771944D01*
X160854527Y-102606556D01*
X160913542Y-102424928D01*
X160933504Y-102235000D01*
X160913542Y-102045072D01*
X160854527Y-101863444D01*
X160759040Y-101698056D01*
X160631253Y-101556134D01*
X160476752Y-101443882D01*
X160470724Y-101441198D01*
X160470722Y-101441197D01*
X160308319Y-101368891D01*
X160308318Y-101368891D01*
X160302288Y-101366206D01*
X160208887Y-101346353D01*
X160121944Y-101327872D01*
X160121939Y-101327872D01*
X160115487Y-101326500D01*
X159924513Y-101326500D01*
X159918061Y-101327872D01*
X159918056Y-101327872D01*
X159831113Y-101346353D01*
X159737712Y-101366206D01*
X159731682Y-101368891D01*
X159731681Y-101368891D01*
X159588006Y-101432859D01*
X159563248Y-101443882D01*
X159562323Y-101441804D01*
X159503512Y-101456076D01*
X159436419Y-101432859D01*
X159392528Y-101377055D01*
X159383500Y-101330218D01*
X159383500Y-97868767D01*
X159384027Y-97857584D01*
X159385702Y-97850091D01*
X159383562Y-97782014D01*
X159383500Y-97778055D01*
X159383500Y-97750144D01*
X159382995Y-97746144D01*
X159382062Y-97734301D01*
X159380922Y-97698029D01*
X159380673Y-97690110D01*
X159375022Y-97670658D01*
X159371014Y-97651306D01*
X159369467Y-97639063D01*
X159368474Y-97631203D01*
X159365556Y-97623832D01*
X159352200Y-97590097D01*
X159348355Y-97578870D01*
X159347721Y-97576687D01*
X159336018Y-97536407D01*
X159331984Y-97529585D01*
X159331981Y-97529579D01*
X159325706Y-97518968D01*
X159317010Y-97501218D01*
X159312472Y-97489756D01*
X159312469Y-97489751D01*
X159309552Y-97482383D01*
X159296901Y-97464970D01*
X159283573Y-97446625D01*
X159277057Y-97436707D01*
X159258575Y-97405457D01*
X159254542Y-97398637D01*
X159240218Y-97384313D01*
X159227376Y-97369278D01*
X159215472Y-97352893D01*
X159181406Y-97324711D01*
X159172627Y-97316722D01*
X158427122Y-96571217D01*
X158393096Y-96508905D01*
X158390907Y-96495292D01*
X158374232Y-96336635D01*
X158374232Y-96336633D01*
X158373542Y-96330072D01*
X158314527Y-96148444D01*
X158219040Y-95983056D01*
X158160671Y-95918230D01*
X158095675Y-95846045D01*
X158095674Y-95846044D01*
X158091253Y-95841134D01*
X157972311Y-95754717D01*
X157942094Y-95732763D01*
X157942093Y-95732762D01*
X157936752Y-95728882D01*
X157930724Y-95726198D01*
X157930722Y-95726197D01*
X157768319Y-95653891D01*
X157768318Y-95653891D01*
X157762288Y-95651206D01*
X157668888Y-95631353D01*
X157581944Y-95612872D01*
X157581939Y-95612872D01*
X157575487Y-95611500D01*
X157568885Y-95611500D01*
X157562318Y-95610810D01*
X157562617Y-95607960D01*
X157506551Y-95591498D01*
X157460058Y-95537842D01*
X157449954Y-95467568D01*
X157479448Y-95402988D01*
X157503131Y-95382586D01*
X157502822Y-95382161D01*
X157711230Y-95230744D01*
X157719653Y-95219821D01*
X157712749Y-95206960D01*
X156222810Y-93717020D01*
X156208869Y-93709408D01*
X156207034Y-93709539D01*
X156200420Y-93713790D01*
X154706927Y-95207284D01*
X154700314Y-95219394D01*
X142240000Y-95219394D01*
X142240000Y-93348958D01*
X153797488Y-93348958D01*
X153816015Y-93643436D01*
X153817008Y-93651297D01*
X153872296Y-93941128D01*
X153874267Y-93948805D01*
X153965446Y-94229424D01*
X153968361Y-94236787D01*
X154093993Y-94503770D01*
X154097805Y-94510703D01*
X154255909Y-94759835D01*
X154260563Y-94766241D01*
X154325521Y-94844761D01*
X154338040Y-94853217D01*
X154348778Y-94847011D01*
X155837980Y-93357810D01*
X155844357Y-93346131D01*
X156574408Y-93346131D01*
X156574539Y-93347966D01*
X156578790Y-93354580D01*
X158070119Y-94845908D01*
X158083381Y-94853150D01*
X158093485Y-94845962D01*
X158159437Y-94766241D01*
X158164091Y-94759835D01*
X158322195Y-94510703D01*
X158326007Y-94503770D01*
X158451639Y-94236787D01*
X158454554Y-94229424D01*
X158545733Y-93948805D01*
X158547704Y-93941128D01*
X158602992Y-93651297D01*
X158603985Y-93643436D01*
X158622512Y-93348958D01*
X158622512Y-93341042D01*
X158603985Y-93046564D01*
X158602992Y-93038703D01*
X158547704Y-92748872D01*
X158545733Y-92741195D01*
X158454554Y-92460576D01*
X158451639Y-92453213D01*
X158326007Y-92186230D01*
X158322195Y-92179297D01*
X158164091Y-91930165D01*
X158159437Y-91923759D01*
X158094479Y-91845239D01*
X158081960Y-91836783D01*
X158071222Y-91842989D01*
X156582020Y-93332190D01*
X156574408Y-93346131D01*
X155844357Y-93346131D01*
X155845592Y-93343869D01*
X155845461Y-93342034D01*
X155841210Y-93335420D01*
X154349881Y-91844092D01*
X154336619Y-91836850D01*
X154326515Y-91844038D01*
X154260563Y-91923759D01*
X154255909Y-91930165D01*
X154097805Y-92179297D01*
X154093993Y-92186230D01*
X153968361Y-92453213D01*
X153965446Y-92460576D01*
X153874267Y-92741195D01*
X153872296Y-92748872D01*
X153817008Y-93038703D01*
X153816015Y-93046564D01*
X153797488Y-93341042D01*
X153797488Y-93348958D01*
X142240000Y-93348958D01*
X142240000Y-91470179D01*
X154700347Y-91470179D01*
X154707251Y-91483040D01*
X156197190Y-92972980D01*
X156211131Y-92980592D01*
X156212966Y-92980461D01*
X156219580Y-92976210D01*
X157713073Y-91482716D01*
X157719686Y-91470606D01*
X157710857Y-91458986D01*
X157506030Y-91310170D01*
X157499350Y-91305930D01*
X157240766Y-91163772D01*
X157233631Y-91160415D01*
X156959254Y-91051781D01*
X156951763Y-91049347D01*
X156665941Y-90975961D01*
X156658170Y-90974479D01*
X156365430Y-90937497D01*
X156357540Y-90937000D01*
X156062460Y-90937000D01*
X156054570Y-90937497D01*
X155761830Y-90974479D01*
X155754059Y-90975961D01*
X155468237Y-91049347D01*
X155460746Y-91051781D01*
X155186369Y-91160415D01*
X155179234Y-91163772D01*
X154920650Y-91305930D01*
X154913970Y-91310170D01*
X154708770Y-91459256D01*
X154700347Y-91470179D01*
X142240000Y-91470179D01*
X142240000Y-90296000D01*
X142260002Y-90227879D01*
X142313658Y-90181386D01*
X142366000Y-90170000D01*
X170054000Y-90170000D01*
X170122121Y-90190002D01*
G37*
%TD.AperFunction*%
%TD*%
M02*
